<?xml version="1.0" encoding="UTF-8" standalone="no"?>
<!DOCTYPE svg PUBLIC "-//W3C//DTD SVG 1.1//EN"
 "http://www.w3.org/Graphics/SVG/1.1/DTD/svg11.dtd">
<!-- Generated by graphviz version 2.38.0 (20140413.2041)
 -->
<!-- Title: factory&#45;py.cc Pages: 1 -->
<svg width="368pt" height="341pt"
 viewBox="0.00 0.00 367.50 341.00" xmlns="http://www.w3.org/2000/svg" xmlns:xlink="http://www.w3.org/1999/xlink">
<g id="graph0" class="graph" transform="scale(1 1) rotate(0) translate(4 337)">
<title>factory&#45;py.cc</title>
<polygon fill="white" stroke="none" points="-4,4 -4,-337 363.5,-337 363.5,4 -4,4"/>
<!-- Node1 -->
<g id="node1" class="node"><title>Node1</title>
<polygon fill="#bfbfbf" stroke="black" points="64,-313.5 64,-332.5 138,-332.5 138,-313.5 64,-313.5"/>
<text text-anchor="middle" x="101" y="-320.5" font-family="Helvetica,sans-Serif" font-size="10.00">factory&#45;py.cc</text>
</g>
<!-- Node2 -->
<g id="node2" class="node"><title>Node2</title>
<polygon fill="white" stroke="#bfbfbf" points="0,-257.5 0,-276.5 56,-276.5 56,-257.5 0,-257.5"/>
<text text-anchor="middle" x="28" y="-264.5" font-family="Helvetica,sans-Serif" font-size="10.00">Python.h</text>
</g>
<!-- Node1&#45;&gt;Node2 -->
<g id="edge1" class="edge"><title>Node1&#45;&gt;Node2</title>
<path fill="none" stroke="midnightblue" d="M89.2713,-313.324C78.1626,-305.107 61.2578,-292.602 48.0167,-282.807"/>
<polygon fill="midnightblue" stroke="midnightblue" points="50.0631,-279.967 39.9421,-276.834 45.9001,-285.595 50.0631,-279.967"/>
</g>
<!-- Node3 -->
<g id="node3" class="node"><title>Node3</title>
<polygon fill="white" stroke="#bfbfbf" points="74,-257.5 74,-276.5 128,-276.5 128,-257.5 74,-257.5"/>
<text text-anchor="middle" x="101" y="-264.5" font-family="Helvetica,sans-Serif" font-size="10.00">iostream</text>
</g>
<!-- Node1&#45;&gt;Node3 -->
<g id="edge2" class="edge"><title>Node1&#45;&gt;Node3</title>
<path fill="none" stroke="midnightblue" d="M101,-313.083C101,-306.006 101,-295.861 101,-286.986"/>
<polygon fill="midnightblue" stroke="midnightblue" points="104.5,-286.751 101,-276.751 97.5001,-286.751 104.5,-286.751"/>
</g>
<!-- Node4 -->
<g id="node4" class="node"><title>Node4</title>
<g id="a_node4"><a doxygen="/opt/openrobots/share/doc/dynamic-graph/doxygen-html/dynamic-graph.doxytag:../../../../../../opt/openrobots/share/doc/dynamic-graph/doxygen-html/" xlink:href="../../../../../../opt/openrobots/share/doc/dynamic-graph/doxygen-html/a00081.html" target="_top" xlink:title="dynamic&#45;graph/factory.h">
<polygon fill="white" stroke="black" points="146,-257.5 146,-276.5 268,-276.5 268,-257.5 146,-257.5"/>
<text text-anchor="middle" x="207" y="-264.5" font-family="Helvetica,sans-Serif" font-size="10.00">dynamic&#45;graph/factory.h</text>
</a>
</g>
</g>
<!-- Node1&#45;&gt;Node4 -->
<g id="edge3" class="edge"><title>Node1&#45;&gt;Node4</title>
<path fill="none" stroke="midnightblue" d="M118.031,-313.324C135.03,-304.664 161.376,-291.242 180.993,-281.249"/>
<polygon fill="midnightblue" stroke="midnightblue" points="182.69,-284.312 190.012,-276.655 179.512,-278.075 182.69,-284.312"/>
</g>
<!-- Node5 -->
<g id="node5" class="node"><title>Node5</title>
<g id="a_node5"><a doxygen="/opt/openrobots/share/doc/dynamic-graph/doxygen-html/dynamic-graph.doxytag:../../../../../../opt/openrobots/share/doc/dynamic-graph/doxygen-html/" xlink:href="../../../../../../opt/openrobots/share/doc/dynamic-graph/doxygen-html/a00082.html" target="_top" xlink:title="dynamic&#45;graph/fwd.hh">
<polygon fill="white" stroke="black" points="59.5,-62 59.5,-81 172.5,-81 172.5,-62 59.5,-62"/>
<text text-anchor="middle" x="116" y="-69" font-family="Helvetica,sans-Serif" font-size="10.00">dynamic&#45;graph/fwd.hh</text>
</a>
</g>
</g>
<!-- Node4&#45;&gt;Node5 -->
<g id="edge4" class="edge"><title>Node4&#45;&gt;Node5</title>
<path fill="none" stroke="midnightblue" d="M185.203,-257.467C169.256,-250.127 148.333,-238.015 136,-221 107.707,-181.965 109.896,-121.623 113.262,-91.2803"/>
<polygon fill="midnightblue" stroke="midnightblue" points="116.751,-91.5903 114.548,-81.2269 109.807,-90.7018 116.751,-91.5903"/>
</g>
<!-- Node6 -->
<g id="node6" class="node"><title>Node6</title>
<g id="a_node6"><a doxygen="/opt/openrobots/share/doc/dynamic-graph/doxygen-html/dynamic-graph.doxytag:../../../../../../opt/openrobots/share/doc/dynamic-graph/doxygen-html/" xlink:href="../../../../../../opt/openrobots/share/doc/dynamic-graph/doxygen-html/a00078.html" target="_top" xlink:title="dynamic&#45;graph/exception\l&#45;factory.h">
<polygon fill="white" stroke="black" points="144.5,-190.5 144.5,-220.5 269.5,-220.5 269.5,-190.5 144.5,-190.5"/>
<text text-anchor="start" x="152.5" y="-208.5" font-family="Helvetica,sans-Serif" font-size="10.00">dynamic&#45;graph/exception</text>
<text text-anchor="middle" x="207" y="-197.5" font-family="Helvetica,sans-Serif" font-size="10.00">&#45;factory.h</text>
</a>
</g>
</g>
<!-- Node4&#45;&gt;Node6 -->
<g id="edge5" class="edge"><title>Node4&#45;&gt;Node6</title>
<path fill="none" stroke="midnightblue" d="M207,-257.475C207,-250.471 207,-240.192 207,-230.696"/>
<polygon fill="midnightblue" stroke="midnightblue" points="210.5,-230.523 207,-220.523 203.5,-230.523 210.5,-230.523"/>
</g>
<!-- Node7 -->
<g id="node7" class="node"><title>Node7</title>
<g id="a_node7"><a doxygen="/opt/openrobots/share/doc/dynamic-graph/doxygen-html/dynamic-graph.doxytag:../../../../../../opt/openrobots/share/doc/dynamic-graph/doxygen-html/" xlink:href="../../../../../../opt/openrobots/share/doc/dynamic-graph/doxygen-html/a00073.html" target="_top" xlink:title="dynamic&#45;graph/dynamic\l&#45;graph&#45;api.h">
<polygon fill="white" stroke="black" points="238,-56.5 238,-86.5 358,-86.5 358,-56.5 238,-56.5"/>
<text text-anchor="start" x="246" y="-74.5" font-family="Helvetica,sans-Serif" font-size="10.00">dynamic&#45;graph/dynamic</text>
<text text-anchor="middle" x="298" y="-63.5" font-family="Helvetica,sans-Serif" font-size="10.00">&#45;graph&#45;api.h</text>
</a>
</g>
</g>
<!-- Node4&#45;&gt;Node7 -->
<g id="edge12" class="edge"><title>Node4&#45;&gt;Node7</title>
<path fill="none" stroke="midnightblue" d="M228.898,-257.392C244.962,-250.011 266.135,-237.883 279,-221 306.479,-184.939 305.332,-129.075 301.811,-97.137"/>
<polygon fill="midnightblue" stroke="midnightblue" points="305.244,-96.388 300.51,-86.9097 298.3,-97.2716 305.244,-96.388"/>
</g>
<!-- Node6&#45;&gt;Node5 -->
<g id="edge6" class="edge"><title>Node6&#45;&gt;Node5</title>
<path fill="none" stroke="midnightblue" d="M178.242,-190.443C163.525,-181.85 146.538,-169.517 136,-154 123.175,-135.116 118.557,-108.819 116.904,-91.2564"/>
<polygon fill="midnightblue" stroke="midnightblue" points="120.386,-90.8707 116.19,-81.1422 113.403,-91.364 120.386,-90.8707"/>
</g>
<!-- Node6&#45;&gt;Node7 -->
<g id="edge7" class="edge"><title>Node6&#45;&gt;Node7</title>
<path fill="none" stroke="midnightblue" d="M236.596,-190.372C251.456,-181.828 268.488,-169.562 279,-154 290.408,-137.112 295.018,-114.262 296.856,-97.0534"/>
<polygon fill="midnightblue" stroke="midnightblue" points="300.378,-96.9319 297.706,-86.6794 293.401,-96.3599 300.378,-96.9319"/>
</g>
<!-- Node9 -->
<g id="node9" class="node"><title>Node9</title>
<g id="a_node9"><a doxygen="/opt/openrobots/share/doc/dynamic-graph/doxygen-html/dynamic-graph.doxytag:../../../../../../opt/openrobots/share/doc/dynamic-graph/doxygen-html/" xlink:href="../../../../../../opt/openrobots/share/doc/dynamic-graph/doxygen-html/a00077.html" target="_top" xlink:title="dynamic&#45;graph/exception\l&#45;abstract.h">
<polygon fill="white" stroke="black" points="144.5,-123.5 144.5,-153.5 269.5,-153.5 269.5,-123.5 144.5,-123.5"/>
<text text-anchor="start" x="152.5" y="-141.5" font-family="Helvetica,sans-Serif" font-size="10.00">dynamic&#45;graph/exception</text>
<text text-anchor="middle" x="207" y="-130.5" font-family="Helvetica,sans-Serif" font-size="10.00">&#45;abstract.h</text>
</a>
</g>
</g>
<!-- Node6&#45;&gt;Node9 -->
<g id="edge9" class="edge"><title>Node6&#45;&gt;Node9</title>
<path fill="none" stroke="midnightblue" d="M207,-190.396C207,-182.645 207,-172.812 207,-163.86"/>
<polygon fill="midnightblue" stroke="midnightblue" points="210.5,-163.576 207,-153.577 203.5,-163.577 210.5,-163.576"/>
</g>
<!-- Node8 -->
<g id="node8" class="node"><title>Node8</title>
<g id="a_node8"><a doxygen="/opt/openrobots/share/doc/dynamic-graph/doxygen-html/dynamic-graph.doxytag:../../../../../../opt/openrobots/share/doc/dynamic-graph/doxygen-html/" xlink:href="../../../../../../opt/openrobots/share/doc/dynamic-graph/doxygen-html/a00068.html" target="_top" xlink:title="dynamic&#45;graph/config.hh">
<polygon fill="white" stroke="black" points="236.5,-0.5 236.5,-19.5 359.5,-19.5 359.5,-0.5 236.5,-0.5"/>
<text text-anchor="middle" x="298" y="-7.5" font-family="Helvetica,sans-Serif" font-size="10.00">dynamic&#45;graph/config.hh</text>
</a>
</g>
</g>
<!-- Node7&#45;&gt;Node8 -->
<g id="edge8" class="edge"><title>Node7&#45;&gt;Node8</title>
<path fill="none" stroke="midnightblue" d="M298,-56.3993C298,-48.4664 298,-38.458 298,-29.8583"/>
<polygon fill="midnightblue" stroke="midnightblue" points="301.5,-29.6577 298,-19.6578 294.5,-29.6578 301.5,-29.6577"/>
</g>
<!-- Node9&#45;&gt;Node5 -->
<g id="edge10" class="edge"><title>Node9&#45;&gt;Node5</title>
<path fill="none" stroke="midnightblue" d="M187.254,-123.396C172.135,-112.597 151.359,-97.7564 136.142,-86.8872"/>
<polygon fill="midnightblue" stroke="midnightblue" points="138.082,-83.9714 127.91,-81.007 134.013,-89.6675 138.082,-83.9714"/>
</g>
<!-- Node9&#45;&gt;Node7 -->
<g id="edge11" class="edge"><title>Node9&#45;&gt;Node7</title>
<path fill="none" stroke="midnightblue" d="M226.746,-123.396C239.386,-114.367 255.98,-102.514 269.974,-92.5184"/>
<polygon fill="midnightblue" stroke="midnightblue" points="272.19,-95.237 278.293,-86.5765 268.121,-89.5409 272.19,-95.237"/>
</g>
</g>
</svg>
