<?xml version="1.0" encoding="UTF-8" standalone="no"?>
<!DOCTYPE svg PUBLIC "-//W3C//DTD SVG 1.1//EN"
 "http://www.w3.org/Graphics/SVG/1.1/DTD/svg11.dtd">
<!-- Generated by graphviz version 2.38.0 (20140413.2041)
 -->
<!-- Title: exception.hh Pages: 1 -->
<svg width="392pt" height="84pt"
 viewBox="0.00 0.00 392.00 84.00" xmlns="http://www.w3.org/2000/svg" xmlns:xlink="http://www.w3.org/1999/xlink">
<g id="graph0" class="graph" transform="scale(1 1) rotate(0) translate(4 80)">
<title>exception.hh</title>
<polygon fill="white" stroke="none" points="-4,4 -4,-80 388,-80 388,4 -4,4"/>
<!-- Node1 -->
<g id="node1" class="node"><title>Node1</title>
<polygon fill="#bfbfbf" stroke="black" points="164.5,-56.5 164.5,-75.5 236.5,-75.5 236.5,-56.5 164.5,-56.5"/>
<text text-anchor="middle" x="200.5" y="-63.5" font-family="Helvetica,sans-Serif" font-size="10.00">exception.hh</text>
</g>
<!-- Node2 -->
<g id="node2" class="node"><title>Node2</title>
<g id="a_node2"><a xlink:href="a00012.html" target="_top" xlink:title="dynamic&#45;graph&#45;py.cc">
<polygon fill="white" stroke="black" points="0,-0.5 0,-19.5 107,-19.5 107,-0.5 0,-0.5"/>
<text text-anchor="middle" x="53.5" y="-7.5" font-family="Helvetica,sans-Serif" font-size="10.00">dynamic&#45;graph&#45;py.cc</text>
</a>
</g>
</g>
<!-- Node1&#45;&gt;Node2 -->
<g id="edge1" class="edge"><title>Node1&#45;&gt;Node2</title>
<path fill="none" stroke="midnightblue" d="M167.577,-52.9058C139.94,-42.7536 101.156,-28.5063 76.6836,-19.5164"/>
<polygon fill="midnightblue" stroke="midnightblue" points="166.614,-56.2806 177.207,-56.4435 169.028,-49.71 166.614,-56.2806"/>
</g>
<!-- Node3 -->
<g id="node3" class="node"><title>Node3</title>
<g id="a_node3"><a xlink:href="a00013.html" target="_top" xlink:title="entity&#45;py.cc">
<polygon fill="white" stroke="black" points="125.5,-0.5 125.5,-19.5 193.5,-19.5 193.5,-0.5 125.5,-0.5"/>
<text text-anchor="middle" x="159.5" y="-7.5" font-family="Helvetica,sans-Serif" font-size="10.00">entity&#45;py.cc</text>
</a>
</g>
</g>
<!-- Node1&#45;&gt;Node3 -->
<g id="edge2" class="edge"><title>Node1&#45;&gt;Node3</title>
<path fill="none" stroke="midnightblue" d="M187.483,-47.8554C180.383,-38.5048 171.896,-27.3265 166.144,-19.7511"/>
<polygon fill="midnightblue" stroke="midnightblue" points="184.895,-50.235 193.73,-56.083 190.47,-46.002 184.895,-50.235"/>
</g>
<!-- Node4 -->
<g id="node4" class="node"><title>Node4</title>
<g id="a_node4"><a xlink:href="a00020.html" target="_top" xlink:title="pool&#45;py.cc">
<polygon fill="white" stroke="black" points="211.5,-0.5 211.5,-19.5 273.5,-19.5 273.5,-0.5 211.5,-0.5"/>
<text text-anchor="middle" x="242.5" y="-7.5" font-family="Helvetica,sans-Serif" font-size="10.00">pool&#45;py.cc</text>
</a>
</g>
</g>
<!-- Node1&#45;&gt;Node4 -->
<g id="edge3" class="edge"><title>Node1&#45;&gt;Node4</title>
<path fill="none" stroke="midnightblue" d="M213.61,-48.144C220.928,-38.7357 229.741,-27.4046 235.694,-19.7511"/>
<polygon fill="midnightblue" stroke="midnightblue" points="210.812,-46.0406 207.435,-56.083 216.338,-50.3383 210.812,-46.0406"/>
</g>
<!-- Node5 -->
<g id="node5" class="node"><title>Node5</title>
<g id="a_node5"><a xlink:href="a00021.html" target="_top" xlink:title="signal&#45;base&#45;py.cc">
<polygon fill="white" stroke="black" points="291,-0.5 291,-19.5 384,-19.5 384,-0.5 291,-0.5"/>
<text text-anchor="middle" x="337.5" y="-7.5" font-family="Helvetica,sans-Serif" font-size="10.00">signal&#45;base&#45;py.cc</text>
</a>
</g>
</g>
<!-- Node1&#45;&gt;Node5 -->
<g id="edge4" class="edge"><title>Node1&#45;&gt;Node5</title>
<path fill="none" stroke="midnightblue" d="M231.523,-52.772C257.257,-42.6287 293.186,-28.4669 315.894,-19.5164"/>
<polygon fill="midnightblue" stroke="midnightblue" points="230.228,-49.5203 222.208,-56.4435 232.795,-56.0326 230.228,-49.5203"/>
</g>
</g>
</svg>
