<?xml version="1.0" encoding="UTF-8" standalone="no"?>
<!DOCTYPE svg PUBLIC "-//W3C//DTD SVG 1.1//EN"
 "http://www.w3.org/Graphics/SVG/1.1/DTD/svg11.dtd">
<!-- Generated by graphviz version 2.38.0 (20140413.2041)
 -->
<!-- Title: exception&#45;python.cc Pages: 1 -->
<svg width="441pt" height="285pt"
 viewBox="0.00 0.00 440.50 285.00" xmlns="http://www.w3.org/2000/svg" xmlns:xlink="http://www.w3.org/1999/xlink">
<g id="graph0" class="graph" transform="scale(1 1) rotate(0) translate(4 281)">
<title>exception&#45;python.cc</title>
<polygon fill="white" stroke="none" points="-4,4 -4,-281 436.5,-281 436.5,4 -4,4"/>
<!-- Node1 -->
<g id="node1" class="node"><title>Node1</title>
<polygon fill="#bfbfbf" stroke="black" points="242,-257.5 242,-276.5 346,-276.5 346,-257.5 242,-257.5"/>
<text text-anchor="middle" x="294" y="-264.5" font-family="Helvetica,sans-Serif" font-size="10.00">exception&#45;python.cc</text>
</g>
<!-- Node2 -->
<g id="node2" class="node"><title>Node2</title>
<g id="a_node2"><a xlink:href="a00015.html" target="_top" xlink:title="dynamic&#45;graph/python\l/exception&#45;python.hh">
<polygon fill="white" stroke="black" points="187.5,-190.5 187.5,-220.5 300.5,-220.5 300.5,-190.5 187.5,-190.5"/>
<text text-anchor="start" x="195.5" y="-208.5" font-family="Helvetica,sans-Serif" font-size="10.00">dynamic&#45;graph/python</text>
<text text-anchor="middle" x="244" y="-197.5" font-family="Helvetica,sans-Serif" font-size="10.00">/exception&#45;python.hh</text>
</a>
</g>
</g>
<!-- Node1&#45;&gt;Node2 -->
<g id="edge1" class="edge"><title>Node1&#45;&gt;Node2</title>
<path fill="none" stroke="midnightblue" d="M286.836,-257.475C280.444,-249.869 270.806,-238.399 262.29,-228.265"/>
<polygon fill="midnightblue" stroke="midnightblue" points="264.897,-225.927 255.784,-220.523 259.538,-230.43 264.897,-225.927"/>
</g>
<!-- Node8 -->
<g id="node8" class="node"><title>Node8</title>
<g id="a_node8"><a doxygen="/opt/openrobots/share/doc/dynamic-graph/doxygen-html/dynamic-graph.doxytag:../../../../../../opt/openrobots/share/doc/dynamic-graph/doxygen-html/" xlink:href="../../../../../../opt/openrobots/share/doc/dynamic-graph/doxygen-html/a00070.html" target="_top" xlink:title="dynamic&#45;graph/debug.h">
<polygon fill="white" stroke="black" points="0,-129 0,-148 118,-148 118,-129 0,-129"/>
<text text-anchor="middle" x="59" y="-136" font-family="Helvetica,sans-Serif" font-size="10.00">dynamic&#45;graph/debug.h</text>
</a>
</g>
</g>
<!-- Node1&#45;&gt;Node8 -->
<g id="edge8" class="edge"><title>Node1&#45;&gt;Node8</title>
<path fill="none" stroke="midnightblue" d="M266.973,-257.495C242.959,-249.479 207.234,-236.416 178,-221 140.457,-201.202 100.461,-171.892 77.7184,-154.345"/>
<polygon fill="midnightblue" stroke="midnightblue" points="79.6578,-151.419 69.62,-148.029 75.3529,-156.939 79.6578,-151.419"/>
</g>
<!-- Node9 -->
<g id="node9" class="node"><title>Node9</title>
<polygon fill="white" stroke="#bfbfbf" points="319,-196 319,-215 371,-215 371,-196 319,-196"/>
<text text-anchor="middle" x="345" y="-203" font-family="Helvetica,sans-Serif" font-size="10.00">stdarg.h</text>
</g>
<!-- Node1&#45;&gt;Node9 -->
<g id="edge11" class="edge"><title>Node1&#45;&gt;Node9</title>
<path fill="none" stroke="midnightblue" d="M301.307,-257.475C309.033,-248.462 321.408,-234.025 331.018,-222.812"/>
<polygon fill="midnightblue" stroke="midnightblue" points="333.856,-224.879 337.706,-215.009 328.541,-220.324 333.856,-224.879"/>
</g>
<!-- Node10 -->
<g id="node10" class="node"><title>Node10</title>
<polygon fill="white" stroke="#bfbfbf" points="389.5,-196 389.5,-215 432.5,-215 432.5,-196 389.5,-196"/>
<text text-anchor="middle" x="411" y="-203" font-family="Helvetica,sans-Serif" font-size="10.00">cstdio</text>
</g>
<!-- Node1&#45;&gt;Node10 -->
<g id="edge12" class="edge"><title>Node1&#45;&gt;Node10</title>
<path fill="none" stroke="midnightblue" d="M310.763,-257.475C330.225,-247.578 362.545,-231.142 385.211,-219.615"/>
<polygon fill="midnightblue" stroke="midnightblue" points="386.941,-222.662 394.268,-215.009 383.768,-216.422 386.941,-222.662"/>
</g>
<!-- Node3 -->
<g id="node3" class="node"><title>Node3</title>
<polygon fill="white" stroke="#bfbfbf" points="318.5,-129 318.5,-148 359.5,-148 359.5,-129 318.5,-129"/>
<text text-anchor="middle" x="339" y="-136" font-family="Helvetica,sans-Serif" font-size="10.00">string</text>
</g>
<!-- Node2&#45;&gt;Node3 -->
<g id="edge2" class="edge"><title>Node2&#45;&gt;Node3</title>
<path fill="none" stroke="midnightblue" d="M264.614,-190.396C280.397,-179.597 302.087,-164.756 317.973,-153.887"/>
<polygon fill="midnightblue" stroke="midnightblue" points="320.29,-156.542 326.567,-148.007 316.337,-150.765 320.29,-156.542"/>
</g>
<!-- Node4 -->
<g id="node4" class="node"><title>Node4</title>
<g id="a_node4"><a doxygen="/opt/openrobots/share/doc/dynamic-graph/doxygen-html/dynamic-graph.doxytag:../../../../../../opt/openrobots/share/doc/dynamic-graph/doxygen-html/" xlink:href="../../../../../../opt/openrobots/share/doc/dynamic-graph/doxygen-html/a00082.html" target="_top" xlink:title="dynamic&#45;graph/fwd.hh">
<polygon fill="white" stroke="black" points="142.5,-62 142.5,-81 255.5,-81 255.5,-62 142.5,-62"/>
<text text-anchor="middle" x="199" y="-69" font-family="Helvetica,sans-Serif" font-size="10.00">dynamic&#45;graph/fwd.hh</text>
</a>
</g>
</g>
<!-- Node2&#45;&gt;Node4 -->
<g id="edge3" class="edge"><title>Node2&#45;&gt;Node4</title>
<path fill="none" stroke="midnightblue" d="M255.263,-190.403C267.133,-173.708 282.623,-145.349 271,-123 262.308,-106.286 245.268,-93.9517 229.946,-85.6585"/>
<polygon fill="midnightblue" stroke="midnightblue" points="231.225,-82.3837 220.719,-81.014 228.078,-88.6363 231.225,-82.3837"/>
</g>
<!-- Node5 -->
<g id="node5" class="node"><title>Node5</title>
<g id="a_node5"><a doxygen="/opt/openrobots/share/doc/dynamic-graph/doxygen-html/dynamic-graph.doxytag:../../../../../../opt/openrobots/share/doc/dynamic-graph/doxygen-html/" xlink:href="../../../../../../opt/openrobots/share/doc/dynamic-graph/doxygen-html/a00077.html" target="_top" xlink:title="dynamic&#45;graph/exception\l&#45;abstract.h">
<polygon fill="white" stroke="black" points="136.5,-123.5 136.5,-153.5 261.5,-153.5 261.5,-123.5 136.5,-123.5"/>
<text text-anchor="start" x="144.5" y="-141.5" font-family="Helvetica,sans-Serif" font-size="10.00">dynamic&#45;graph/exception</text>
<text text-anchor="middle" x="199" y="-130.5" font-family="Helvetica,sans-Serif" font-size="10.00">&#45;abstract.h</text>
</a>
</g>
</g>
<!-- Node2&#45;&gt;Node5 -->
<g id="edge4" class="edge"><title>Node2&#45;&gt;Node5</title>
<path fill="none" stroke="midnightblue" d="M234.236,-190.396C228.457,-182.049 221.006,-171.287 214.446,-161.811"/>
<polygon fill="midnightblue" stroke="midnightblue" points="217.315,-159.806 208.745,-153.577 211.56,-163.791 217.315,-159.806"/>
</g>
<!-- Node5&#45;&gt;Node4 -->
<g id="edge5" class="edge"><title>Node5&#45;&gt;Node4</title>
<path fill="none" stroke="midnightblue" d="M199,-123.396C199,-114.064 199,-101.714 199,-91.5173"/>
<polygon fill="midnightblue" stroke="midnightblue" points="202.5,-91.1945 199,-81.1945 195.5,-91.1946 202.5,-91.1945"/>
</g>
<!-- Node6 -->
<g id="node6" class="node"><title>Node6</title>
<g id="a_node6"><a doxygen="/opt/openrobots/share/doc/dynamic-graph/doxygen-html/dynamic-graph.doxytag:../../../../../../opt/openrobots/share/doc/dynamic-graph/doxygen-html/" xlink:href="../../../../../../opt/openrobots/share/doc/dynamic-graph/doxygen-html/a00073.html" target="_top" xlink:title="dynamic&#45;graph/dynamic\l&#45;graph&#45;api.h">
<polygon fill="white" stroke="black" points="2,-56.5 2,-86.5 122,-86.5 122,-56.5 2,-56.5"/>
<text text-anchor="start" x="10" y="-74.5" font-family="Helvetica,sans-Serif" font-size="10.00">dynamic&#45;graph/dynamic</text>
<text text-anchor="middle" x="62" y="-63.5" font-family="Helvetica,sans-Serif" font-size="10.00">&#45;graph&#45;api.h</text>
</a>
</g>
</g>
<!-- Node5&#45;&gt;Node6 -->
<g id="edge6" class="edge"><title>Node5&#45;&gt;Node6</title>
<path fill="none" stroke="midnightblue" d="M169.273,-123.396C149.256,-113.899 122.652,-101.276 100.946,-90.9781"/>
<polygon fill="midnightblue" stroke="midnightblue" points="102.204,-87.7009 91.6689,-86.5765 99.2033,-94.0252 102.204,-87.7009"/>
</g>
<!-- Node7 -->
<g id="node7" class="node"><title>Node7</title>
<g id="a_node7"><a doxygen="/opt/openrobots/share/doc/dynamic-graph/doxygen-html/dynamic-graph.doxytag:../../../../../../opt/openrobots/share/doc/dynamic-graph/doxygen-html/" xlink:href="../../../../../../opt/openrobots/share/doc/dynamic-graph/doxygen-html/a00068.html" target="_top" xlink:title="dynamic&#45;graph/config.hh">
<polygon fill="white" stroke="black" points="0.5,-0.5 0.5,-19.5 123.5,-19.5 123.5,-0.5 0.5,-0.5"/>
<text text-anchor="middle" x="62" y="-7.5" font-family="Helvetica,sans-Serif" font-size="10.00">dynamic&#45;graph/config.hh</text>
</a>
</g>
</g>
<!-- Node6&#45;&gt;Node7 -->
<g id="edge7" class="edge"><title>Node6&#45;&gt;Node7</title>
<path fill="none" stroke="midnightblue" d="M62,-56.3993C62,-48.4664 62,-38.458 62,-29.8583"/>
<polygon fill="midnightblue" stroke="midnightblue" points="65.5001,-29.6577 62,-19.6578 58.5001,-29.6578 65.5001,-29.6577"/>
</g>
<!-- Node8&#45;&gt;Node4 -->
<g id="edge9" class="edge"><title>Node8&#45;&gt;Node4</title>
<path fill="none" stroke="midnightblue" d="M77.5909,-128.869C101.544,-117.748 143.395,-98.3167 171.154,-85.4286"/>
<polygon fill="midnightblue" stroke="midnightblue" points="172.736,-88.5529 180.332,-81.1672 169.788,-82.2038 172.736,-88.5529"/>
</g>
<!-- Node8&#45;&gt;Node6 -->
<g id="edge10" class="edge"><title>Node8&#45;&gt;Node6</title>
<path fill="none" stroke="midnightblue" d="M59.4046,-128.734C59.7827,-120.541 60.3651,-107.923 60.8825,-96.7136"/>
<polygon fill="midnightblue" stroke="midnightblue" points="64.3849,-96.7398 61.3497,-86.589 57.3923,-96.417 64.3849,-96.7398"/>
</g>
</g>
</svg>
