<?xml version="1.0" encoding="UTF-8" standalone="no"?>
<!DOCTYPE svg PUBLIC "-//W3C//DTD SVG 1.1//EN"
 "http://www.w3.org/Graphics/SVG/1.1/DTD/svg11.dtd">
<!-- Generated by graphviz version 2.38.0 (20140413.2041)
 -->
<!-- Title: convert&#45;dg&#45;to&#45;py.hh Pages: 1 -->
<svg width="429pt" height="285pt"
 viewBox="0.00 0.00 428.50 285.00" xmlns="http://www.w3.org/2000/svg" xmlns:xlink="http://www.w3.org/1999/xlink">
<g id="graph0" class="graph" transform="scale(1 1) rotate(0) translate(4 281)">
<title>convert&#45;dg&#45;to&#45;py.hh</title>
<polygon fill="white" stroke="none" points="-4,4 -4,-281 424.5,-281 424.5,4 -4,4"/>
<!-- Node1 -->
<g id="node1" class="node"><title>Node1</title>
<polygon fill="#bfbfbf" stroke="black" points="76.5,-257.5 76.5,-276.5 177.5,-276.5 177.5,-257.5 76.5,-257.5"/>
<text text-anchor="middle" x="127" y="-264.5" font-family="Helvetica,sans-Serif" font-size="10.00">convert&#45;dg&#45;to&#45;py.hh</text>
</g>
<!-- Node2 -->
<g id="node2" class="node"><title>Node2</title>
<polygon fill="white" stroke="#bfbfbf" points="0,-196 0,-215 56,-215 56,-196 0,-196"/>
<text text-anchor="middle" x="28" y="-203" font-family="Helvetica,sans-Serif" font-size="10.00">Python.h</text>
</g>
<!-- Node1&#45;&gt;Node2 -->
<g id="edge1" class="edge"><title>Node1&#45;&gt;Node2</title>
<path fill="none" stroke="midnightblue" d="M112.816,-257.475C96.6424,-247.755 69.9736,-231.727 50.8568,-220.237"/>
<polygon fill="midnightblue" stroke="midnightblue" points="52.5321,-217.161 42.158,-215.009 48.9261,-223.16 52.5321,-217.161"/>
</g>
<!-- Node3 -->
<g id="node3" class="node"><title>Node3</title>
<g id="a_node3"><a doxygen="/opt/openrobots/share/doc/dynamic-graph/doxygen-html/dynamic-graph.doxytag:../../../../../../opt/openrobots/share/doc/dynamic-graph/doxygen-html/" xlink:href="../../../../../../opt/openrobots/share/doc/dynamic-graph/doxygen-html/a00084.html" target="_top" xlink:title="dynamic&#45;graph/linear\l&#45;algebra.h">
<polygon fill="white" stroke="black" points="32.5,-123.5 32.5,-153.5 139.5,-153.5 139.5,-123.5 32.5,-123.5"/>
<text text-anchor="start" x="40.5" y="-141.5" font-family="Helvetica,sans-Serif" font-size="10.00">dynamic&#45;graph/linear</text>
<text text-anchor="middle" x="86" y="-130.5" font-family="Helvetica,sans-Serif" font-size="10.00">&#45;algebra.h</text>
</a>
</g>
</g>
<!-- Node1&#45;&gt;Node3 -->
<g id="edge2" class="edge"><title>Node1&#45;&gt;Node3</title>
<path fill="none" stroke="midnightblue" d="M121.443,-257.38C115.996,-248.567 107.828,-234.318 103,-221 96.211,-202.273 91.8048,-180.09 89.1835,-163.599"/>
<polygon fill="midnightblue" stroke="midnightblue" points="92.6412,-163.056 87.7115,-153.678 85.717,-164.083 92.6412,-163.056"/>
</g>
<!-- Node4 -->
<g id="node4" class="node"><title>Node4</title>
<g id="a_node4"><a doxygen="/opt/openrobots/share/doc/dynamic-graph/doxygen-html/dynamic-graph.doxytag:../../../../../../opt/openrobots/share/doc/dynamic-graph/doxygen-html/" xlink:href="../../../../../../opt/openrobots/share/doc/dynamic-graph/doxygen-html/a00105.html" target="_top" xlink:title="dynamic&#45;graph/value.h">
<polygon fill="white" stroke="black" points="112.5,-196 112.5,-215 227.5,-215 227.5,-196 112.5,-196"/>
<text text-anchor="middle" x="170" y="-203" font-family="Helvetica,sans-Serif" font-size="10.00">dynamic&#45;graph/value.h</text>
</a>
</g>
</g>
<!-- Node1&#45;&gt;Node4 -->
<g id="edge3" class="edge"><title>Node1&#45;&gt;Node4</title>
<path fill="none" stroke="midnightblue" d="M133.161,-257.475C139.611,-248.55 149.904,-234.307 157.973,-223.143"/>
<polygon fill="midnightblue" stroke="midnightblue" points="160.83,-225.164 163.851,-215.009 155.156,-221.064 160.83,-225.164"/>
</g>
<!-- Node7 -->
<g id="node7" class="node"><title>Node7</title>
<g id="a_node7"><a xlink:href="a00015.html" target="_top" xlink:title="dynamic&#45;graph/python\l/exception&#45;python.hh">
<polygon fill="white" stroke="black" points="252.5,-190.5 252.5,-220.5 365.5,-220.5 365.5,-190.5 252.5,-190.5"/>
<text text-anchor="start" x="260.5" y="-208.5" font-family="Helvetica,sans-Serif" font-size="10.00">dynamic&#45;graph/python</text>
<text text-anchor="middle" x="309" y="-197.5" font-family="Helvetica,sans-Serif" font-size="10.00">/exception&#45;python.hh</text>
</a>
</g>
</g>
<!-- Node1&#45;&gt;Node7 -->
<g id="edge7" class="edge"><title>Node1&#45;&gt;Node7</title>
<path fill="none" stroke="midnightblue" d="M153.076,-257.475C179.914,-248.701 222.472,-234.788 256.351,-223.712"/>
<polygon fill="midnightblue" stroke="midnightblue" points="257.689,-226.957 266.106,-220.523 255.514,-220.304 257.689,-226.957"/>
</g>
<!-- Node4&#45;&gt;Node3 -->
<g id="edge6" class="edge"><title>Node4&#45;&gt;Node3</title>
<path fill="none" stroke="midnightblue" d="M158.671,-195.734C146.883,-186.611 128.005,-172.004 112.445,-159.963"/>
<polygon fill="midnightblue" stroke="midnightblue" points="114.258,-156.941 104.207,-153.589 109.974,-162.477 114.258,-156.941"/>
</g>
<!-- Node5 -->
<g id="node5" class="node"><title>Node5</title>
<g id="a_node5"><a doxygen="/opt/openrobots/share/doc/dynamic-graph/doxygen-html/dynamic-graph.doxytag:../../../../../../opt/openrobots/share/doc/dynamic-graph/doxygen-html/" xlink:href="../../../../../../opt/openrobots/share/doc/dynamic-graph/doxygen-html/a00073.html" target="_top" xlink:title="dynamic&#45;graph/dynamic\l&#45;graph&#45;api.h">
<polygon fill="white" stroke="black" points="162,-56.5 162,-86.5 282,-86.5 282,-56.5 162,-56.5"/>
<text text-anchor="start" x="170" y="-74.5" font-family="Helvetica,sans-Serif" font-size="10.00">dynamic&#45;graph/dynamic</text>
<text text-anchor="middle" x="222" y="-63.5" font-family="Helvetica,sans-Serif" font-size="10.00">&#45;graph&#45;api.h</text>
</a>
</g>
</g>
<!-- Node4&#45;&gt;Node5 -->
<g id="edge4" class="edge"><title>Node4&#45;&gt;Node5</title>
<path fill="none" stroke="midnightblue" d="M170.864,-195.604C172.591,-180.255 177.267,-148.038 188,-123 192.203,-113.195 198.378,-103.271 204.315,-94.8459"/>
<polygon fill="midnightblue" stroke="midnightblue" points="207.218,-96.8063 210.325,-86.6771 201.58,-92.6582 207.218,-96.8063"/>
</g>
<!-- Node6 -->
<g id="node6" class="node"><title>Node6</title>
<g id="a_node6"><a doxygen="/opt/openrobots/share/doc/dynamic-graph/doxygen-html/dynamic-graph.doxytag:../../../../../../opt/openrobots/share/doc/dynamic-graph/doxygen-html/" xlink:href="../../../../../../opt/openrobots/share/doc/dynamic-graph/doxygen-html/a00068.html" target="_top" xlink:title="dynamic&#45;graph/config.hh">
<polygon fill="white" stroke="black" points="160.5,-0.5 160.5,-19.5 283.5,-19.5 283.5,-0.5 160.5,-0.5"/>
<text text-anchor="middle" x="222" y="-7.5" font-family="Helvetica,sans-Serif" font-size="10.00">dynamic&#45;graph/config.hh</text>
</a>
</g>
</g>
<!-- Node5&#45;&gt;Node6 -->
<g id="edge5" class="edge"><title>Node5&#45;&gt;Node6</title>
<path fill="none" stroke="midnightblue" d="M222,-56.3993C222,-48.4664 222,-38.458 222,-29.8583"/>
<polygon fill="midnightblue" stroke="midnightblue" points="225.5,-29.6577 222,-19.6578 218.5,-29.6578 225.5,-29.6577"/>
</g>
<!-- Node8 -->
<g id="node8" class="node"><title>Node8</title>
<polygon fill="white" stroke="#bfbfbf" points="197.5,-129 197.5,-148 238.5,-148 238.5,-129 197.5,-129"/>
<text text-anchor="middle" x="218" y="-136" font-family="Helvetica,sans-Serif" font-size="10.00">string</text>
</g>
<!-- Node7&#45;&gt;Node8 -->
<g id="edge8" class="edge"><title>Node7&#45;&gt;Node8</title>
<path fill="none" stroke="midnightblue" d="M289.254,-190.396C274.135,-179.597 253.359,-164.756 238.142,-153.887"/>
<polygon fill="midnightblue" stroke="midnightblue" points="240.082,-150.971 229.91,-148.007 236.013,-156.667 240.082,-150.971"/>
</g>
<!-- Node9 -->
<g id="node9" class="node"><title>Node9</title>
<g id="a_node9"><a doxygen="/opt/openrobots/share/doc/dynamic-graph/doxygen-html/dynamic-graph.doxytag:../../../../../../opt/openrobots/share/doc/dynamic-graph/doxygen-html/" xlink:href="../../../../../../opt/openrobots/share/doc/dynamic-graph/doxygen-html/a00082.html" target="_top" xlink:title="dynamic&#45;graph/fwd.hh">
<polygon fill="white" stroke="black" points="307.5,-62 307.5,-81 420.5,-81 420.5,-62 307.5,-62"/>
<text text-anchor="middle" x="364" y="-69" font-family="Helvetica,sans-Serif" font-size="10.00">dynamic&#45;graph/fwd.hh</text>
</a>
</g>
</g>
<!-- Node7&#45;&gt;Node9 -->
<g id="edge9" class="edge"><title>Node7&#45;&gt;Node9</title>
<path fill="none" stroke="midnightblue" d="M348.12,-190.483C364.428,-182.474 381.705,-170.64 391,-154 402.653,-133.138 389.123,-106.444 377.381,-89.4035"/>
<polygon fill="midnightblue" stroke="midnightblue" points="379.961,-87.0044 371.212,-81.0279 374.324,-91.1554 379.961,-87.0044"/>
</g>
<!-- Node10 -->
<g id="node10" class="node"><title>Node10</title>
<g id="a_node10"><a doxygen="/opt/openrobots/share/doc/dynamic-graph/doxygen-html/dynamic-graph.doxytag:../../../../../../opt/openrobots/share/doc/dynamic-graph/doxygen-html/" xlink:href="../../../../../../opt/openrobots/share/doc/dynamic-graph/doxygen-html/a00077.html" target="_top" xlink:title="dynamic&#45;graph/exception\l&#45;abstract.h">
<polygon fill="white" stroke="black" points="256.5,-123.5 256.5,-153.5 381.5,-153.5 381.5,-123.5 256.5,-123.5"/>
<text text-anchor="start" x="264.5" y="-141.5" font-family="Helvetica,sans-Serif" font-size="10.00">dynamic&#45;graph/exception</text>
<text text-anchor="middle" x="319" y="-130.5" font-family="Helvetica,sans-Serif" font-size="10.00">&#45;abstract.h</text>
</a>
</g>
</g>
<!-- Node7&#45;&gt;Node10 -->
<g id="edge10" class="edge"><title>Node7&#45;&gt;Node10</title>
<path fill="none" stroke="midnightblue" d="M311.17,-190.396C312.375,-182.56 313.908,-172.596 315.298,-163.565"/>
<polygon fill="midnightblue" stroke="midnightblue" points="318.773,-163.992 316.834,-153.577 311.854,-162.928 318.773,-163.992"/>
</g>
<!-- Node10&#45;&gt;Node5 -->
<g id="edge12" class="edge"><title>Node10&#45;&gt;Node5</title>
<path fill="none" stroke="midnightblue" d="M297.952,-123.396C284.352,-114.282 266.456,-102.29 251.452,-92.236"/>
<polygon fill="midnightblue" stroke="midnightblue" points="253.262,-89.2357 243.006,-86.5765 249.365,-95.0509 253.262,-89.2357"/>
</g>
<!-- Node10&#45;&gt;Node9 -->
<g id="edge11" class="edge"><title>Node10&#45;&gt;Node9</title>
<path fill="none" stroke="midnightblue" d="M328.764,-123.396C335.642,-113.462 344.887,-100.108 352.181,-89.5719"/>
<polygon fill="midnightblue" stroke="midnightblue" points="355.166,-91.4087 357.981,-81.1945 349.411,-87.4242 355.166,-91.4087"/>
</g>
</g>
</svg>
