<?xml version="1.0" encoding="UTF-8" standalone="no"?>
<!DOCTYPE svg PUBLIC "-//W3C//DTD SVG 1.1//EN"
 "http://www.w3.org/Graphics/SVG/1.1/DTD/svg11.dtd">
<!-- Generated by graphviz version 2.38.0 (20140413.2041)
 -->
<!-- Title: dg&#45;python.cc Pages: 1 -->
<svg width="1189pt" height="229pt"
 viewBox="0.00 0.00 1188.50 229.00" xmlns="http://www.w3.org/2000/svg" xmlns:xlink="http://www.w3.org/1999/xlink">
<g id="graph0" class="graph" transform="scale(1 1) rotate(0) translate(4 225)">
<title>dg&#45;python.cc</title>
<polygon fill="white" stroke="none" points="-4,4 -4,-225 1184.5,-225 1184.5,4 -4,4"/>
<!-- Node1 -->
<g id="node1" class="node"><title>Node1</title>
<polygon fill="#bfbfbf" stroke="black" points="390.5,-201.5 390.5,-220.5 463.5,-220.5 463.5,-201.5 390.5,-201.5"/>
<text text-anchor="middle" x="427" y="-208.5" font-family="Helvetica,sans-Serif" font-size="10.00">dg&#45;python.cc</text>
</g>
<!-- Node2 -->
<g id="node2" class="node"><title>Node2</title>
<polygon fill="white" stroke="#bfbfbf" points="0,-140 0,-159 52,-159 52,-140 0,-140"/>
<text text-anchor="middle" x="26" y="-147" font-family="Helvetica,sans-Serif" font-size="10.00">sstream</text>
</g>
<!-- Node1&#45;&gt;Node2 -->
<g id="edge1" class="edge"><title>Node1&#45;&gt;Node2</title>
<path fill="none" stroke="midnightblue" d="M390.281,-208.759C323.64,-205.789 178.781,-196.023 61,-165 58.5513,-164.355 56.0475,-163.576 53.5606,-162.718"/>
<polygon fill="midnightblue" stroke="midnightblue" points="54.7951,-159.443 44.2048,-159.133 52.2903,-165.98 54.7951,-159.443"/>
</g>
<!-- Node3 -->
<g id="node3" class="node"><title>Node3</title>
<polygon fill="white" stroke="#bfbfbf" points="802.5,-73 802.5,-92 843.5,-92 843.5,-73 802.5,-73"/>
<text text-anchor="middle" x="823" y="-80" font-family="Helvetica,sans-Serif" font-size="10.00">string</text>
</g>
<!-- Node1&#45;&gt;Node3 -->
<g id="edge2" class="edge"><title>Node1&#45;&gt;Node3</title>
<path fill="none" stroke="midnightblue" d="M463.626,-210.766C548.348,-211.754 754.402,-209.411 804,-165 821.471,-149.356 824.464,-121.039 824.29,-102.249"/>
<polygon fill="midnightblue" stroke="midnightblue" points="827.786,-102.07 823.891,-92.2171 820.792,-102.348 827.786,-102.07"/>
</g>
<!-- Node4 -->
<g id="node4" class="node"><title>Node4</title>
<polygon fill="white" stroke="#bfbfbf" points="206,-140 206,-159 250,-159 250,-140 206,-140"/>
<text text-anchor="middle" x="228" y="-147" font-family="Helvetica,sans-Serif" font-size="10.00">vector</text>
</g>
<!-- Node1&#45;&gt;Node4 -->
<g id="edge3" class="edge"><title>Node1&#45;&gt;Node4</title>
<path fill="none" stroke="midnightblue" d="M390.446,-202.38C355.79,-194.665 302.551,-181.527 258,-165 256.576,-164.472 255.129,-163.9 253.678,-163.298"/>
<polygon fill="midnightblue" stroke="midnightblue" points="254.815,-159.971 244.26,-159.052 251.938,-166.353 254.815,-159.971"/>
</g>
<!-- Node5 -->
<g id="node5" class="node"><title>Node5</title>
<polygon fill="white" stroke="#bfbfbf" points="267.5,-140 267.5,-159 296.5,-159 296.5,-140 267.5,-140"/>
<text text-anchor="middle" x="282" y="-147" font-family="Helvetica,sans-Serif" font-size="10.00">list</text>
</g>
<!-- Node1&#45;&gt;Node5 -->
<g id="edge4" class="edge"><title>Node1&#45;&gt;Node5</title>
<path fill="none" stroke="midnightblue" d="M398.69,-201.424C373.508,-193.361 335.982,-180.27 305,-165 304.577,-164.791 304.151,-164.577 303.725,-164.357"/>
<polygon fill="midnightblue" stroke="midnightblue" points="305.278,-161.213 294.863,-159.27 301.792,-167.284 305.278,-161.213"/>
</g>
<!-- Node6 -->
<g id="node6" class="node"><title>Node6</title>
<polygon fill="white" stroke="#bfbfbf" points="314.5,-140 314.5,-159 421.5,-159 421.5,-140 314.5,-140"/>
<text text-anchor="middle" x="368" y="-147" font-family="Helvetica,sans-Serif" font-size="10.00">boost/filesystem.hpp</text>
</g>
<!-- Node1&#45;&gt;Node6 -->
<g id="edge5" class="edge"><title>Node1&#45;&gt;Node6</title>
<path fill="none" stroke="midnightblue" d="M418.547,-201.475C409.434,-192.285 394.73,-177.456 383.524,-166.156"/>
<polygon fill="midnightblue" stroke="midnightblue" points="385.964,-163.646 376.438,-159.009 380.993,-168.574 385.964,-163.646"/>
</g>
<!-- Node7 -->
<g id="node7" class="node"><title>Node7</title>
<polygon fill="white" stroke="#bfbfbf" points="439.5,-140 439.5,-159 534.5,-159 534.5,-140 439.5,-140"/>
<text text-anchor="middle" x="487" y="-147" font-family="Helvetica,sans-Serif" font-size="10.00">boost/foreach.hpp</text>
</g>
<!-- Node1&#45;&gt;Node7 -->
<g id="edge6" class="edge"><title>Node1&#45;&gt;Node7</title>
<path fill="none" stroke="midnightblue" d="M435.597,-201.475C444.864,-192.285 459.817,-177.456 471.212,-166.156"/>
<polygon fill="midnightblue" stroke="midnightblue" points="473.783,-168.536 478.419,-159.009 468.854,-163.565 473.783,-168.536"/>
</g>
<!-- Node8 -->
<g id="node8" class="node"><title>Node8</title>
<polygon fill="white" stroke="#bfbfbf" points="553,-140 553,-159 643,-159 643,-140 553,-140"/>
<text text-anchor="middle" x="598" y="-147" font-family="Helvetica,sans-Serif" font-size="10.00">boost/format.hpp</text>
</g>
<!-- Node1&#45;&gt;Node8 -->
<g id="edge7" class="edge"><title>Node1&#45;&gt;Node8</title>
<path fill="none" stroke="midnightblue" d="M451.5,-201.475C480.96,-191.225 530.579,-173.959 563.802,-162.399"/>
<polygon fill="midnightblue" stroke="midnightblue" points="565.251,-165.601 573.545,-159.009 562.95,-158.99 565.251,-165.601"/>
</g>
<!-- Node9 -->
<g id="node9" class="node"><title>Node9</title>
<polygon fill="white" stroke="#bfbfbf" points="661,-140 661,-159 795,-159 795,-140 661,-140"/>
<text text-anchor="middle" x="728" y="-147" font-family="Helvetica,sans-Serif" font-size="10.00">boost/program_options.hpp</text>
</g>
<!-- Node1&#45;&gt;Node9 -->
<g id="edge8" class="edge"><title>Node1&#45;&gt;Node9</title>
<path fill="none" stroke="midnightblue" d="M463.608,-202.764C516.333,-192.341 613.972,-173.04 674.703,-161.035"/>
<polygon fill="midnightblue" stroke="midnightblue" points="675.725,-164.401 684.857,-159.028 674.368,-157.534 675.725,-164.401"/>
</g>
<!-- Node10 -->
<g id="node10" class="node"><title>Node10</title>
<g id="a_node10"><a doxygen="/opt/openrobots/share/doc/dynamic-graph/doxygen-html/dynamic-graph.doxytag:../../../../../../opt/openrobots/share/doc/dynamic-graph/doxygen-html/" xlink:href="../../../../../../opt/openrobots/share/doc/dynamic-graph/doxygen-html/a00070.html" target="_top" xlink:title="dynamic&#45;graph/debug.h">
<polygon fill="white" stroke="black" points="70,-140 70,-159 188,-159 188,-140 70,-140"/>
<text text-anchor="middle" x="129" y="-147" font-family="Helvetica,sans-Serif" font-size="10.00">dynamic&#45;graph/debug.h</text>
</a>
</g>
</g>
<!-- Node1&#45;&gt;Node10 -->
<g id="edge9" class="edge"><title>Node1&#45;&gt;Node10</title>
<path fill="none" stroke="midnightblue" d="M390.314,-203.02C344.888,-194.332 265.166,-178.935 197,-165 191.091,-163.792 184.897,-162.503 178.756,-161.211"/>
<polygon fill="midnightblue" stroke="midnightblue" points="179.037,-157.693 168.529,-159.047 177.588,-164.541 179.037,-157.693"/>
</g>
<!-- Node14 -->
<g id="node14" class="node"><title>Node14</title>
<g id="a_node14"><a xlink:href="a00019.html" target="_top" xlink:title="dynamic&#45;graph/python\l/interpreter.hh">
<polygon fill="white" stroke="black" points="851.5,-134.5 851.5,-164.5 964.5,-164.5 964.5,-134.5 851.5,-134.5"/>
<text text-anchor="start" x="859.5" y="-152.5" font-family="Helvetica,sans-Serif" font-size="10.00">dynamic&#45;graph/python</text>
<text text-anchor="middle" x="908" y="-141.5" font-family="Helvetica,sans-Serif" font-size="10.00">/interpreter.hh</text>
</a>
</g>
</g>
<!-- Node1&#45;&gt;Node14 -->
<g id="edge13" class="edge"><title>Node1&#45;&gt;Node14</title>
<path fill="none" stroke="midnightblue" d="M463.624,-207.12C535.491,-201.218 699.931,-186.472 837,-165 838.293,-164.797 839.599,-164.587 840.914,-164.371"/>
<polygon fill="midnightblue" stroke="midnightblue" points="841.864,-167.758 851.117,-162.597 840.666,-160.861 841.864,-167.758"/>
</g>
<!-- Node11 -->
<g id="node11" class="node"><title>Node11</title>
<g id="a_node11"><a doxygen="/opt/openrobots/share/doc/dynamic-graph/doxygen-html/dynamic-graph.doxytag:../../../../../../opt/openrobots/share/doc/dynamic-graph/doxygen-html/" xlink:href="../../../../../../opt/openrobots/share/doc/dynamic-graph/doxygen-html/a00082.html" target="_top" xlink:title="dynamic&#45;graph/fwd.hh">
<polygon fill="white" stroke="black" points="5.5,-73 5.5,-92 118.5,-92 118.5,-73 5.5,-73"/>
<text text-anchor="middle" x="62" y="-80" font-family="Helvetica,sans-Serif" font-size="10.00">dynamic&#45;graph/fwd.hh</text>
</a>
</g>
</g>
<!-- Node10&#45;&gt;Node11 -->
<g id="edge10" class="edge"><title>Node10&#45;&gt;Node11</title>
<path fill="none" stroke="midnightblue" d="M119.964,-139.734C109.315,-129.403 91.4152,-112.037 78.3187,-99.3315"/>
<polygon fill="midnightblue" stroke="midnightblue" points="80.5073,-96.5784 70.8928,-92.1273 75.6331,-101.603 80.5073,-96.5784"/>
</g>
<!-- Node12 -->
<g id="node12" class="node"><title>Node12</title>
<g id="a_node12"><a doxygen="/opt/openrobots/share/doc/dynamic-graph/doxygen-html/dynamic-graph.doxytag:../../../../../../opt/openrobots/share/doc/dynamic-graph/doxygen-html/" xlink:href="../../../../../../opt/openrobots/share/doc/dynamic-graph/doxygen-html/a00073.html" target="_top" xlink:title="dynamic&#45;graph/dynamic\l&#45;graph&#45;api.h">
<polygon fill="white" stroke="black" points="137,-67.5 137,-97.5 257,-97.5 257,-67.5 137,-67.5"/>
<text text-anchor="start" x="145" y="-85.5" font-family="Helvetica,sans-Serif" font-size="10.00">dynamic&#45;graph/dynamic</text>
<text text-anchor="middle" x="197" y="-74.5" font-family="Helvetica,sans-Serif" font-size="10.00">&#45;graph&#45;api.h</text>
</a>
</g>
</g>
<!-- Node10&#45;&gt;Node12 -->
<g id="edge11" class="edge"><title>Node10&#45;&gt;Node12</title>
<path fill="none" stroke="midnightblue" d="M138.171,-139.734C147.537,-130.78 162.432,-116.543 174.89,-104.635"/>
<polygon fill="midnightblue" stroke="midnightblue" points="177.45,-107.029 182.261,-97.589 172.614,-101.969 177.45,-107.029"/>
</g>
<!-- Node13 -->
<g id="node13" class="node"><title>Node13</title>
<g id="a_node13"><a doxygen="/opt/openrobots/share/doc/dynamic-graph/doxygen-html/dynamic-graph.doxytag:../../../../../../opt/openrobots/share/doc/dynamic-graph/doxygen-html/" xlink:href="../../../../../../opt/openrobots/share/doc/dynamic-graph/doxygen-html/a00068.html" target="_top" xlink:title="dynamic&#45;graph/config.hh">
<polygon fill="white" stroke="black" points="135.5,-6 135.5,-25 258.5,-25 258.5,-6 135.5,-6"/>
<text text-anchor="middle" x="197" y="-13" font-family="Helvetica,sans-Serif" font-size="10.00">dynamic&#45;graph/config.hh</text>
</a>
</g>
</g>
<!-- Node12&#45;&gt;Node13 -->
<g id="edge12" class="edge"><title>Node12&#45;&gt;Node13</title>
<path fill="none" stroke="midnightblue" d="M197,-67.396C197,-58.0638 197,-45.7143 197,-35.5173"/>
<polygon fill="midnightblue" stroke="midnightblue" points="200.5,-35.1945 197,-25.1945 193.5,-35.1946 200.5,-35.1945"/>
</g>
<!-- Node14&#45;&gt;Node3 -->
<g id="edge15" class="edge"><title>Node14&#45;&gt;Node3</title>
<path fill="none" stroke="midnightblue" d="M889.556,-134.396C875.647,-123.759 856.611,-109.203 842.46,-98.3813"/>
<polygon fill="midnightblue" stroke="midnightblue" points="844.439,-95.4888 834.37,-92.1945 840.187,-101.049 844.439,-95.4888"/>
</g>
<!-- Node15 -->
<g id="node15" class="node"><title>Node15</title>
<polygon fill="white" stroke="#bfbfbf" points="862,-73 862,-92 918,-92 918,-73 862,-73"/>
<text text-anchor="middle" x="890" y="-80" font-family="Helvetica,sans-Serif" font-size="10.00">Python.h</text>
</g>
<!-- Node14&#45;&gt;Node15 -->
<g id="edge14" class="edge"><title>Node14&#45;&gt;Node15</title>
<path fill="none" stroke="midnightblue" d="M904.094,-134.396C901.454,-124.863 897.943,-112.182 895.085,-101.862"/>
<polygon fill="midnightblue" stroke="midnightblue" points="898.45,-100.898 892.408,-92.1945 891.704,-102.766 898.45,-100.898"/>
</g>
<!-- Node16 -->
<g id="node16" class="node"><title>Node16</title>
<g id="a_node16"><a xlink:href="a00008.html" target="_top" xlink:title="dynamic&#45;graph/python\l/api.hh">
<polygon fill="white" stroke="black" points="936.5,-67.5 936.5,-97.5 1049.5,-97.5 1049.5,-67.5 936.5,-67.5"/>
<text text-anchor="start" x="944.5" y="-85.5" font-family="Helvetica,sans-Serif" font-size="10.00">dynamic&#45;graph/python</text>
<text text-anchor="middle" x="993" y="-74.5" font-family="Helvetica,sans-Serif" font-size="10.00">/api.hh</text>
</a>
</g>
</g>
<!-- Node14&#45;&gt;Node16 -->
<g id="edge16" class="edge"><title>Node14&#45;&gt;Node16</title>
<path fill="none" stroke="midnightblue" d="M926.444,-134.396C938.139,-125.452 953.459,-113.737 966.452,-103.802"/>
<polygon fill="midnightblue" stroke="midnightblue" points="968.775,-106.431 974.592,-97.5765 964.523,-100.871 968.775,-106.431"/>
</g>
<!-- Node18 -->
<g id="node18" class="node"><title>Node18</title>
<polygon fill="white" stroke="#bfbfbf" points="1067.5,-67.5 1067.5,-97.5 1180.5,-97.5 1180.5,-67.5 1067.5,-67.5"/>
<text text-anchor="start" x="1075.5" y="-85.5" font-family="Helvetica,sans-Serif" font-size="10.00">dynamic&#45;graph/python</text>
<text text-anchor="middle" x="1124" y="-74.5" font-family="Helvetica,sans-Serif" font-size="10.00">/deprecated.hh</text>
</g>
<!-- Node14&#45;&gt;Node18 -->
<g id="edge18" class="edge"><title>Node14&#45;&gt;Node18</title>
<path fill="none" stroke="midnightblue" d="M954.603,-134.476C987.704,-124.515 1032.33,-111.086 1067.47,-100.512"/>
<polygon fill="midnightblue" stroke="midnightblue" points="1068.54,-103.844 1077.11,-97.6109 1066.52,-97.1411 1068.54,-103.844"/>
</g>
<!-- Node17 -->
<g id="node17" class="node"><title>Node17</title>
<polygon fill="white" stroke="#bfbfbf" points="936.5,-0.5 936.5,-30.5 1049.5,-30.5 1049.5,-0.5 936.5,-0.5"/>
<text text-anchor="start" x="944.5" y="-18.5" font-family="Helvetica,sans-Serif" font-size="10.00">dynamic&#45;graph/python</text>
<text text-anchor="middle" x="993" y="-7.5" font-family="Helvetica,sans-Serif" font-size="10.00">/config.hh</text>
</g>
<!-- Node16&#45;&gt;Node17 -->
<g id="edge17" class="edge"><title>Node16&#45;&gt;Node17</title>
<path fill="none" stroke="midnightblue" d="M993,-67.396C993,-59.6448 993,-49.8122 993,-40.8601"/>
<polygon fill="midnightblue" stroke="midnightblue" points="996.5,-40.5765 993,-30.5765 989.5,-40.5765 996.5,-40.5765"/>
</g>
</g>
</svg>
