<?xml version="1.0" encoding="UTF-8" standalone="no"?>
<!DOCTYPE svg PUBLIC "-//W3C//DTD SVG 1.1//EN"
 "http://www.w3.org/Graphics/SVG/1.1/DTD/svg11.dtd">
<!-- Generated by graphviz version 2.38.0 (20140413.2041)
 -->
<!-- Title: signal&#45;base&#45;py.cc Pages: 1 -->
<svg width="830pt" height="553pt"
 viewBox="0.00 0.00 829.50 553.00" xmlns="http://www.w3.org/2000/svg" xmlns:xlink="http://www.w3.org/1999/xlink">
<g id="graph0" class="graph" transform="scale(1 1) rotate(0) translate(4 549)">
<title>signal&#45;base&#45;py.cc</title>
<polygon fill="white" stroke="none" points="-4,4 -4,-549 825.5,-549 825.5,4 -4,4"/>
<!-- Node1 -->
<g id="node1" class="node"><title>Node1</title>
<polygon fill="#bfbfbf" stroke="black" points="334,-525.5 334,-544.5 427,-544.5 427,-525.5 334,-525.5"/>
<text text-anchor="middle" x="380.5" y="-532.5" font-family="Helvetica,sans-Serif" font-size="10.00">signal&#45;base&#45;py.cc</text>
</g>
<!-- Node2 -->
<g id="node2" class="node"><title>Node2</title>
<polygon fill="white" stroke="#bfbfbf" points="427.5,-397 427.5,-416 483.5,-416 483.5,-397 427.5,-397"/>
<text text-anchor="middle" x="455.5" y="-404" font-family="Helvetica,sans-Serif" font-size="10.00">Python.h</text>
</g>
<!-- Node1&#45;&gt;Node2 -->
<g id="edge1" class="edge"><title>Node1&#45;&gt;Node2</title>
<path fill="none" stroke="midnightblue" d="M387.499,-525.322C394.49,-516.463 405.341,-502.18 413.5,-489 426.544,-467.929 439.256,-442.344 447.216,-425.528"/>
<polygon fill="midnightblue" stroke="midnightblue" points="450.46,-426.852 451.518,-416.31 444.117,-423.892 450.46,-426.852"/>
</g>
<!-- Node3 -->
<g id="node3" class="node"><title>Node3</title>
<polygon fill="white" stroke="#bfbfbf" points="81.5,-464 81.5,-483 135.5,-483 135.5,-464 81.5,-464"/>
<text text-anchor="middle" x="108.5" y="-471" font-family="Helvetica,sans-Serif" font-size="10.00">iostream</text>
</g>
<!-- Node1&#45;&gt;Node3 -->
<g id="edge2" class="edge"><title>Node1&#45;&gt;Node3</title>
<path fill="none" stroke="midnightblue" d="M333.741,-527.826C285.664,-520.843 208.932,-507.923 144.5,-489 142.068,-488.286 139.573,-487.468 137.086,-486.593"/>
<polygon fill="midnightblue" stroke="midnightblue" points="138.278,-483.302 127.686,-483.03 135.796,-489.847 138.278,-483.302"/>
</g>
<!-- Node4 -->
<g id="node4" class="node"><title>Node4</title>
<polygon fill="white" stroke="#bfbfbf" points="153.5,-464 153.5,-483 205.5,-483 205.5,-464 153.5,-464"/>
<text text-anchor="middle" x="179.5" y="-471" font-family="Helvetica,sans-Serif" font-size="10.00">sstream</text>
</g>
<!-- Node1&#45;&gt;Node4 -->
<g id="edge3" class="edge"><title>Node1&#45;&gt;Node4</title>
<path fill="none" stroke="midnightblue" d="M343.827,-525.491C309.918,-517.287 258.304,-503.942 214.5,-489 212.586,-488.347 210.626,-487.642 208.661,-486.906"/>
<polygon fill="midnightblue" stroke="midnightblue" points="209.54,-483.49 198.953,-483.077 206.971,-490.002 209.54,-483.49"/>
</g>
<!-- Node5 -->
<g id="node5" class="node"><title>Node5</title>
<g id="a_node5"><a doxygen="/opt/openrobots/share/doc/dynamic-graph/doxygen-html/dynamic-graph.doxytag:../../../../../../opt/openrobots/share/doc/dynamic-graph/doxygen-html/" xlink:href="../../../../../../opt/openrobots/share/doc/dynamic-graph/doxygen-html/a00090.html" target="_top" xlink:title="dynamic&#45;graph/signal\l&#45;base.h">
<polygon fill="white" stroke="black" points="0,-257.5 0,-287.5 109,-287.5 109,-257.5 0,-257.5"/>
<text text-anchor="start" x="8" y="-275.5" font-family="Helvetica,sans-Serif" font-size="10.00">dynamic&#45;graph/signal</text>
<text text-anchor="middle" x="54.5" y="-264.5" font-family="Helvetica,sans-Serif" font-size="10.00">&#45;base.h</text>
</a>
</g>
</g>
<!-- Node1&#45;&gt;Node5 -->
<g id="edge4" class="edge"><title>Node1&#45;&gt;Node5</title>
<path fill="none" stroke="midnightblue" d="M333.907,-533.991C256.692,-532.912 107.247,-525.962 72.5,-489 23.2055,-436.564 37.6422,-341.824 48.0055,-297.536"/>
<polygon fill="midnightblue" stroke="midnightblue" points="51.4442,-298.21 50.4478,-287.662 44.649,-296.529 51.4442,-298.21"/>
</g>
<!-- Node11 -->
<g id="node11" class="node"><title>Node11</title>
<g id="a_node11"><a doxygen="/opt/openrobots/share/doc/dynamic-graph/doxygen-html/dynamic-graph.doxytag:../../../../../../opt/openrobots/share/doc/dynamic-graph/doxygen-html/" xlink:href="../../../../../../opt/openrobots/share/doc/dynamic-graph/doxygen-html/a00097.html" target="_top" xlink:title="dynamic&#45;graph/signal.h">
<polygon fill="white" stroke="black" points="252,-397 252,-416 369,-416 369,-397 252,-397"/>
<text text-anchor="middle" x="310.5" y="-404" font-family="Helvetica,sans-Serif" font-size="10.00">dynamic&#45;graph/signal.h</text>
</a>
</g>
</g>
<!-- Node1&#45;&gt;Node11 -->
<g id="edge13" class="edge"><title>Node1&#45;&gt;Node11</title>
<path fill="none" stroke="midnightblue" d="M376.38,-525.453C369.483,-511.268 355.022,-482.043 341.5,-458 335.221,-446.837 327.718,-434.587 321.666,-424.949"/>
<polygon fill="midnightblue" stroke="midnightblue" points="324.505,-422.891 316.196,-416.317 318.592,-426.638 324.505,-422.891"/>
</g>
<!-- Node13 -->
<g id="node13" class="node"><title>Node13</title>
<g id="a_node13"><a doxygen="/opt/openrobots/share/doc/dynamic-graph/doxygen-html/dynamic-graph.doxytag:../../../../../../opt/openrobots/share/doc/dynamic-graph/doxygen-html/" xlink:href="../../../../../../opt/openrobots/share/doc/dynamic-graph/doxygen-html/a00092.html" target="_top" xlink:title="dynamic&#45;graph/signal\l&#45;caster.h">
<polygon fill="white" stroke="black" points="362,-257.5 362,-287.5 471,-287.5 471,-257.5 362,-257.5"/>
<text text-anchor="start" x="370" y="-275.5" font-family="Helvetica,sans-Serif" font-size="10.00">dynamic&#45;graph/signal</text>
<text text-anchor="middle" x="416.5" y="-264.5" font-family="Helvetica,sans-Serif" font-size="10.00">&#45;caster.h</text>
</a>
</g>
</g>
<!-- Node1&#45;&gt;Node13 -->
<g id="edge30" class="edge"><title>Node1&#45;&gt;Node13</title>
<path fill="none" stroke="midnightblue" d="M382.702,-525.264C388.372,-502.874 404.041,-441.637 418.5,-391 423.094,-374.913 427.028,-371.547 429.5,-355 431.535,-341.373 431.231,-337.669 429.5,-324 428.396,-315.285 426.262,-305.922 424.036,-297.653"/>
<polygon fill="midnightblue" stroke="midnightblue" points="427.36,-296.545 421.239,-287.897 420.631,-298.474 427.36,-296.545"/>
</g>
<!-- Node15 -->
<g id="node15" class="node"><title>Node15</title>
<g id="a_node15"><a doxygen="/opt/openrobots/share/doc/dynamic-graph/doxygen-html/dynamic-graph.doxytag:../../../../../../opt/openrobots/share/doc/dynamic-graph/doxygen-html/" xlink:href="../../../../../../opt/openrobots/share/doc/dynamic-graph/doxygen-html/a00094.html" target="_top" xlink:title="dynamic&#45;graph/signal\l&#45;ptr.h">
<polygon fill="white" stroke="black" points="224,-458.5 224,-488.5 333,-488.5 333,-458.5 224,-458.5"/>
<text text-anchor="start" x="232" y="-476.5" font-family="Helvetica,sans-Serif" font-size="10.00">dynamic&#45;graph/signal</text>
<text text-anchor="middle" x="278.5" y="-465.5" font-family="Helvetica,sans-Serif" font-size="10.00">&#45;ptr.h</text>
</a>
</g>
</g>
<!-- Node1&#45;&gt;Node15 -->
<g id="edge24" class="edge"><title>Node1&#45;&gt;Node15</title>
<path fill="none" stroke="midnightblue" d="M365.886,-525.475C351.684,-517.191 329.628,-504.325 311.228,-493.591"/>
<polygon fill="midnightblue" stroke="midnightblue" points="312.941,-490.539 302.539,-488.523 309.414,-496.585 312.941,-490.539"/>
</g>
<!-- Node17 -->
<g id="node17" class="node"><title>Node17</title>
<g id="a_node17"><a doxygen="/opt/openrobots/share/doc/dynamic-graph/doxygen-html/dynamic-graph.doxytag:../../../../../../opt/openrobots/share/doc/dynamic-graph/doxygen-html/" xlink:href="../../../../../../opt/openrobots/share/doc/dynamic-graph/doxygen-html/a00084.html" target="_top" xlink:title="dynamic&#45;graph/linear\l&#45;algebra.h">
<polygon fill="white" stroke="black" points="630,-324.5 630,-354.5 737,-354.5 737,-324.5 630,-324.5"/>
<text text-anchor="start" x="638" y="-342.5" font-family="Helvetica,sans-Serif" font-size="10.00">dynamic&#45;graph/linear</text>
<text text-anchor="middle" x="683.5" y="-331.5" font-family="Helvetica,sans-Serif" font-size="10.00">&#45;algebra.h</text>
</a>
</g>
</g>
<!-- Node1&#45;&gt;Node17 -->
<g id="edge31" class="edge"><title>Node1&#45;&gt;Node17</title>
<path fill="none" stroke="midnightblue" d="M427.243,-533.879C499.341,-530.76 634.663,-512.489 685.5,-422 695.317,-404.526 693.661,-381.446 690.221,-364.309"/>
<polygon fill="midnightblue" stroke="midnightblue" points="693.616,-363.453 687.936,-354.51 686.799,-365.043 693.616,-363.453"/>
</g>
<!-- Node18 -->
<g id="node18" class="node"><title>Node18</title>
<g id="a_node18"><a xlink:href="a00010.html" target="_top" xlink:title="convert&#45;dg&#45;to&#45;py.hh">
<polygon fill="white" stroke="black" points="466,-464 466,-483 567,-483 567,-464 466,-464"/>
<text text-anchor="middle" x="516.5" y="-471" font-family="Helvetica,sans-Serif" font-size="10.00">convert&#45;dg&#45;to&#45;py.hh</text>
</a>
</g>
</g>
<!-- Node1&#45;&gt;Node18 -->
<g id="edge32" class="edge"><title>Node1&#45;&gt;Node18</title>
<path fill="none" stroke="midnightblue" d="M399.985,-525.475C422.91,-515.445 461.185,-498.7 487.575,-487.155"/>
<polygon fill="midnightblue" stroke="midnightblue" points="489.292,-490.224 497.051,-483.009 486.486,-483.811 489.292,-490.224"/>
</g>
<!-- Node22 -->
<g id="node22" class="node"><title>Node22</title>
<g id="a_node22"><a xlink:href="a00016.html" target="_top" xlink:title="exception.hh">
<polygon fill="white" stroke="black" points="749.5,-464 749.5,-483 821.5,-483 821.5,-464 749.5,-464"/>
<text text-anchor="middle" x="785.5" y="-471" font-family="Helvetica,sans-Serif" font-size="10.00">exception.hh</text>
</a>
</g>
</g>
<!-- Node1&#45;&gt;Node22 -->
<g id="edge42" class="edge"><title>Node1&#45;&gt;Node22</title>
<path fill="none" stroke="midnightblue" d="M427.118,-530.428C495.34,-524.673 626.15,-511.642 735.5,-489 739.952,-488.078 744.584,-486.959 749.154,-485.755"/>
<polygon fill="midnightblue" stroke="midnightblue" points="750.268,-489.079 758.966,-483.03 748.394,-482.334 750.268,-489.079"/>
</g>
<!-- Node6 -->
<g id="node6" class="node"><title>Node6</title>
<g id="a_node6"><a doxygen="/opt/openrobots/share/doc/dynamic-graph/doxygen-html/dynamic-graph.doxytag:../../../../../../opt/openrobots/share/doc/dynamic-graph/doxygen-html/" xlink:href="../../../../../../opt/openrobots/share/doc/dynamic-graph/doxygen-html/a00082.html" target="_top" xlink:title="dynamic&#45;graph/fwd.hh">
<polygon fill="white" stroke="black" points="109,-62 109,-81 222,-81 222,-62 109,-62"/>
<text text-anchor="middle" x="165.5" y="-69" font-family="Helvetica,sans-Serif" font-size="10.00">dynamic&#45;graph/fwd.hh</text>
</a>
</g>
</g>
<!-- Node5&#45;&gt;Node6 -->
<g id="edge5" class="edge"><title>Node5&#45;&gt;Node6</title>
<path fill="none" stroke="midnightblue" d="M55.4493,-257.316C57.0167,-240.538 61.0914,-212.098 71.5,-190 90.8465,-148.926 127.249,-109.466 148.632,-88.36"/>
<polygon fill="midnightblue" stroke="midnightblue" points="151.274,-90.674 156.025,-81.2043 146.406,-85.6441 151.274,-90.674"/>
</g>
<!-- Node7 -->
<g id="node7" class="node"><title>Node7</title>
<g id="a_node7"><a doxygen="/opt/openrobots/share/doc/dynamic-graph/doxygen-html/dynamic-graph.doxytag:../../../../../../opt/openrobots/share/doc/dynamic-graph/doxygen-html/" xlink:href="../../../../../../opt/openrobots/share/doc/dynamic-graph/doxygen-html/a00079.html" target="_top" xlink:title="dynamic&#45;graph/exception\l&#45;signal.h">
<polygon fill="white" stroke="black" points="217,-190.5 217,-220.5 342,-220.5 342,-190.5 217,-190.5"/>
<text text-anchor="start" x="225" y="-208.5" font-family="Helvetica,sans-Serif" font-size="10.00">dynamic&#45;graph/exception</text>
<text text-anchor="middle" x="279.5" y="-197.5" font-family="Helvetica,sans-Serif" font-size="10.00">&#45;signal.h</text>
</a>
</g>
</g>
<!-- Node5&#45;&gt;Node7 -->
<g id="edge6" class="edge"><title>Node5&#45;&gt;Node7</title>
<path fill="none" stroke="midnightblue" d="M103.045,-257.476C137.526,-247.515 184.009,-234.086 220.611,-223.512"/>
<polygon fill="midnightblue" stroke="midnightblue" points="222.019,-226.749 230.655,-220.611 220.076,-220.024 222.019,-226.749"/>
</g>
<!-- Node7&#45;&gt;Node6 -->
<g id="edge7" class="edge"><title>Node7&#45;&gt;Node6</title>
<path fill="none" stroke="midnightblue" d="M263.883,-190.487C253.229,-180.656 239.019,-166.997 227.5,-154 208.795,-132.895 189.466,-106.654 177.468,-89.744"/>
<polygon fill="midnightblue" stroke="midnightblue" points="180.22,-87.5722 171.607,-81.4017 174.492,-91.5963 180.22,-87.5722"/>
</g>
<!-- Node8 -->
<g id="node8" class="node"><title>Node8</title>
<g id="a_node8"><a doxygen="/opt/openrobots/share/doc/dynamic-graph/doxygen-html/dynamic-graph.doxytag:../../../../../../opt/openrobots/share/doc/dynamic-graph/doxygen-html/" xlink:href="../../../../../../opt/openrobots/share/doc/dynamic-graph/doxygen-html/a00073.html" target="_top" xlink:title="dynamic&#45;graph/dynamic\l&#45;graph&#45;api.h">
<polygon fill="white" stroke="black" points="310.5,-56.5 310.5,-86.5 430.5,-86.5 430.5,-56.5 310.5,-56.5"/>
<text text-anchor="start" x="318.5" y="-74.5" font-family="Helvetica,sans-Serif" font-size="10.00">dynamic&#45;graph/dynamic</text>
<text text-anchor="middle" x="370.5" y="-63.5" font-family="Helvetica,sans-Serif" font-size="10.00">&#45;graph&#45;api.h</text>
</a>
</g>
</g>
<!-- Node7&#45;&gt;Node8 -->
<g id="edge8" class="edge"><title>Node7&#45;&gt;Node8</title>
<path fill="none" stroke="midnightblue" d="M279.794,-190.321C280.788,-173.035 284.593,-143.587 298.5,-123 306.959,-110.477 319.64,-100.089 332.013,-92.0568"/>
<polygon fill="midnightblue" stroke="midnightblue" points="334.193,-94.8264 340.904,-86.6275 330.545,-88.8522 334.193,-94.8264"/>
</g>
<!-- Node10 -->
<g id="node10" class="node"><title>Node10</title>
<g id="a_node10"><a doxygen="/opt/openrobots/share/doc/dynamic-graph/doxygen-html/dynamic-graph.doxytag:../../../../../../opt/openrobots/share/doc/dynamic-graph/doxygen-html/" xlink:href="../../../../../../opt/openrobots/share/doc/dynamic-graph/doxygen-html/a00077.html" target="_top" xlink:title="dynamic&#45;graph/exception\l&#45;abstract.h">
<polygon fill="white" stroke="black" points="308,-123.5 308,-153.5 433,-153.5 433,-123.5 308,-123.5"/>
<text text-anchor="start" x="316" y="-141.5" font-family="Helvetica,sans-Serif" font-size="10.00">dynamic&#45;graph/exception</text>
<text text-anchor="middle" x="370.5" y="-130.5" font-family="Helvetica,sans-Serif" font-size="10.00">&#45;abstract.h</text>
</a>
</g>
</g>
<!-- Node7&#45;&gt;Node10 -->
<g id="edge10" class="edge"><title>Node7&#45;&gt;Node10</title>
<path fill="none" stroke="midnightblue" d="M299.246,-190.396C311.886,-181.367 328.48,-169.514 342.474,-159.518"/>
<polygon fill="midnightblue" stroke="midnightblue" points="344.69,-162.237 350.793,-153.577 340.621,-156.541 344.69,-162.237"/>
</g>
<!-- Node9 -->
<g id="node9" class="node"><title>Node9</title>
<g id="a_node9"><a doxygen="/opt/openrobots/share/doc/dynamic-graph/doxygen-html/dynamic-graph.doxytag:../../../../../../opt/openrobots/share/doc/dynamic-graph/doxygen-html/" xlink:href="../../../../../../opt/openrobots/share/doc/dynamic-graph/doxygen-html/a00068.html" target="_top" xlink:title="dynamic&#45;graph/config.hh">
<polygon fill="white" stroke="black" points="309,-0.5 309,-19.5 432,-19.5 432,-0.5 309,-0.5"/>
<text text-anchor="middle" x="370.5" y="-7.5" font-family="Helvetica,sans-Serif" font-size="10.00">dynamic&#45;graph/config.hh</text>
</a>
</g>
</g>
<!-- Node8&#45;&gt;Node9 -->
<g id="edge9" class="edge"><title>Node8&#45;&gt;Node9</title>
<path fill="none" stroke="midnightblue" d="M370.5,-56.3993C370.5,-48.4664 370.5,-38.458 370.5,-29.8583"/>
<polygon fill="midnightblue" stroke="midnightblue" points="374,-29.6577 370.5,-19.6578 367,-29.6578 374,-29.6577"/>
</g>
<!-- Node10&#45;&gt;Node6 -->
<g id="edge11" class="edge"><title>Node10&#45;&gt;Node6</title>
<path fill="none" stroke="midnightblue" d="M326.27,-123.476C289.204,-111.723 236.914,-95.1433 202.149,-84.1205"/>
<polygon fill="midnightblue" stroke="midnightblue" points="202.988,-80.7149 192.398,-81.0287 200.873,-87.3875 202.988,-80.7149"/>
</g>
<!-- Node10&#45;&gt;Node8 -->
<g id="edge12" class="edge"><title>Node10&#45;&gt;Node8</title>
<path fill="none" stroke="midnightblue" d="M370.5,-123.396C370.5,-115.645 370.5,-105.812 370.5,-96.8601"/>
<polygon fill="midnightblue" stroke="midnightblue" points="374,-96.5765 370.5,-86.5765 367,-96.5765 374,-96.5765"/>
</g>
<!-- Node11&#45;&gt;Node5 -->
<g id="edge15" class="edge"><title>Node11&#45;&gt;Node5</title>
<path fill="none" stroke="midnightblue" d="M293.703,-396.839C252.714,-375.704 146.825,-321.105 90.6841,-292.157"/>
<polygon fill="midnightblue" stroke="midnightblue" points="92.2824,-289.044 81.7903,-287.572 89.0744,-295.265 92.2824,-289.044"/>
</g>
<!-- Node11&#45;&gt;Node7 -->
<g id="edge14" class="edge"><title>Node11&#45;&gt;Node7</title>
<path fill="none" stroke="midnightblue" d="M302.677,-397C294.566,-387.557 282.402,-371.462 277.5,-355 264.918,-312.744 270.037,-260.681 274.824,-230.767"/>
<polygon fill="midnightblue" stroke="midnightblue" points="278.291,-231.256 276.539,-220.807 271.392,-230.068 278.291,-231.256"/>
</g>
<!-- Node12 -->
<g id="node12" class="node"><title>Node12</title>
<g id="a_node12"><a doxygen="/opt/openrobots/share/doc/dynamic-graph/doxygen-html/dynamic-graph.doxytag:../../../../../../opt/openrobots/share/doc/dynamic-graph/doxygen-html/" xlink:href="../../../../../../opt/openrobots/share/doc/dynamic-graph/doxygen-html/a00098.html" target="_top" xlink:title="dynamic&#45;graph/signal.t.cpp">
<polygon fill="white" stroke="black" points="286.5,-330 286.5,-349 420.5,-349 420.5,-330 286.5,-330"/>
<text text-anchor="middle" x="353.5" y="-337" font-family="Helvetica,sans-Serif" font-size="10.00">dynamic&#45;graph/signal.t.cpp</text>
</a>
</g>
</g>
<!-- Node11&#45;&gt;Node12 -->
<g id="edge16" class="edge"><title>Node11&#45;&gt;Node12</title>
<path fill="none" stroke="midnightblue" d="M311.511,-396.734C316.083,-386.598 326.875,-369.69 336.579,-357.056"/>
<polygon fill="midnightblue" stroke="midnightblue" points="339.434,-359.092 343.034,-349.127 334.006,-354.673 339.434,-359.092"/>
</g>
<!-- Node12&#45;&gt;Node11 -->
<g id="edge17" class="edge"><title>Node12&#45;&gt;Node11</title>
<path fill="none" stroke="midnightblue" d="M352.552,-349.127C348.037,-359.201 337.268,-376.097 327.554,-388.77"/>
<polygon fill="midnightblue" stroke="midnightblue" points="324.675,-386.765 321.088,-396.734 330.109,-391.177 324.675,-386.765"/>
</g>
<!-- Node12&#45;&gt;Node13 -->
<g id="edge18" class="edge"><title>Node12&#45;&gt;Node13</title>
<path fill="none" stroke="midnightblue" d="M361.996,-329.734C370.593,-320.865 384.214,-306.811 395.688,-294.972"/>
<polygon fill="midnightblue" stroke="midnightblue" points="398.398,-297.206 402.844,-287.589 393.371,-292.334 398.398,-297.206"/>
</g>
<!-- Node14 -->
<g id="node14" class="node"><title>Node14</title>
<g id="a_node14"><a doxygen="/opt/openrobots/share/doc/dynamic-graph/doxygen-html/dynamic-graph.doxytag:../../../../../../opt/openrobots/share/doc/dynamic-graph/doxygen-html/" xlink:href="../../../../../../opt/openrobots/share/doc/dynamic-graph/doxygen-html/a00070.html" target="_top" xlink:title="dynamic&#45;graph/debug.h">
<polygon fill="white" stroke="black" points="80.5,-196 80.5,-215 198.5,-215 198.5,-196 80.5,-196"/>
<text text-anchor="middle" x="139.5" y="-203" font-family="Helvetica,sans-Serif" font-size="10.00">dynamic&#45;graph/debug.h</text>
</a>
</g>
</g>
<!-- Node12&#45;&gt;Node14 -->
<g id="edge21" class="edge"><title>Node12&#45;&gt;Node14</title>
<path fill="none" stroke="midnightblue" d="M339.459,-329.839C303.171,-307.456 206.037,-247.541 161.89,-220.311"/>
<polygon fill="midnightblue" stroke="midnightblue" points="163.663,-217.292 153.315,-215.021 159.988,-223.25 163.663,-217.292"/>
</g>
<!-- Node13&#45;&gt;Node7 -->
<g id="edge20" class="edge"><title>Node13&#45;&gt;Node7</title>
<path fill="none" stroke="midnightblue" d="M386.773,-257.396C366.756,-247.899 340.152,-235.276 318.446,-224.978"/>
<polygon fill="midnightblue" stroke="midnightblue" points="319.704,-221.701 309.169,-220.577 316.703,-228.025 319.704,-221.701"/>
</g>
<!-- Node13&#45;&gt;Node8 -->
<g id="edge19" class="edge"><title>Node13&#45;&gt;Node8</title>
<path fill="none" stroke="midnightblue" d="M449.095,-257.434C464.46,-249.097 481.56,-237.001 491.5,-221 514.58,-183.846 525.202,-159.096 500.5,-123 486.681,-102.806 463.512,-90.686 440.53,-83.4122"/>
<polygon fill="midnightblue" stroke="midnightblue" points="441.298,-79.9911 430.719,-80.5822 439.358,-86.7169 441.298,-79.9911"/>
</g>
<!-- Node14&#45;&gt;Node6 -->
<g id="edge22" class="edge"><title>Node14&#45;&gt;Node6</title>
<path fill="none" stroke="midnightblue" d="M140.413,-195.872C142.074,-180.929 145.939,-149.306 151.5,-123 153.745,-112.38 156.938,-100.689 159.708,-91.2334"/>
<polygon fill="midnightblue" stroke="midnightblue" points="163.15,-91.9419 162.684,-81.3573 156.448,-89.9227 163.15,-91.9419"/>
</g>
<!-- Node14&#45;&gt;Node8 -->
<g id="edge23" class="edge"><title>Node14&#45;&gt;Node8</title>
<path fill="none" stroke="midnightblue" d="M154.657,-195.839C191.414,-174.835 286.011,-120.779 336.904,-91.6976"/>
<polygon fill="midnightblue" stroke="midnightblue" points="338.929,-94.5719 345.875,-86.5716 335.456,-88.4942 338.929,-94.5719"/>
</g>
<!-- Node15&#45;&gt;Node7 -->
<g id="edge25" class="edge"><title>Node15&#45;&gt;Node7</title>
<path fill="none" stroke="midnightblue" d="M264.76,-458.387C256.554,-448.934 246.897,-435.742 242.5,-422 220.799,-354.172 250.773,-270.027 268.34,-229.905"/>
<polygon fill="midnightblue" stroke="midnightblue" points="271.576,-231.244 272.5,-220.689 265.195,-228.364 271.576,-231.244"/>
</g>
<!-- Node15&#45;&gt;Node11 -->
<g id="edge26" class="edge"><title>Node15&#45;&gt;Node11</title>
<path fill="none" stroke="midnightblue" d="M285.444,-458.396C290.235,-448.662 296.643,-435.646 301.779,-425.214"/>
<polygon fill="midnightblue" stroke="midnightblue" points="304.943,-426.712 306.22,-416.195 298.663,-423.62 304.943,-426.712"/>
</g>
<!-- Node16 -->
<g id="node16" class="node"><title>Node16</title>
<g id="a_node16"><a doxygen="/opt/openrobots/share/doc/dynamic-graph/doxygen-html/dynamic-graph.doxytag:../../../../../../opt/openrobots/share/doc/dynamic-graph/doxygen-html/" xlink:href="../../../../../../opt/openrobots/share/doc/dynamic-graph/doxygen-html/a00095.html" target="_top" xlink:title="dynamic&#45;graph/signal\l&#45;ptr.t.cpp">
<polygon fill="white" stroke="black" points="83,-391.5 83,-421.5 192,-421.5 192,-391.5 83,-391.5"/>
<text text-anchor="start" x="91" y="-409.5" font-family="Helvetica,sans-Serif" font-size="10.00">dynamic&#45;graph/signal</text>
<text text-anchor="middle" x="137.5" y="-398.5" font-family="Helvetica,sans-Serif" font-size="10.00">&#45;ptr.t.cpp</text>
</a>
</g>
</g>
<!-- Node15&#45;&gt;Node16 -->
<g id="edge27" class="edge"><title>Node15&#45;&gt;Node16</title>
<path fill="none" stroke="midnightblue" d="M242.227,-458.396C220.379,-448.899 192.839,-436.276 171.426,-425.978"/>
<polygon fill="midnightblue" stroke="midnightblue" points="172.885,-422.796 162.36,-421.577 169.827,-429.093 172.885,-422.796"/>
</g>
<!-- Node16&#45;&gt;Node14 -->
<g id="edge29" class="edge"><title>Node16&#45;&gt;Node14</title>
<path fill="none" stroke="midnightblue" d="M137.644,-391.188C137.998,-355.986 138.91,-265.172 139.309,-225.508"/>
<polygon fill="midnightblue" stroke="midnightblue" points="142.81,-225.395 139.411,-215.36 135.811,-225.324 142.81,-225.395"/>
</g>
<!-- Node16&#45;&gt;Node15 -->
<g id="edge28" class="edge"><title>Node16&#45;&gt;Node15</title>
<path fill="none" stroke="midnightblue" d="M173.71,-421.577C195.546,-431.068 223.087,-443.689 244.512,-453.992"/>
<polygon fill="midnightblue" stroke="midnightblue" points="243.059,-457.177 253.584,-458.396 246.116,-450.88 243.059,-457.177"/>
</g>
<!-- Node18&#45;&gt;Node2 -->
<g id="edge33" class="edge"><title>Node18&#45;&gt;Node2</title>
<path fill="none" stroke="midnightblue" d="M508.273,-463.734C498.67,-453.5 482.588,-436.364 470.696,-423.692"/>
<polygon fill="midnightblue" stroke="midnightblue" points="472.992,-421.024 463.596,-416.127 467.887,-425.814 472.992,-421.024"/>
</g>
<!-- Node18&#45;&gt;Node17 -->
<g id="edge34" class="edge"><title>Node18&#45;&gt;Node17</title>
<path fill="none" stroke="midnightblue" d="M567.155,-467.41C599.1,-461.561 638.838,-448.995 663.5,-422 677.645,-406.517 682.206,-382.679 683.489,-364.777"/>
<polygon fill="midnightblue" stroke="midnightblue" points="686.986,-364.919 683.917,-354.778 679.993,-364.619 686.986,-364.919"/>
</g>
<!-- Node19 -->
<g id="node19" class="node"><title>Node19</title>
<g id="a_node19"><a doxygen="/opt/openrobots/share/doc/dynamic-graph/doxygen-html/dynamic-graph.doxytag:../../../../../../opt/openrobots/share/doc/dynamic-graph/doxygen-html/" xlink:href="../../../../../../opt/openrobots/share/doc/dynamic-graph/doxygen-html/a00105.html" target="_top" xlink:title="dynamic&#45;graph/value.h">
<polygon fill="white" stroke="black" points="540,-397 540,-416 655,-416 655,-397 540,-397"/>
<text text-anchor="middle" x="597.5" y="-404" font-family="Helvetica,sans-Serif" font-size="10.00">dynamic&#45;graph/value.h</text>
</a>
</g>
</g>
<!-- Node18&#45;&gt;Node19 -->
<g id="edge35" class="edge"><title>Node18&#45;&gt;Node19</title>
<path fill="none" stroke="midnightblue" d="M527.424,-463.734C540.541,-453.208 562.758,-435.379 578.661,-422.617"/>
<polygon fill="midnightblue" stroke="midnightblue" points="581.14,-425.116 586.749,-416.127 576.759,-419.656 581.14,-425.116"/>
</g>
<!-- Node20 -->
<g id="node20" class="node"><title>Node20</title>
<g id="a_node20"><a xlink:href="a00015.html" target="_top" xlink:title="dynamic&#45;graph/python\l/exception&#45;python.hh">
<polygon fill="white" stroke="black" points="370,-190.5 370,-220.5 483,-220.5 483,-190.5 370,-190.5"/>
<text text-anchor="start" x="378" y="-208.5" font-family="Helvetica,sans-Serif" font-size="10.00">dynamic&#45;graph/python</text>
<text text-anchor="middle" x="426.5" y="-197.5" font-family="Helvetica,sans-Serif" font-size="10.00">/exception&#45;python.hh</text>
</a>
</g>
</g>
<!-- Node18&#45;&gt;Node20 -->
<g id="edge38" class="edge"><title>Node18&#45;&gt;Node20</title>
<path fill="none" stroke="midnightblue" d="M516.898,-463.66C517.895,-433.028 518.074,-329.355 479.5,-257 473.427,-245.609 463.831,-235.308 454.463,-227.025"/>
<polygon fill="midnightblue" stroke="midnightblue" points="456.648,-224.29 446.73,-220.562 452.159,-229.661 456.648,-224.29"/>
</g>
<!-- Node19&#45;&gt;Node8 -->
<g id="edge36" class="edge"><title>Node19&#45;&gt;Node8</title>
<path fill="none" stroke="midnightblue" d="M595.283,-396.92C590.076,-375.984 577.5,-320.552 577.5,-273.5 577.5,-273.5 577.5,-273.5 577.5,-204.5 577.5,-137.982 500.572,-103.51 440.509,-86.732"/>
<polygon fill="midnightblue" stroke="midnightblue" points="441.216,-83.298 430.651,-84.0919 439.405,-90.0597 441.216,-83.298"/>
</g>
<!-- Node19&#45;&gt;Node17 -->
<g id="edge37" class="edge"><title>Node19&#45;&gt;Node17</title>
<path fill="none" stroke="midnightblue" d="M609.098,-396.734C621.28,-387.527 640.853,-372.733 656.867,-360.629"/>
<polygon fill="midnightblue" stroke="midnightblue" points="658.992,-363.411 664.859,-354.589 654.771,-357.827 658.992,-363.411"/>
</g>
<!-- Node20&#45;&gt;Node6 -->
<g id="edge40" class="edge"><title>Node20&#45;&gt;Node6</title>
<path fill="none" stroke="midnightblue" d="M385.649,-190.447C360.118,-181.163 326.824,-168.131 298.5,-154 257.279,-133.434 212.114,-104.214 186.448,-86.9215"/>
<polygon fill="midnightblue" stroke="midnightblue" points="188.156,-83.8511 177.917,-81.1284 184.224,-89.642 188.156,-83.8511"/>
</g>
<!-- Node20&#45;&gt;Node10 -->
<g id="edge41" class="edge"><title>Node20&#45;&gt;Node10</title>
<path fill="none" stroke="midnightblue" d="M414.349,-190.396C407.01,-181.878 397.507,-170.847 389.224,-161.233"/>
<polygon fill="midnightblue" stroke="midnightblue" points="391.806,-158.868 382.627,-153.577 386.503,-163.437 391.806,-158.868"/>
</g>
<!-- Node21 -->
<g id="node21" class="node"><title>Node21</title>
<polygon fill="white" stroke="#bfbfbf" points="451,-129 451,-148 492,-148 492,-129 451,-129"/>
<text text-anchor="middle" x="471.5" y="-136" font-family="Helvetica,sans-Serif" font-size="10.00">string</text>
</g>
<!-- Node20&#45;&gt;Node21 -->
<g id="edge39" class="edge"><title>Node20&#45;&gt;Node21</title>
<path fill="none" stroke="midnightblue" d="M436.264,-190.396C443.142,-180.462 452.387,-167.108 459.681,-156.572"/>
<polygon fill="midnightblue" stroke="midnightblue" points="462.666,-158.409 465.481,-148.195 456.911,-154.424 462.666,-158.409"/>
</g>
</g>
</svg>
