<?xml version="1.0" encoding="UTF-8" standalone="no"?>
<!DOCTYPE svg PUBLIC "-//W3C//DTD SVG 1.1//EN"
 "http://www.w3.org/Graphics/SVG/1.1/DTD/svg11.dtd">
<!-- Generated by graphviz version 2.38.0 (20140413.2041)
 -->
<!-- Title: dynamicgraph::python::ExceptionPython Pages: 1 -->
<svg width="223pt" height="174pt"
 viewBox="0.00 0.00 222.50 174.00" xmlns="http://www.w3.org/2000/svg" xmlns:xlink="http://www.w3.org/1999/xlink">
<g id="graph0" class="graph" transform="scale(1 1) rotate(0) translate(4 170)">
<title>dynamicgraph::python::ExceptionPython</title>
<polygon fill="white" stroke="none" points="-4,4 -4,-170 218.5,-170 218.5,4 -4,4"/>
<!-- Node1 -->
<g id="node1" class="node"><title>Node1</title>
<polygon fill="#bfbfbf" stroke="black" points="24,-0.5 24,-30.5 137,-30.5 137,-0.5 24,-0.5"/>
<text text-anchor="start" x="32" y="-18.5" font-family="Helvetica,sans-Serif" font-size="10.00">dynamicgraph::python</text>
<text text-anchor="middle" x="80.5" y="-7.5" font-family="Helvetica,sans-Serif" font-size="10.00">::ExceptionPython</text>
</g>
<!-- Node2 -->
<g id="node2" class="node"><title>Node2</title>
<polygon fill="white" stroke="#bfbfbf" points="-7.10543e-15,-78.5 -7.10543e-15,-97.5 97,-97.5 97,-78.5 -7.10543e-15,-78.5"/>
<text text-anchor="middle" x="48.5" y="-85.5" font-family="Helvetica,sans-Serif" font-size="10.00">ExceptionAbstract</text>
</g>
<!-- Node2&#45;&gt;Node1 -->
<g id="edge1" class="edge"><title>Node2&#45;&gt;Node1</title>
<path fill="none" stroke="midnightblue" d="M56.6867,-68.9637C62.1037,-57.0293 69.1045,-41.6057 74.1108,-30.5762"/>
<polygon fill="midnightblue" stroke="midnightblue" points="53.37,-67.8028 52.4238,-78.3553 59.7441,-70.6961 53.37,-67.8028"/>
</g>
<!-- Node3 -->
<g id="node3" class="node"><title>Node3</title>
<g id="a_node3"><a xlink:title="STL class. ">
<polygon fill="white" stroke="#bfbfbf" points="114.5,-78.5 114.5,-97.5 174.5,-97.5 174.5,-78.5 114.5,-78.5"/>
<text text-anchor="middle" x="144.5" y="-85.5" font-family="Helvetica,sans-Serif" font-size="10.00">std::string</text>
</a>
</g>
</g>
<!-- Node3&#45;&gt;Node1 -->
<g id="edge2" class="edge"><title>Node3&#45;&gt;Node1</title>
<path fill="none" stroke="#9a32cd" stroke-dasharray="5,2" d="M129.743,-70.7443C118.717,-58.5984 103.797,-42.1628 93.2784,-30.5762"/>
<polygon fill="#9a32cd" stroke="#9a32cd" points="127.339,-73.3037 136.652,-78.3553 132.522,-68.5986 127.339,-73.3037"/>
<text text-anchor="middle" x="166" y="-52" font-family="Helvetica,sans-Serif" font-size="10.00"> EXCEPTION_NAME</text>
</g>
<!-- Node4 -->
<g id="node4" class="node"><title>Node4</title>
<g id="a_node4"><a xlink:title="STL class. ">
<polygon fill="white" stroke="#bfbfbf" points="97,-135.5 97,-165.5 192,-165.5 192,-135.5 97,-135.5"/>
<text text-anchor="start" x="105" y="-153.5" font-family="Helvetica,sans-Serif" font-size="10.00">std::basic_string&lt;</text>
<text text-anchor="middle" x="144.5" y="-142.5" font-family="Helvetica,sans-Serif" font-size="10.00"> char &gt;</text>
</a>
</g>
</g>
<!-- Node4&#45;&gt;Node3 -->
<g id="edge3" class="edge"><title>Node4&#45;&gt;Node3</title>
<path fill="none" stroke="midnightblue" d="M144.5,-125.352C144.5,-115.513 144.5,-104.775 144.5,-97.5399"/>
<polygon fill="midnightblue" stroke="midnightblue" points="141,-125.468 144.5,-135.468 148,-125.468 141,-125.468"/>
</g>
</g>
</svg>
