<?xml version="1.0" encoding="UTF-8" standalone="no"?>
<!DOCTYPE svg PUBLIC "-//W3C//DTD SVG 1.1//EN"
 "http://www.w3.org/Graphics/SVG/1.1/DTD/svg11.dtd">
<!-- Generated by graphviz version 2.38.0 (20140413.2041)
 -->
<!-- Title: exception&#45;python.hh Pages: 1 -->
<svg width="335pt" height="140pt"
 viewBox="0.00 0.00 334.50 140.00" xmlns="http://www.w3.org/2000/svg" xmlns:xlink="http://www.w3.org/1999/xlink">
<g id="graph0" class="graph" transform="scale(1 1) rotate(0) translate(4 136)">
<title>exception&#45;python.hh</title>
<polygon fill="white" stroke="none" points="-4,4 -4,-136 330.5,-136 330.5,4 -4,4"/>
<!-- Node1 -->
<g id="node1" class="node"><title>Node1</title>
<polygon fill="#bfbfbf" stroke="black" points="161.5,-112.5 161.5,-131.5 265.5,-131.5 265.5,-112.5 161.5,-112.5"/>
<text text-anchor="middle" x="213.5" y="-119.5" font-family="Helvetica,sans-Serif" font-size="10.00">exception&#45;python.hh</text>
</g>
<!-- Node2 -->
<g id="node2" class="node"><title>Node2</title>
<g id="a_node2"><a xlink:href="a00010.html" target="_top" xlink:title="convert&#45;dg&#45;to&#45;py.hh">
<polygon fill="white" stroke="black" points="103,-56.5 103,-75.5 204,-75.5 204,-56.5 103,-56.5"/>
<text text-anchor="middle" x="153.5" y="-63.5" font-family="Helvetica,sans-Serif" font-size="10.00">convert&#45;dg&#45;to&#45;py.hh</text>
</a>
</g>
</g>
<!-- Node1&#45;&gt;Node2 -->
<g id="edge1" class="edge"><title>Node1&#45;&gt;Node2</title>
<path fill="none" stroke="midnightblue" d="M196.319,-105.537C185.621,-95.9087 172.244,-83.8694 163.315,-75.8339"/>
<polygon fill="midnightblue" stroke="midnightblue" points="194.086,-108.236 203.86,-112.324 198.768,-103.033 194.086,-108.236"/>
</g>
<!-- Node6 -->
<g id="node6" class="node"><title>Node6</title>
<g id="a_node6"><a xlink:href="a00014.html" target="_top" xlink:title="exception&#45;python.cc">
<polygon fill="white" stroke="black" points="222.5,-56.5 222.5,-75.5 326.5,-75.5 326.5,-56.5 222.5,-56.5"/>
<text text-anchor="middle" x="274.5" y="-63.5" font-family="Helvetica,sans-Serif" font-size="10.00">exception&#45;python.cc</text>
</a>
</g>
</g>
<!-- Node1&#45;&gt;Node6 -->
<g id="edge5" class="edge"><title>Node1&#45;&gt;Node6</title>
<path fill="none" stroke="midnightblue" d="M230.967,-105.537C241.844,-95.9087 255.444,-83.8694 264.521,-75.8339"/>
<polygon fill="midnightblue" stroke="midnightblue" points="228.468,-103.075 223.301,-112.324 233.108,-108.316 228.468,-103.075"/>
</g>
<!-- Node3 -->
<g id="node3" class="node"><title>Node3</title>
<g id="a_node3"><a xlink:href="a00009.html" target="_top" xlink:title="convert&#45;dg&#45;to&#45;py.cc">
<polygon fill="white" stroke="black" points="0,-0.5 0,-19.5 101,-19.5 101,-0.5 0,-0.5"/>
<text text-anchor="middle" x="50.5" y="-7.5" font-family="Helvetica,sans-Serif" font-size="10.00">convert&#45;dg&#45;to&#45;py.cc</text>
</a>
</g>
</g>
<!-- Node2&#45;&gt;Node3 -->
<g id="edge2" class="edge"><title>Node2&#45;&gt;Node3</title>
<path fill="none" stroke="midnightblue" d="M127.921,-51.5895C108.877,-41.6052 83.4356,-28.2672 67.0077,-19.6545"/>
<polygon fill="midnightblue" stroke="midnightblue" points="126.469,-54.7805 136.951,-56.324 129.72,-48.5808 126.469,-54.7805"/>
</g>
<!-- Node4 -->
<g id="node4" class="node"><title>Node4</title>
<g id="a_node4"><a xlink:href="a00013.html" target="_top" xlink:title="entity&#45;py.cc">
<polygon fill="white" stroke="black" points="119.5,-0.5 119.5,-19.5 187.5,-19.5 187.5,-0.5 119.5,-0.5"/>
<text text-anchor="middle" x="153.5" y="-7.5" font-family="Helvetica,sans-Serif" font-size="10.00">entity&#45;py.cc</text>
</a>
</g>
</g>
<!-- Node2&#45;&gt;Node4 -->
<g id="edge3" class="edge"><title>Node2&#45;&gt;Node4</title>
<path fill="none" stroke="midnightblue" d="M153.5,-45.8045C153.5,-36.9102 153.5,-26.7798 153.5,-19.7511"/>
<polygon fill="midnightblue" stroke="midnightblue" points="150,-46.083 153.5,-56.083 157,-46.083 150,-46.083"/>
</g>
<!-- Node5 -->
<g id="node5" class="node"><title>Node5</title>
<g id="a_node5"><a xlink:href="a00021.html" target="_top" xlink:title="signal&#45;base&#45;py.cc">
<polygon fill="white" stroke="black" points="206,-0.5 206,-19.5 299,-19.5 299,-0.5 206,-0.5"/>
<text text-anchor="middle" x="252.5" y="-7.5" font-family="Helvetica,sans-Serif" font-size="10.00">signal&#45;base&#45;py.cc</text>
</a>
</g>
</g>
<!-- Node2&#45;&gt;Node5 -->
<g id="edge4" class="edge"><title>Node2&#45;&gt;Node5</title>
<path fill="none" stroke="midnightblue" d="M178.337,-51.4526C196.614,-41.4835 220.916,-28.2279 236.633,-19.6545"/>
<polygon fill="midnightblue" stroke="midnightblue" points="176.509,-48.4628 169.406,-56.324 179.861,-54.608 176.509,-48.4628"/>
</g>
</g>
</svg>
