<?xml version="1.0" encoding="UTF-8" standalone="no"?>
<!DOCTYPE svg PUBLIC "-//W3C//DTD SVG 1.1//EN"
 "http://www.w3.org/Graphics/SVG/1.1/DTD/svg11.dtd">
<!-- Generated by graphviz version 2.38.0 (20140413.2041)
 -->
<!-- Title: entity&#45;py.cc Pages: 1 -->
<svg width="1159pt" height="475pt"
 viewBox="0.00 0.00 1159.00 475.00" xmlns="http://www.w3.org/2000/svg" xmlns:xlink="http://www.w3.org/1999/xlink">
<g id="graph0" class="graph" transform="scale(1 1) rotate(0) translate(4 471)">
<title>entity&#45;py.cc</title>
<polygon fill="white" stroke="none" points="-4,4 -4,-471 1155,-471 1155,4 -4,4"/>
<!-- Node1 -->
<g id="node1" class="node"><title>Node1</title>
<polygon fill="#bfbfbf" stroke="black" points="715,-447.5 715,-466.5 783,-466.5 783,-447.5 715,-447.5"/>
<text text-anchor="middle" x="749" y="-454.5" font-family="Helvetica,sans-Serif" font-size="10.00">entity&#45;py.cc</text>
</g>
<!-- Node2 -->
<g id="node2" class="node"><title>Node2</title>
<polygon fill="white" stroke="#bfbfbf" points="629,-330 629,-349 685,-349 685,-330 629,-330"/>
<text text-anchor="middle" x="657" y="-337" font-family="Helvetica,sans-Serif" font-size="10.00">Python.h</text>
</g>
<!-- Node1&#45;&gt;Node2 -->
<g id="edge1" class="edge"><title>Node1&#45;&gt;Node2</title>
<path fill="none" stroke="midnightblue" d="M714.768,-450.219C692.173,-444.435 664.208,-433.064 650,-411 640.033,-395.522 644.114,-374.044 649.222,-358.873"/>
<polygon fill="midnightblue" stroke="midnightblue" points="652.65,-359.707 652.938,-349.116 646.108,-357.216 652.65,-359.707"/>
</g>
<!-- Node3 -->
<g id="node3" class="node"><title>Node3</title>
<polygon fill="white" stroke="#bfbfbf" points="1007,-391.5 1007,-410.5 1061,-410.5 1061,-391.5 1007,-391.5"/>
<text text-anchor="middle" x="1034" y="-398.5" font-family="Helvetica,sans-Serif" font-size="10.00">iostream</text>
</g>
<!-- Node1&#45;&gt;Node3 -->
<g id="edge2" class="edge"><title>Node1&#45;&gt;Node3</title>
<path fill="none" stroke="midnightblue" d="M783.377,-450.527C829.661,-442.997 914.784,-428.582 996.919,-411.119"/>
<polygon fill="midnightblue" stroke="midnightblue" points="997.874,-414.494 1006.92,-408.975 996.406,-407.649 997.874,-414.494"/>
</g>
<!-- Node4 -->
<g id="node4" class="node"><title>Node4</title>
<g id="a_node4"><a doxygen="/opt/openrobots/share/doc/dynamic-graph/doxygen-html/dynamic-graph.doxytag:../../../../../../opt/openrobots/share/doc/dynamic-graph/doxygen-html/" xlink:href="../../../../../../opt/openrobots/share/doc/dynamic-graph/doxygen-html/a00076.html" target="_top" xlink:title="dynamic&#45;graph/entity.h">
<polygon fill="white" stroke="black" points="404,-391.5 404,-410.5 520,-410.5 520,-391.5 404,-391.5"/>
<text text-anchor="middle" x="462" y="-398.5" font-family="Helvetica,sans-Serif" font-size="10.00">dynamic&#45;graph/entity.h</text>
</a>
</g>
</g>
<!-- Node1&#45;&gt;Node4 -->
<g id="edge3" class="edge"><title>Node1&#45;&gt;Node4</title>
<path fill="none" stroke="midnightblue" d="M714.95,-449.593C666.205,-440.422 575.976,-423.445 517.501,-412.443"/>
<polygon fill="midnightblue" stroke="midnightblue" points="517.802,-408.938 507.328,-410.529 516.508,-415.817 517.802,-408.938"/>
</g>
<!-- Node13 -->
<g id="node13" class="node"><title>Node13</title>
<g id="a_node13"><a doxygen="/opt/openrobots/share/doc/dynamic-graph/doxygen-html/dynamic-graph.doxytag:../../../../../../opt/openrobots/share/doc/dynamic-graph/doxygen-html/" xlink:href="../../../../../../opt/openrobots/share/doc/dynamic-graph/doxygen-html/a00081.html" target="_top" xlink:title="dynamic&#45;graph/factory.h">
<polygon fill="white" stroke="black" points="66,-263 66,-282 188,-282 188,-263 66,-263"/>
<text text-anchor="middle" x="127" y="-270" font-family="Helvetica,sans-Serif" font-size="10.00">dynamic&#45;graph/factory.h</text>
</a>
</g>
</g>
<!-- Node1&#45;&gt;Node13 -->
<g id="edge22" class="edge"><title>Node1&#45;&gt;Node13</title>
<path fill="none" stroke="midnightblue" d="M714.981,-454.591C643.175,-451.127 471.13,-440.241 330,-411 247.96,-394.002 208.451,-415.025 150,-355 133.692,-338.253 128.769,-310.869 127.38,-292.522"/>
<polygon fill="midnightblue" stroke="midnightblue" points="130.872,-292.265 126.901,-282.442 123.879,-292.597 130.872,-292.265"/>
</g>
<!-- Node14 -->
<g id="node14" class="node"><title>Node14</title>
<g id="a_node14"><a doxygen="/opt/openrobots/share/doc/dynamic-graph/doxygen-html/dynamic-graph.doxytag:../../../../../../opt/openrobots/share/doc/dynamic-graph/doxygen-html/" xlink:href="../../../../../../opt/openrobots/share/doc/dynamic-graph/doxygen-html/a00063.html" target="_top" xlink:title="dynamic&#45;graph/command.h">
<polygon fill="white" stroke="black" points="855,-391.5 855,-410.5 989,-410.5 989,-391.5 855,-391.5"/>
<text text-anchor="middle" x="922" y="-398.5" font-family="Helvetica,sans-Serif" font-size="10.00">dynamic&#45;graph/command.h</text>
</a>
</g>
</g>
<!-- Node1&#45;&gt;Node14 -->
<g id="edge26" class="edge"><title>Node1&#45;&gt;Node14</title>
<path fill="none" stroke="midnightblue" d="M776.412,-447.444C805.769,-438.28 852.519,-423.688 885.096,-413.519"/>
<polygon fill="midnightblue" stroke="midnightblue" points="886.213,-416.837 894.716,-410.516 884.127,-410.155 886.213,-416.837"/>
</g>
<!-- Node15 -->
<g id="node15" class="node"><title>Node15</title>
<g id="a_node15"><a doxygen="/opt/openrobots/share/doc/dynamic-graph/doxygen-html/dynamic-graph.doxytag:../../../../../../opt/openrobots/share/doc/dynamic-graph/doxygen-html/" xlink:href="../../../../../../opt/openrobots/share/doc/dynamic-graph/doxygen-html/a00105.html" target="_top" xlink:title="dynamic&#45;graph/value.h">
<polygon fill="white" stroke="black" points="817.5,-330 817.5,-349 932.5,-349 932.5,-330 817.5,-330"/>
<text text-anchor="middle" x="875" y="-337" font-family="Helvetica,sans-Serif" font-size="10.00">dynamic&#45;graph/value.h</text>
</a>
</g>
</g>
<!-- Node1&#45;&gt;Node15 -->
<g id="edge31" class="edge"><title>Node1&#45;&gt;Node15</title>
<path fill="none" stroke="midnightblue" d="M759.974,-447.284C771.041,-438.396 788.513,-424.091 803,-411 822.933,-392.989 844.859,-371.218 859.216,-356.679"/>
<polygon fill="midnightblue" stroke="midnightblue" points="861.84,-359.002 866.352,-349.416 856.847,-354.096 861.84,-359.002"/>
</g>
<!-- Node16 -->
<g id="node16" class="node"><title>Node16</title>
<g id="a_node16"><a doxygen="/opt/openrobots/share/doc/dynamic-graph/doxygen-html/dynamic-graph.doxytag:../../../../../../opt/openrobots/share/doc/dynamic-graph/doxygen-html/" xlink:href="../../../../../../opt/openrobots/share/doc/dynamic-graph/doxygen-html/a00084.html" target="_top" xlink:title="dynamic&#45;graph/linear\l&#45;algebra.h">
<polygon fill="white" stroke="black" points="741.5,-257.5 741.5,-287.5 848.5,-287.5 848.5,-257.5 741.5,-257.5"/>
<text text-anchor="start" x="749.5" y="-275.5" font-family="Helvetica,sans-Serif" font-size="10.00">dynamic&#45;graph/linear</text>
<text text-anchor="middle" x="795" y="-264.5" font-family="Helvetica,sans-Serif" font-size="10.00">&#45;algebra.h</text>
</a>
</g>
</g>
<!-- Node1&#45;&gt;Node16 -->
<g id="edge37" class="edge"><title>Node1&#45;&gt;Node16</title>
<path fill="none" stroke="midnightblue" d="M753.609,-447.27C758.131,-438.371 764.924,-424.058 769,-411 781.078,-372.305 788.457,-325.641 792.131,-297.833"/>
<polygon fill="midnightblue" stroke="midnightblue" points="795.615,-298.179 793.401,-287.818 788.671,-297.298 795.615,-298.179"/>
</g>
<!-- Node17 -->
<g id="node17" class="node"><title>Node17</title>
<g id="a_node17"><a doxygen="/opt/openrobots/share/doc/dynamic-graph/doxygen-html/dynamic-graph.doxytag:../../../../../../opt/openrobots/share/doc/dynamic-graph/doxygen-html/" xlink:href="../../../../../../opt/openrobots/share/doc/dynamic-graph/doxygen-html/a00087.html" target="_top" xlink:title="dynamic&#45;graph/pool.h">
<polygon fill="white" stroke="black" points="159,-330 159,-349 269,-349 269,-330 159,-330"/>
<text text-anchor="middle" x="214" y="-337" font-family="Helvetica,sans-Serif" font-size="10.00">dynamic&#45;graph/pool.h</text>
</a>
</g>
</g>
<!-- Node1&#45;&gt;Node17 -->
<g id="edge32" class="edge"><title>Node1&#45;&gt;Node17</title>
<path fill="none" stroke="midnightblue" d="M714.805,-454.436C651.03,-450.91 509.983,-440.229 395,-411 338.629,-396.67 276.058,-369.648 241.228,-353.541"/>
<polygon fill="midnightblue" stroke="midnightblue" points="242.299,-350.178 231.757,-349.113 239.334,-356.519 242.299,-350.178"/>
</g>
<!-- Node18 -->
<g id="node18" class="node"><title>Node18</title>
<g id="a_node18"><a xlink:href="a00010.html" target="_top" xlink:title="convert&#45;dg&#45;to&#45;py.hh">
<polygon fill="white" stroke="black" points="659.5,-391.5 659.5,-410.5 760.5,-410.5 760.5,-391.5 659.5,-391.5"/>
<text text-anchor="middle" x="710" y="-398.5" font-family="Helvetica,sans-Serif" font-size="10.00">convert&#45;dg&#45;to&#45;py.hh</text>
</a>
</g>
</g>
<!-- Node1&#45;&gt;Node18 -->
<g id="edge38" class="edge"><title>Node1&#45;&gt;Node18</title>
<path fill="none" stroke="midnightblue" d="M742.56,-447.083C737.051,-439.455 728.969,-428.264 722.235,-418.941"/>
<polygon fill="midnightblue" stroke="midnightblue" points="725.013,-416.809 716.32,-410.751 719.338,-420.907 725.013,-416.809"/>
</g>
<!-- Node21 -->
<g id="node21" class="node"><title>Node21</title>
<g id="a_node21"><a xlink:href="a00016.html" target="_top" xlink:title="exception.hh">
<polygon fill="white" stroke="black" points="1079,-391.5 1079,-410.5 1151,-410.5 1151,-391.5 1079,-391.5"/>
<text text-anchor="middle" x="1115" y="-398.5" font-family="Helvetica,sans-Serif" font-size="10.00">exception.hh</text>
</a>
</g>
</g>
<!-- Node1&#45;&gt;Node21 -->
<g id="edge46" class="edge"><title>Node1&#45;&gt;Node21</title>
<path fill="none" stroke="midnightblue" d="M783.306,-451.856C840.41,-444.813 958.777,-429.604 1068.75,-411.133"/>
<polygon fill="midnightblue" stroke="midnightblue" points="1069.41,-414.571 1078.68,-409.451 1068.24,-407.669 1069.41,-414.571"/>
</g>
<!-- Node5 -->
<g id="node5" class="node"><title>Node5</title>
<g id="a_node5"><a doxygen="/opt/openrobots/share/doc/dynamic-graph/doxygen-html/dynamic-graph.doxytag:../../../../../../opt/openrobots/share/doc/dynamic-graph/doxygen-html/" xlink:href="../../../../../../opt/openrobots/share/doc/dynamic-graph/doxygen-html/a00082.html" target="_top" xlink:title="dynamic&#45;graph/fwd.hh">
<polygon fill="white" stroke="black" points="76.5,-62 76.5,-81 189.5,-81 189.5,-62 76.5,-62"/>
<text text-anchor="middle" x="133" y="-69" font-family="Helvetica,sans-Serif" font-size="10.00">dynamic&#45;graph/fwd.hh</text>
</a>
</g>
</g>
<!-- Node4&#45;&gt;Node5 -->
<g id="edge4" class="edge"><title>Node4&#45;&gt;Node5</title>
<path fill="none" stroke="midnightblue" d="M403.955,-396.321C279.872,-386.863 0,-356.349 0,-273.5 0,-273.5 0,-273.5 0,-204.5 0,-146.468 64.577,-105.219 103.735,-85.5408"/>
<polygon fill="midnightblue" stroke="midnightblue" points="105.618,-88.5179 113.089,-81.0055 102.563,-82.2193 105.618,-88.5179"/>
</g>
<!-- Node6 -->
<g id="node6" class="node"><title>Node6</title>
<g id="a_node6"><a doxygen="/opt/openrobots/share/doc/dynamic-graph/doxygen-html/dynamic-graph.doxytag:../../../../../../opt/openrobots/share/doc/dynamic-graph/doxygen-html/" xlink:href="../../../../../../opt/openrobots/share/doc/dynamic-graph/doxygen-html/a00073.html" target="_top" xlink:title="dynamic&#45;graph/dynamic\l&#45;graph&#45;api.h">
<polygon fill="white" stroke="black" points="464,-56.5 464,-86.5 584,-86.5 584,-56.5 464,-56.5"/>
<text text-anchor="start" x="472" y="-74.5" font-family="Helvetica,sans-Serif" font-size="10.00">dynamic&#45;graph/dynamic</text>
<text text-anchor="middle" x="524" y="-63.5" font-family="Helvetica,sans-Serif" font-size="10.00">&#45;graph&#45;api.h</text>
</a>
</g>
</g>
<!-- Node4&#45;&gt;Node6 -->
<g id="edge5" class="edge"><title>Node4&#45;&gt;Node6</title>
<path fill="none" stroke="midnightblue" d="M496.268,-391.387C518.427,-384.455 546.798,-372.872 567,-355 618.613,-309.341 627.047,-287.531 645,-221 656.517,-178.321 655.921,-157.273 628,-123 616.341,-108.688 599.636,-98.1421 583.016,-90.5028"/>
<polygon fill="midnightblue" stroke="midnightblue" points="584.394,-87.2853 573.824,-86.5524 581.63,-93.7166 584.394,-87.2853"/>
</g>
<!-- Node8 -->
<g id="node8" class="node"><title>Node8</title>
<g id="a_node8"><a doxygen="/opt/openrobots/share/doc/dynamic-graph/doxygen-html/dynamic-graph.doxytag:../../../../../../opt/openrobots/share/doc/dynamic-graph/doxygen-html/" xlink:href="../../../../../../opt/openrobots/share/doc/dynamic-graph/doxygen-html/a00078.html" target="_top" xlink:title="dynamic&#45;graph/exception\l&#45;factory.h">
<polygon fill="white" stroke="black" points="142.5,-190.5 142.5,-220.5 267.5,-220.5 267.5,-190.5 142.5,-190.5"/>
<text text-anchor="start" x="150.5" y="-208.5" font-family="Helvetica,sans-Serif" font-size="10.00">dynamic&#45;graph/exception</text>
<text text-anchor="middle" x="205" y="-197.5" font-family="Helvetica,sans-Serif" font-size="10.00">&#45;factory.h</text>
</a>
</g>
</g>
<!-- Node4&#45;&gt;Node8 -->
<g id="edge7" class="edge"><title>Node4&#45;&gt;Node8</title>
<path fill="none" stroke="midnightblue" d="M450.625,-391.436C412.358,-362.624 287.576,-268.673 232.059,-226.873"/>
<polygon fill="midnightblue" stroke="midnightblue" points="233.861,-223.849 223.767,-220.63 229.65,-229.441 233.861,-223.849"/>
</g>
<!-- Node10 -->
<g id="node10" class="node"><title>Node10</title>
<g id="a_node10"><a doxygen="/opt/openrobots/share/doc/dynamic-graph/doxygen-html/dynamic-graph.doxytag:../../../../../../opt/openrobots/share/doc/dynamic-graph/doxygen-html/" xlink:href="../../../../../../opt/openrobots/share/doc/dynamic-graph/doxygen-html/a00089.html" target="_top" xlink:title="dynamic&#45;graph/signal\l&#45;array.h">
<polygon fill="white" stroke="black" points="449.5,-324.5 449.5,-354.5 558.5,-354.5 558.5,-324.5 449.5,-324.5"/>
<text text-anchor="start" x="457.5" y="-342.5" font-family="Helvetica,sans-Serif" font-size="10.00">dynamic&#45;graph/signal</text>
<text text-anchor="middle" x="504" y="-331.5" font-family="Helvetica,sans-Serif" font-size="10.00">&#45;array.h</text>
</a>
</g>
</g>
<!-- Node4&#45;&gt;Node10 -->
<g id="edge13" class="edge"><title>Node4&#45;&gt;Node10</title>
<path fill="none" stroke="midnightblue" d="M468.018,-391.475C473.281,-384.019 481.163,-372.852 488.21,-362.869"/>
<polygon fill="midnightblue" stroke="midnightblue" points="491.194,-364.711 494.101,-354.523 485.475,-360.674 491.194,-364.711"/>
</g>
<!-- Node11 -->
<g id="node11" class="node"><title>Node11</title>
<g id="a_node11"><a doxygen="/opt/openrobots/share/doc/dynamic-graph/doxygen-html/dynamic-graph.doxytag:../../../../../../opt/openrobots/share/doc/dynamic-graph/doxygen-html/" xlink:href="../../../../../../opt/openrobots/share/doc/dynamic-graph/doxygen-html/a00090.html" target="_top" xlink:title="dynamic&#45;graph/signal\l&#45;base.h">
<polygon fill="white" stroke="black" points="366.5,-257.5 366.5,-287.5 475.5,-287.5 475.5,-257.5 366.5,-257.5"/>
<text text-anchor="start" x="374.5" y="-275.5" font-family="Helvetica,sans-Serif" font-size="10.00">dynamic&#45;graph/signal</text>
<text text-anchor="middle" x="421" y="-264.5" font-family="Helvetica,sans-Serif" font-size="10.00">&#45;base.h</text>
</a>
</g>
</g>
<!-- Node4&#45;&gt;Node11 -->
<g id="edge21" class="edge"><title>Node4&#45;&gt;Node11</title>
<path fill="none" stroke="midnightblue" d="M457.007,-391.292C452.092,-382.41 444.665,-368.109 440,-355 433.287,-336.136 428.296,-313.964 425.118,-297.512"/>
<polygon fill="midnightblue" stroke="midnightblue" points="428.548,-296.817 423.291,-287.618 421.665,-298.088 428.548,-296.817"/>
</g>
<!-- Node7 -->
<g id="node7" class="node"><title>Node7</title>
<g id="a_node7"><a doxygen="/opt/openrobots/share/doc/dynamic-graph/doxygen-html/dynamic-graph.doxytag:../../../../../../opt/openrobots/share/doc/dynamic-graph/doxygen-html/" xlink:href="../../../../../../opt/openrobots/share/doc/dynamic-graph/doxygen-html/a00068.html" target="_top" xlink:title="dynamic&#45;graph/config.hh">
<polygon fill="white" stroke="black" points="462.5,-0.5 462.5,-19.5 585.5,-19.5 585.5,-0.5 462.5,-0.5"/>
<text text-anchor="middle" x="524" y="-7.5" font-family="Helvetica,sans-Serif" font-size="10.00">dynamic&#45;graph/config.hh</text>
</a>
</g>
</g>
<!-- Node6&#45;&gt;Node7 -->
<g id="edge6" class="edge"><title>Node6&#45;&gt;Node7</title>
<path fill="none" stroke="midnightblue" d="M524,-56.3993C524,-48.4664 524,-38.458 524,-29.8583"/>
<polygon fill="midnightblue" stroke="midnightblue" points="527.5,-29.6577 524,-19.6578 520.5,-29.6578 527.5,-29.6577"/>
</g>
<!-- Node8&#45;&gt;Node5 -->
<g id="edge8" class="edge"><title>Node8&#45;&gt;Node5</title>
<path fill="none" stroke="midnightblue" d="M176.06,-190.343C162.023,-181.857 146.412,-169.654 138,-154 127.542,-134.538 127.964,-108.564 129.896,-91.2219"/>
<polygon fill="midnightblue" stroke="midnightblue" points="133.375,-91.6135 131.283,-81.2271 126.441,-90.6508 133.375,-91.6135"/>
</g>
<!-- Node8&#45;&gt;Node6 -->
<g id="edge9" class="edge"><title>Node8&#45;&gt;Node6</title>
<path fill="none" stroke="midnightblue" d="M214.821,-190.195C228.363,-171.64 254.575,-139.679 285,-123 337.273,-94.3437 404.199,-81.9314 453.926,-76.5642"/>
<polygon fill="midnightblue" stroke="midnightblue" points="454.351,-80.0392 463.948,-75.5522 453.647,-73.0746 454.351,-80.0392"/>
</g>
<!-- Node9 -->
<g id="node9" class="node"><title>Node9</title>
<g id="a_node9"><a doxygen="/opt/openrobots/share/doc/dynamic-graph/doxygen-html/dynamic-graph.doxytag:../../../../../../opt/openrobots/share/doc/dynamic-graph/doxygen-html/" xlink:href="../../../../../../opt/openrobots/share/doc/dynamic-graph/doxygen-html/a00077.html" target="_top" xlink:title="dynamic&#45;graph/exception\l&#45;abstract.h">
<polygon fill="white" stroke="black" points="294.5,-123.5 294.5,-153.5 419.5,-153.5 419.5,-123.5 294.5,-123.5"/>
<text text-anchor="start" x="302.5" y="-141.5" font-family="Helvetica,sans-Serif" font-size="10.00">dynamic&#45;graph/exception</text>
<text text-anchor="middle" x="357" y="-130.5" font-family="Helvetica,sans-Serif" font-size="10.00">&#45;abstract.h</text>
</a>
</g>
</g>
<!-- Node8&#45;&gt;Node9 -->
<g id="edge10" class="edge"><title>Node8&#45;&gt;Node9</title>
<path fill="none" stroke="midnightblue" d="M237.982,-190.396C260.489,-180.771 290.503,-167.936 314.759,-157.564"/>
<polygon fill="midnightblue" stroke="midnightblue" points="316.264,-160.727 324.083,-153.577 313.512,-154.29 316.264,-160.727"/>
</g>
<!-- Node9&#45;&gt;Node5 -->
<g id="edge11" class="edge"><title>Node9&#45;&gt;Node5</title>
<path fill="none" stroke="midnightblue" d="M308.671,-123.476C267.821,-111.622 210.05,-94.8583 172.072,-83.8379"/>
<polygon fill="midnightblue" stroke="midnightblue" points="172.97,-80.4542 162.391,-81.0287 171.019,-87.1769 172.97,-80.4542"/>
</g>
<!-- Node9&#45;&gt;Node6 -->
<g id="edge12" class="edge"><title>Node9&#45;&gt;Node6</title>
<path fill="none" stroke="midnightblue" d="M393.237,-123.396C418.184,-113.686 451.525,-100.709 478.296,-90.2889"/>
<polygon fill="midnightblue" stroke="midnightblue" points="479.785,-93.4654 487.834,-86.5765 477.246,-86.9421 479.785,-93.4654"/>
</g>
<!-- Node10&#45;&gt;Node6 -->
<g id="edge20" class="edge"><title>Node10&#45;&gt;Node6</title>
<path fill="none" stroke="midnightblue" d="M527.812,-324.434C557.517,-305.335 606.852,-268.11 627,-221 644.675,-179.671 630.148,-158.046 602,-123 591.807,-110.31 577.532,-99.7778 563.977,-91.6745"/>
<polygon fill="midnightblue" stroke="midnightblue" points="565.646,-88.5978 555.223,-86.7019 562.189,-94.6843 565.646,-88.5978"/>
</g>
<!-- Node10&#45;&gt;Node11 -->
<g id="edge14" class="edge"><title>Node10&#45;&gt;Node11</title>
<path fill="none" stroke="midnightblue" d="M485.99,-324.396C474.57,-315.452 459.611,-303.737 446.924,-293.802"/>
<polygon fill="midnightblue" stroke="midnightblue" points="449.006,-290.987 438.975,-287.577 444.69,-296.498 449.006,-290.987"/>
</g>
<!-- Node11&#45;&gt;Node5 -->
<g id="edge15" class="edge"><title>Node11&#45;&gt;Node5</title>
<path fill="none" stroke="midnightblue" d="M395.71,-257.438C349.414,-231.555 252.954,-176.922 222,-154 194.508,-133.642 165.88,-106.098 148.748,-88.8169"/>
<polygon fill="midnightblue" stroke="midnightblue" points="150.817,-85.9268 141.318,-81.2343 145.817,-90.8263 150.817,-85.9268"/>
</g>
<!-- Node12 -->
<g id="node12" class="node"><title>Node12</title>
<g id="a_node12"><a doxygen="/opt/openrobots/share/doc/dynamic-graph/doxygen-html/dynamic-graph.doxytag:../../../../../../opt/openrobots/share/doc/dynamic-graph/doxygen-html/" xlink:href="../../../../../../opt/openrobots/share/doc/dynamic-graph/doxygen-html/a00079.html" target="_top" xlink:title="dynamic&#45;graph/exception\l&#45;signal.h">
<polygon fill="white" stroke="black" points="362.5,-190.5 362.5,-220.5 487.5,-220.5 487.5,-190.5 362.5,-190.5"/>
<text text-anchor="start" x="370.5" y="-208.5" font-family="Helvetica,sans-Serif" font-size="10.00">dynamic&#45;graph/exception</text>
<text text-anchor="middle" x="425" y="-197.5" font-family="Helvetica,sans-Serif" font-size="10.00">&#45;signal.h</text>
</a>
</g>
</g>
<!-- Node11&#45;&gt;Node12 -->
<g id="edge16" class="edge"><title>Node11&#45;&gt;Node12</title>
<path fill="none" stroke="midnightblue" d="M421.868,-257.396C422.35,-249.56 422.963,-239.596 423.519,-230.565"/>
<polygon fill="midnightblue" stroke="midnightblue" points="427.013,-230.773 424.134,-220.577 420.026,-230.343 427.013,-230.773"/>
</g>
<!-- Node12&#45;&gt;Node5 -->
<g id="edge17" class="edge"><title>Node12&#45;&gt;Node5</title>
<path fill="none" stroke="midnightblue" d="M380.839,-190.415C352.952,-181.071 316.39,-167.987 285,-154 237.862,-132.996 185.301,-103.334 155.984,-86.1914"/>
<polygon fill="midnightblue" stroke="midnightblue" points="157.712,-83.1473 147.318,-81.0924 154.162,-89.1804 157.712,-83.1473"/>
</g>
<!-- Node12&#45;&gt;Node6 -->
<g id="edge18" class="edge"><title>Node12&#45;&gt;Node6</title>
<path fill="none" stroke="midnightblue" d="M435.595,-190.374C452.789,-167.448 486.901,-121.966 507.358,-94.6894"/>
<polygon fill="midnightblue" stroke="midnightblue" points="510.281,-96.6248 513.481,-86.5247 504.681,-92.4247 510.281,-96.6248"/>
</g>
<!-- Node12&#45;&gt;Node9 -->
<g id="edge19" class="edge"><title>Node12&#45;&gt;Node9</title>
<path fill="none" stroke="midnightblue" d="M410.245,-190.396C401.156,-181.708 389.331,-170.405 379.134,-160.658"/>
<polygon fill="midnightblue" stroke="midnightblue" points="381.373,-157.956 371.726,-153.577 376.537,-163.016 381.373,-157.956"/>
</g>
<!-- Node13&#45;&gt;Node5 -->
<g id="edge23" class="edge"><title>Node13&#45;&gt;Node5</title>
<path fill="none" stroke="midnightblue" d="M120.58,-262.749C113.929,-253.093 103.963,-236.816 100,-221 88.2239,-173.998 110.277,-118.094 123.718,-90.188"/>
<polygon fill="midnightblue" stroke="midnightblue" points="126.85,-91.7504 128.202,-81.2422 120.592,-88.6137 126.85,-91.7504"/>
</g>
<!-- Node13&#45;&gt;Node6 -->
<g id="edge25" class="edge"><title>Node13&#45;&gt;Node6</title>
<path fill="none" stroke="midnightblue" d="M125.24,-262.883C122.508,-247.124 118.915,-213.15 133,-190 162.556,-141.42 188.865,-143.254 242,-123 311.272,-96.5954 395.475,-83.8189 453.74,-77.7519"/>
<polygon fill="midnightblue" stroke="midnightblue" points="454.344,-81.2091 463.946,-76.7302 453.647,-74.2439 454.344,-81.2091"/>
</g>
<!-- Node13&#45;&gt;Node8 -->
<g id="edge24" class="edge"><title>Node13&#45;&gt;Node8</title>
<path fill="none" stroke="midnightblue" d="M137.519,-262.734C148.365,-253.696 165.671,-239.274 180.042,-227.298"/>
<polygon fill="midnightblue" stroke="midnightblue" points="182.652,-229.68 188.093,-220.589 178.17,-224.302 182.652,-229.68"/>
</g>
<!-- Node14&#45;&gt;Node6 -->
<g id="edge30" class="edge"><title>Node14&#45;&gt;Node6</title>
<path fill="none" stroke="midnightblue" d="M926.627,-391.389C936.958,-371.332 961,-319.694 961,-273.5 961,-273.5 961,-273.5 961,-204.5 961,-128.859 718.037,-92.6306 594.437,-79.0945"/>
<polygon fill="midnightblue" stroke="midnightblue" points="594.621,-75.5942 584.304,-78.0063 593.873,-82.5541 594.621,-75.5942"/>
</g>
<!-- Node14&#45;&gt;Node15 -->
<g id="edge27" class="edge"><title>Node14&#45;&gt;Node15</title>
<path fill="none" stroke="midnightblue" d="M915.266,-391.475C908.216,-382.55 896.965,-368.307 888.146,-357.143"/>
<polygon fill="midnightblue" stroke="midnightblue" points="890.667,-354.687 881.721,-349.009 885.174,-359.026 890.667,-354.687"/>
</g>
<!-- Node15&#45;&gt;Node6 -->
<g id="edge28" class="edge"><title>Node15&#45;&gt;Node6</title>
<path fill="none" stroke="midnightblue" d="M874.871,-329.99C874.274,-314.405 871.286,-280.704 857,-257 809.472,-178.139 780.148,-166.509 699,-123 666.546,-105.599 627.406,-93.5795 594.378,-85.646"/>
<polygon fill="midnightblue" stroke="midnightblue" points="594.871,-82.1674 584.338,-83.3137 593.287,-88.9858 594.871,-82.1674"/>
</g>
<!-- Node15&#45;&gt;Node16 -->
<g id="edge29" class="edge"><title>Node15&#45;&gt;Node16</title>
<path fill="none" stroke="midnightblue" d="M864.211,-329.734C852.983,-320.611 835.005,-306.004 820.185,-293.963"/>
<polygon fill="midnightblue" stroke="midnightblue" points="822.309,-291.179 812.34,-287.589 817.894,-296.611 822.309,-291.179"/>
</g>
<!-- Node17&#45;&gt;Node5 -->
<g id="edge33" class="edge"><title>Node17&#45;&gt;Node5</title>
<path fill="none" stroke="midnightblue" d="M158.742,-336.458C123.443,-331.934 80.1035,-319.701 57,-288 9.86131,-223.32 84.2168,-126.751 117.853,-88.7214"/>
<polygon fill="midnightblue" stroke="midnightblue" points="120.602,-90.9 124.716,-81.1365 115.411,-86.2035 120.602,-90.9"/>
</g>
<!-- Node17&#45;&gt;Node6 -->
<g id="edge36" class="edge"><title>Node17&#45;&gt;Node6</title>
<path fill="none" stroke="midnightblue" d="M220.318,-329.736C238.504,-305.009 293.493,-233.659 353,-190 382.811,-168.128 397.347,-174.675 428,-154 444.953,-142.565 446.511,-136.351 462,-123 473.647,-112.96 486.823,-102.154 498.023,-93.1248"/>
<polygon fill="midnightblue" stroke="midnightblue" points="500.536,-95.5962 506.145,-86.6083 496.155,-90.1363 500.536,-95.5962"/>
</g>
<!-- Node17&#45;&gt;Node8 -->
<g id="edge34" class="edge"><title>Node17&#45;&gt;Node8</title>
<path fill="none" stroke="midnightblue" d="M213.409,-329.839C212.058,-310.019 208.7,-260.769 206.66,-230.844"/>
<polygon fill="midnightblue" stroke="midnightblue" points="210.146,-230.522 205.974,-220.783 203.162,-230.998 210.146,-230.522"/>
</g>
<!-- Node17&#45;&gt;Node11 -->
<g id="edge35" class="edge"><title>Node17&#45;&gt;Node11</title>
<path fill="none" stroke="midnightblue" d="M241.488,-329.869C273.289,-319.883 326.426,-303.197 366.657,-290.564"/>
<polygon fill="midnightblue" stroke="midnightblue" points="367.834,-293.863 376.326,-287.528 365.737,-287.185 367.834,-293.863"/>
</g>
<!-- Node18&#45;&gt;Node2 -->
<g id="edge39" class="edge"><title>Node18&#45;&gt;Node2</title>
<path fill="none" stroke="midnightblue" d="M702.406,-391.475C694.299,-382.373 681.265,-367.741 671.237,-356.483"/>
<polygon fill="midnightblue" stroke="midnightblue" points="673.844,-354.148 664.58,-349.009 668.617,-358.804 673.844,-354.148"/>
</g>
<!-- Node18&#45;&gt;Node15 -->
<g id="edge41" class="edge"><title>Node18&#45;&gt;Node15</title>
<path fill="none" stroke="midnightblue" d="M733.64,-391.475C761.944,-381.269 809.533,-364.108 841.586,-352.549"/>
<polygon fill="midnightblue" stroke="midnightblue" points="843.184,-355.694 851.403,-349.009 840.809,-349.109 843.184,-355.694"/>
</g>
<!-- Node18&#45;&gt;Node16 -->
<g id="edge40" class="edge"><title>Node18&#45;&gt;Node16</title>
<path fill="none" stroke="midnightblue" d="M715.842,-391.305C728.839,-371.963 760.499,-324.846 779.608,-296.406"/>
<polygon fill="midnightblue" stroke="midnightblue" points="782.66,-298.14 785.332,-287.888 776.85,-294.236 782.66,-298.14"/>
</g>
<!-- Node19 -->
<g id="node19" class="node"><title>Node19</title>
<g id="a_node19"><a xlink:href="a00015.html" target="_top" xlink:title="dynamic&#45;graph/python\l/exception&#45;python.hh">
<polygon fill="white" stroke="black" points="505.5,-190.5 505.5,-220.5 618.5,-220.5 618.5,-190.5 505.5,-190.5"/>
<text text-anchor="start" x="513.5" y="-208.5" font-family="Helvetica,sans-Serif" font-size="10.00">dynamic&#45;graph/python</text>
<text text-anchor="middle" x="562" y="-197.5" font-family="Helvetica,sans-Serif" font-size="10.00">/exception&#45;python.hh</text>
</a>
</g>
</g>
<!-- Node18&#45;&gt;Node19 -->
<g id="edge42" class="edge"><title>Node18&#45;&gt;Node19</title>
<path fill="none" stroke="midnightblue" d="M709.905,-391.404C709.384,-376.637 706.716,-345.929 694,-324 669.557,-281.846 624.637,-246.772 594.055,-226.217"/>
<polygon fill="midnightblue" stroke="midnightblue" points="595.73,-223.13 585.452,-220.562 591.885,-228.979 595.73,-223.13"/>
</g>
<!-- Node19&#45;&gt;Node5 -->
<g id="edge44" class="edge"><title>Node19&#45;&gt;Node5</title>
<path fill="none" stroke="midnightblue" d="M543.648,-190.2C518.86,-171.651 472.63,-139.696 428,-123 352.782,-94.8604 260.859,-82.2915 199.82,-76.7488"/>
<polygon fill="midnightblue" stroke="midnightblue" points="199.811,-73.235 189.546,-75.8558 199.205,-80.2087 199.811,-73.235"/>
</g>
<!-- Node19&#45;&gt;Node9 -->
<g id="edge45" class="edge"><title>Node19&#45;&gt;Node9</title>
<path fill="none" stroke="midnightblue" d="M517.77,-190.476C486.489,-180.557 444.365,-167.201 411.082,-156.648"/>
<polygon fill="midnightblue" stroke="midnightblue" points="412.094,-153.297 401.504,-153.611 409.978,-159.97 412.094,-153.297"/>
</g>
<!-- Node20 -->
<g id="node20" class="node"><title>Node20</title>
<polygon fill="white" stroke="#bfbfbf" points="552.5,-129 552.5,-148 593.5,-148 593.5,-129 552.5,-129"/>
<text text-anchor="middle" x="573" y="-136" font-family="Helvetica,sans-Serif" font-size="10.00">string</text>
</g>
<!-- Node19&#45;&gt;Node20 -->
<g id="edge43" class="edge"><title>Node19&#45;&gt;Node20</title>
<path fill="none" stroke="midnightblue" d="M564.387,-190.396C565.983,-180.963 568.101,-168.448 569.837,-158.189"/>
<polygon fill="midnightblue" stroke="midnightblue" points="573.311,-158.638 571.529,-148.195 566.409,-157.47 573.311,-158.638"/>
</g>
</g>
</svg>
