<?xml version="1.0" encoding="UTF-8" standalone="no"?>
<!DOCTYPE svg PUBLIC "-//W3C//DTD SVG 1.1//EN"
 "http://www.w3.org/Graphics/SVG/1.1/DTD/svg11.dtd">
<!-- Generated by graphviz version 2.38.0 (20140413.2041)
 -->
<!-- Title: api.hh Pages: 1 -->
<svg width="174pt" height="140pt"
 viewBox="0.00 0.00 173.50 140.00" xmlns="http://www.w3.org/2000/svg" xmlns:xlink="http://www.w3.org/1999/xlink">
<g id="graph0" class="graph" transform="scale(1 1) rotate(0) translate(4 136)">
<title>api.hh</title>
<polygon fill="white" stroke="none" points="-4,4 -4,-136 169.5,-136 169.5,4 -4,4"/>
<!-- Node1 -->
<g id="node1" class="node"><title>Node1</title>
<polygon fill="#bfbfbf" stroke="black" points="61,-112.5 61,-131.5 104,-131.5 104,-112.5 61,-112.5"/>
<text text-anchor="middle" x="82.5" y="-119.5" font-family="Helvetica,sans-Serif" font-size="10.00">api.hh</text>
</g>
<!-- Node2 -->
<g id="node2" class="node"><title>Node2</title>
<g id="a_node2"><a xlink:href="a00015.html" target="_top" xlink:title="interpreter.hh">
<polygon fill="white" stroke="black" points="45.5,-56.5 45.5,-75.5 119.5,-75.5 119.5,-56.5 45.5,-56.5"/>
<text text-anchor="middle" x="82.5" y="-63.5" font-family="Helvetica,sans-Serif" font-size="10.00">interpreter.hh</text>
</a>
</g>
</g>
<!-- Node1&#45;&gt;Node2 -->
<g id="edge1" class="edge"><title>Node1&#45;&gt;Node2</title>
<path fill="none" stroke="midnightblue" d="M82.5,-101.805C82.5,-92.9102 82.5,-82.7798 82.5,-75.7511"/>
<polygon fill="midnightblue" stroke="midnightblue" points="79.0001,-102.083 82.5,-112.083 86.0001,-102.083 79.0001,-102.083"/>
</g>
<!-- Node3 -->
<g id="node3" class="node"><title>Node3</title>
<g id="a_node3"><a xlink:href="a00007.html" target="_top" xlink:title="dg&#45;python.cc">
<polygon fill="white" stroke="black" points="0,-0.5 0,-19.5 73,-19.5 73,-0.5 0,-0.5"/>
<text text-anchor="middle" x="36.5" y="-7.5" font-family="Helvetica,sans-Serif" font-size="10.00">dg&#45;python.cc</text>
</a>
</g>
</g>
<!-- Node2&#45;&gt;Node3 -->
<g id="edge2" class="edge"><title>Node2&#45;&gt;Node3</title>
<path fill="none" stroke="midnightblue" d="M68.386,-48.4314C60.324,-38.9673 50.5408,-27.4827 43.9546,-19.7511"/>
<polygon fill="midnightblue" stroke="midnightblue" points="65.755,-50.7402 74.904,-56.083 71.0837,-46.2009 65.755,-50.7402"/>
</g>
<!-- Node4 -->
<g id="node4" class="node"><title>Node4</title>
<g id="a_node4"><a xlink:href="a00014.html" target="_top" xlink:title="interpreter.cc">
<polygon fill="white" stroke="black" points="91.5,-0.5 91.5,-19.5 165.5,-19.5 165.5,-0.5 91.5,-0.5"/>
<text text-anchor="middle" x="128.5" y="-7.5" font-family="Helvetica,sans-Serif" font-size="10.00">interpreter.cc</text>
</a>
</g>
</g>
<!-- Node2&#45;&gt;Node4 -->
<g id="edge3" class="edge"><title>Node2&#45;&gt;Node4</title>
<path fill="none" stroke="midnightblue" d="M96.614,-48.4314C104.676,-38.9673 114.459,-27.4827 121.045,-19.7511"/>
<polygon fill="midnightblue" stroke="midnightblue" points="93.9163,-46.2009 90.096,-56.083 99.245,-50.7402 93.9163,-46.2009"/>
</g>
</g>
</svg>
