<?xml version="1.0" encoding="UTF-8" standalone="no"?>
<!DOCTYPE svg PUBLIC "-//W3C//DTD SVG 1.1//EN"
 "http://www.w3.org/Graphics/SVG/1.1/DTD/svg11.dtd">
<!-- Generated by graphviz version 2.38.0 (20140413.2041)
 -->
<!-- Title: convert&#45;dg&#45;to&#45;py.hh Pages: 1 -->
<svg width="307pt" height="84pt"
 viewBox="0.00 0.00 307.00 84.00" xmlns="http://www.w3.org/2000/svg" xmlns:xlink="http://www.w3.org/1999/xlink">
<g id="graph0" class="graph" transform="scale(1 1) rotate(0) translate(4 80)">
<title>convert&#45;dg&#45;to&#45;py.hh</title>
<polygon fill="white" stroke="none" points="-4,4 -4,-80 303,-80 303,4 -4,4"/>
<!-- Node1 -->
<g id="node1" class="node"><title>Node1</title>
<polygon fill="#bfbfbf" stroke="black" points="103,-56.5 103,-75.5 204,-75.5 204,-56.5 103,-56.5"/>
<text text-anchor="middle" x="153.5" y="-63.5" font-family="Helvetica,sans-Serif" font-size="10.00">convert&#45;dg&#45;to&#45;py.hh</text>
</g>
<!-- Node2 -->
<g id="node2" class="node"><title>Node2</title>
<g id="a_node2"><a xlink:href="a00009.html" target="_top" xlink:title="convert&#45;dg&#45;to&#45;py.cc">
<polygon fill="white" stroke="black" points="0,-0.5 0,-19.5 101,-19.5 101,-0.5 0,-0.5"/>
<text text-anchor="middle" x="50.5" y="-7.5" font-family="Helvetica,sans-Serif" font-size="10.00">convert&#45;dg&#45;to&#45;py.cc</text>
</a>
</g>
</g>
<!-- Node1&#45;&gt;Node2 -->
<g id="edge1" class="edge"><title>Node1&#45;&gt;Node2</title>
<path fill="none" stroke="midnightblue" d="M127.921,-51.5895C108.877,-41.6052 83.4356,-28.2672 67.0077,-19.6545"/>
<polygon fill="midnightblue" stroke="midnightblue" points="126.469,-54.7805 136.951,-56.324 129.72,-48.5808 126.469,-54.7805"/>
</g>
<!-- Node3 -->
<g id="node3" class="node"><title>Node3</title>
<g id="a_node3"><a xlink:href="a00013.html" target="_top" xlink:title="entity&#45;py.cc">
<polygon fill="white" stroke="black" points="119.5,-0.5 119.5,-19.5 187.5,-19.5 187.5,-0.5 119.5,-0.5"/>
<text text-anchor="middle" x="153.5" y="-7.5" font-family="Helvetica,sans-Serif" font-size="10.00">entity&#45;py.cc</text>
</a>
</g>
</g>
<!-- Node1&#45;&gt;Node3 -->
<g id="edge2" class="edge"><title>Node1&#45;&gt;Node3</title>
<path fill="none" stroke="midnightblue" d="M153.5,-45.8045C153.5,-36.9102 153.5,-26.7798 153.5,-19.7511"/>
<polygon fill="midnightblue" stroke="midnightblue" points="150,-46.083 153.5,-56.083 157,-46.083 150,-46.083"/>
</g>
<!-- Node4 -->
<g id="node4" class="node"><title>Node4</title>
<g id="a_node4"><a xlink:href="a00021.html" target="_top" xlink:title="signal&#45;base&#45;py.cc">
<polygon fill="white" stroke="black" points="206,-0.5 206,-19.5 299,-19.5 299,-0.5 206,-0.5"/>
<text text-anchor="middle" x="252.5" y="-7.5" font-family="Helvetica,sans-Serif" font-size="10.00">signal&#45;base&#45;py.cc</text>
</a>
</g>
</g>
<!-- Node1&#45;&gt;Node4 -->
<g id="edge3" class="edge"><title>Node1&#45;&gt;Node4</title>
<path fill="none" stroke="midnightblue" d="M178.337,-51.4526C196.614,-41.4835 220.916,-28.2279 236.633,-19.6545"/>
<polygon fill="midnightblue" stroke="midnightblue" points="176.509,-48.4628 169.406,-56.324 179.861,-54.608 176.509,-48.4628"/>
</g>
</g>
</svg>
