<?xml version="1.0" encoding="UTF-8" standalone="no"?>
<!DOCTYPE svg PUBLIC "-//W3C//DTD SVG 1.1//EN"
 "http://www.w3.org/Graphics/SVG/1.1/DTD/svg11.dtd">
<!-- Generated by graphviz version 2.38.0 (20140413.2041)
 -->
<!-- Title: pool&#45;py.cc Pages: 1 -->
<svg width="349pt" height="408pt"
 viewBox="0.00 0.00 348.78 408.00" xmlns="http://www.w3.org/2000/svg" xmlns:xlink="http://www.w3.org/1999/xlink">
<g id="graph0" class="graph" transform="scale(1 1) rotate(0) translate(4 404)">
<title>pool&#45;py.cc</title>
<polygon fill="white" stroke="none" points="-4,4 -4,-404 344.778,-404 344.778,4 -4,4"/>
<!-- Node1 -->
<g id="node1" class="node"><title>Node1</title>
<polygon fill="#bfbfbf" stroke="black" points="144.5,-380.5 144.5,-399.5 206.5,-399.5 206.5,-380.5 144.5,-380.5"/>
<text text-anchor="middle" x="175.5" y="-387.5" font-family="Helvetica,sans-Serif" font-size="10.00">pool&#45;py.cc</text>
</g>
<!-- Node2 -->
<g id="node2" class="node"><title>Node2</title>
<polygon fill="white" stroke="#bfbfbf" points="46.5,-324.5 46.5,-343.5 102.5,-343.5 102.5,-324.5 46.5,-324.5"/>
<text text-anchor="middle" x="74.5" y="-331.5" font-family="Helvetica,sans-Serif" font-size="10.00">Python.h</text>
</g>
<!-- Node1&#45;&gt;Node2 -->
<g id="edge1" class="edge"><title>Node1&#45;&gt;Node2</title>
<path fill="none" stroke="midnightblue" d="M159.273,-380.324C143.149,-371.703 118.2,-358.364 99.5359,-348.386"/>
<polygon fill="midnightblue" stroke="midnightblue" points="101.156,-345.283 90.6871,-343.655 97.8556,-351.456 101.156,-345.283"/>
</g>
<!-- Node3 -->
<g id="node3" class="node"><title>Node3</title>
<g id="a_node3"><a doxygen="/opt/openrobots/share/doc/dynamic-graph/doxygen-html/dynamic-graph.doxytag:../../../../../../opt/openrobots/share/doc/dynamic-graph/doxygen-html/" xlink:href="../../../../../../opt/openrobots/share/doc/dynamic-graph/doxygen-html/a00087.html" target="_top" xlink:title="dynamic&#45;graph/pool.h">
<polygon fill="white" stroke="black" points="120.5,-324.5 120.5,-343.5 230.5,-343.5 230.5,-324.5 120.5,-324.5"/>
<text text-anchor="middle" x="175.5" y="-331.5" font-family="Helvetica,sans-Serif" font-size="10.00">dynamic&#45;graph/pool.h</text>
</a>
</g>
</g>
<!-- Node1&#45;&gt;Node3 -->
<g id="edge2" class="edge"><title>Node1&#45;&gt;Node3</title>
<path fill="none" stroke="midnightblue" d="M175.5,-380.083C175.5,-373.006 175.5,-362.861 175.5,-353.986"/>
<polygon fill="midnightblue" stroke="midnightblue" points="179,-353.751 175.5,-343.751 172,-353.751 179,-353.751"/>
</g>
<!-- Node11 -->
<g id="node11" class="node"><title>Node11</title>
<g id="a_node11"><a xlink:href="a00016.html" target="_top" xlink:title="exception.hh">
<polygon fill="white" stroke="black" points="248.5,-324.5 248.5,-343.5 320.5,-343.5 320.5,-324.5 248.5,-324.5"/>
<text text-anchor="middle" x="284.5" y="-331.5" font-family="Helvetica,sans-Serif" font-size="10.00">exception.hh</text>
</a>
</g>
</g>
<!-- Node1&#45;&gt;Node11 -->
<g id="edge18" class="edge"><title>Node1&#45;&gt;Node11</title>
<path fill="none" stroke="midnightblue" d="M193.013,-380.324C210.572,-371.625 237.831,-358.12 258.031,-348.113"/>
<polygon fill="midnightblue" stroke="midnightblue" points="259.624,-351.23 267.031,-343.655 256.516,-344.958 259.624,-351.23"/>
</g>
<!-- Node4 -->
<g id="node4" class="node"><title>Node4</title>
<g id="a_node4"><a doxygen="/opt/openrobots/share/doc/dynamic-graph/doxygen-html/dynamic-graph.doxytag:../../../../../../opt/openrobots/share/doc/dynamic-graph/doxygen-html/" xlink:href="../../../../../../opt/openrobots/share/doc/dynamic-graph/doxygen-html/a00082.html" target="_top" xlink:title="dynamic&#45;graph/fwd.hh">
<polygon fill="white" stroke="black" points="0,-62 0,-81 113,-81 113,-62 0,-62"/>
<text text-anchor="middle" x="56.5" y="-69" font-family="Helvetica,sans-Serif" font-size="10.00">dynamic&#45;graph/fwd.hh</text>
</a>
</g>
</g>
<!-- Node3&#45;&gt;Node4 -->
<g id="edge3" class="edge"><title>Node3&#45;&gt;Node4</title>
<path fill="none" stroke="midnightblue" d="M123.185,-324.43C99.3764,-318.055 72.551,-307.021 54.5,-288 3.57277,-234.336 16.2231,-195.17 32.5,-123 35.1312,-111.334 40.7885,-99.1999 45.9498,-89.7508"/>
<polygon fill="midnightblue" stroke="midnightblue" points="49.0291,-91.4175 51.0013,-81.0078 42.968,-87.9155 49.0291,-91.4175"/>
</g>
<!-- Node5 -->
<g id="node5" class="node"><title>Node5</title>
<g id="a_node5"><a doxygen="/opt/openrobots/share/doc/dynamic-graph/doxygen-html/dynamic-graph.doxytag:../../../../../../opt/openrobots/share/doc/dynamic-graph/doxygen-html/" xlink:href="../../../../../../opt/openrobots/share/doc/dynamic-graph/doxygen-html/a00078.html" target="_top" xlink:title="dynamic&#45;graph/exception\l&#45;factory.h">
<polygon fill="white" stroke="black" points="199,-190.5 199,-220.5 324,-220.5 324,-190.5 199,-190.5"/>
<text text-anchor="start" x="207" y="-208.5" font-family="Helvetica,sans-Serif" font-size="10.00">dynamic&#45;graph/exception</text>
<text text-anchor="middle" x="261.5" y="-197.5" font-family="Helvetica,sans-Serif" font-size="10.00">&#45;factory.h</text>
</a>
</g>
</g>
<!-- Node3&#45;&gt;Node5 -->
<g id="edge4" class="edge"><title>Node3&#45;&gt;Node5</title>
<path fill="none" stroke="midnightblue" d="M181.411,-324.305C194.56,-304.963 226.593,-257.846 245.927,-229.406"/>
<polygon fill="midnightblue" stroke="midnightblue" points="248.991,-231.126 251.718,-220.888 243.202,-227.19 248.991,-231.126"/>
</g>
<!-- Node6 -->
<g id="node6" class="node"><title>Node6</title>
<g id="a_node6"><a doxygen="/opt/openrobots/share/doc/dynamic-graph/doxygen-html/dynamic-graph.doxytag:../../../../../../opt/openrobots/share/doc/dynamic-graph/doxygen-html/" xlink:href="../../../../../../opt/openrobots/share/doc/dynamic-graph/doxygen-html/a00073.html" target="_top" xlink:title="dynamic&#45;graph/dynamic\l&#45;graph&#45;api.h">
<polygon fill="white" stroke="black" points="216.5,-56.5 216.5,-86.5 336.5,-86.5 336.5,-56.5 216.5,-56.5"/>
<text text-anchor="start" x="224.5" y="-74.5" font-family="Helvetica,sans-Serif" font-size="10.00">dynamic&#45;graph/dynamic</text>
<text text-anchor="middle" x="276.5" y="-63.5" font-family="Helvetica,sans-Serif" font-size="10.00">&#45;graph&#45;api.h</text>
</a>
</g>
</g>
<!-- Node3&#45;&gt;Node6 -->
<g id="edge17" class="edge"><title>Node3&#45;&gt;Node6</title>
<path fill="none" stroke="midnightblue" d="M199.223,-324.447C235.897,-309.774 305.092,-275.959 333.5,-221 355.754,-177.947 320.707,-124.132 296.465,-94.5452"/>
<polygon fill="midnightblue" stroke="midnightblue" points="299.103,-92.2439 289.971,-86.8717 293.76,-96.766 299.103,-92.2439"/>
</g>
<!-- Node9 -->
<g id="node9" class="node"><title>Node9</title>
<g id="a_node9"><a doxygen="/opt/openrobots/share/doc/dynamic-graph/doxygen-html/dynamic-graph.doxytag:../../../../../../opt/openrobots/share/doc/dynamic-graph/doxygen-html/" xlink:href="../../../../../../opt/openrobots/share/doc/dynamic-graph/doxygen-html/a00090.html" target="_top" xlink:title="dynamic&#45;graph/signal\l&#45;base.h">
<polygon fill="white" stroke="black" points="64,-257.5 64,-287.5 173,-287.5 173,-257.5 64,-257.5"/>
<text text-anchor="start" x="72" y="-275.5" font-family="Helvetica,sans-Serif" font-size="10.00">dynamic&#45;graph/signal</text>
<text text-anchor="middle" x="118.5" y="-264.5" font-family="Helvetica,sans-Serif" font-size="10.00">&#45;base.h</text>
</a>
</g>
</g>
<!-- Node3&#45;&gt;Node9 -->
<g id="edge11" class="edge"><title>Node3&#45;&gt;Node9</title>
<path fill="none" stroke="midnightblue" d="M167.333,-324.475C159.974,-316.793 148.841,-305.172 139.062,-294.964"/>
<polygon fill="midnightblue" stroke="midnightblue" points="141.379,-292.323 131.934,-287.523 136.324,-297.165 141.379,-292.323"/>
</g>
<!-- Node5&#45;&gt;Node4 -->
<g id="edge5" class="edge"><title>Node5&#45;&gt;Node4</title>
<path fill="none" stroke="midnightblue" d="M257.678,-190.25C252.076,-172.054 239.902,-140.799 218.5,-123 191.623,-100.648 154.858,-88.1673 123.145,-81.2091"/>
<polygon fill="midnightblue" stroke="midnightblue" points="123.544,-77.7182 113.045,-79.1385 122.138,-84.5756 123.544,-77.7182"/>
</g>
<!-- Node5&#45;&gt;Node6 -->
<g id="edge6" class="edge"><title>Node5&#45;&gt;Node6</title>
<path fill="none" stroke="midnightblue" d="M272.307,-190.372C278.994,-180.708 286.957,-167.285 290.5,-154 295.599,-134.883 291.151,-112.73 285.957,-96.3497"/>
<polygon fill="midnightblue" stroke="midnightblue" points="289.124,-94.8011 282.529,-86.509 282.513,-97.1038 289.124,-94.8011"/>
</g>
<!-- Node8 -->
<g id="node8" class="node"><title>Node8</title>
<g id="a_node8"><a doxygen="/opt/openrobots/share/doc/dynamic-graph/doxygen-html/dynamic-graph.doxytag:../../../../../../opt/openrobots/share/doc/dynamic-graph/doxygen-html/" xlink:href="../../../../../../opt/openrobots/share/doc/dynamic-graph/doxygen-html/a00077.html" target="_top" xlink:title="dynamic&#45;graph/exception\l&#45;abstract.h">
<polygon fill="white" stroke="black" points="85,-123.5 85,-153.5 210,-153.5 210,-123.5 85,-123.5"/>
<text text-anchor="start" x="93" y="-141.5" font-family="Helvetica,sans-Serif" font-size="10.00">dynamic&#45;graph/exception</text>
<text text-anchor="middle" x="147.5" y="-130.5" font-family="Helvetica,sans-Serif" font-size="10.00">&#45;abstract.h</text>
</a>
</g>
</g>
<!-- Node5&#45;&gt;Node8 -->
<g id="edge8" class="edge"><title>Node5&#45;&gt;Node8</title>
<path fill="none" stroke="midnightblue" d="M236.764,-190.396C220.48,-181.112 198.959,-168.841 181.129,-158.674"/>
<polygon fill="midnightblue" stroke="midnightblue" points="182.609,-155.489 172.188,-153.577 179.142,-161.57 182.609,-155.489"/>
</g>
<!-- Node7 -->
<g id="node7" class="node"><title>Node7</title>
<g id="a_node7"><a doxygen="/opt/openrobots/share/doc/dynamic-graph/doxygen-html/dynamic-graph.doxytag:../../../../../../opt/openrobots/share/doc/dynamic-graph/doxygen-html/" xlink:href="../../../../../../opt/openrobots/share/doc/dynamic-graph/doxygen-html/a00068.html" target="_top" xlink:title="dynamic&#45;graph/config.hh">
<polygon fill="white" stroke="black" points="215,-0.5 215,-19.5 338,-19.5 338,-0.5 215,-0.5"/>
<text text-anchor="middle" x="276.5" y="-7.5" font-family="Helvetica,sans-Serif" font-size="10.00">dynamic&#45;graph/config.hh</text>
</a>
</g>
</g>
<!-- Node6&#45;&gt;Node7 -->
<g id="edge7" class="edge"><title>Node6&#45;&gt;Node7</title>
<path fill="none" stroke="midnightblue" d="M276.5,-56.3993C276.5,-48.4664 276.5,-38.458 276.5,-29.8583"/>
<polygon fill="midnightblue" stroke="midnightblue" points="280,-29.6577 276.5,-19.6578 273,-29.6578 280,-29.6577"/>
</g>
<!-- Node8&#45;&gt;Node4 -->
<g id="edge9" class="edge"><title>Node8&#45;&gt;Node4</title>
<path fill="none" stroke="midnightblue" d="M127.754,-123.396C112.635,-112.597 91.859,-97.7564 76.6421,-86.8872"/>
<polygon fill="midnightblue" stroke="midnightblue" points="78.5815,-83.9714 68.4098,-81.007 74.5128,-89.6675 78.5815,-83.9714"/>
</g>
<!-- Node8&#45;&gt;Node6 -->
<g id="edge10" class="edge"><title>Node8&#45;&gt;Node6</title>
<path fill="none" stroke="midnightblue" d="M175.491,-123.396C194.255,-113.941 219.165,-101.39 239.553,-91.1168"/>
<polygon fill="midnightblue" stroke="midnightblue" points="241.208,-94.202 248.564,-86.5765 238.058,-87.9507 241.208,-94.202"/>
</g>
<!-- Node9&#45;&gt;Node4 -->
<g id="edge12" class="edge"><title>Node9&#45;&gt;Node4</title>
<path fill="none" stroke="midnightblue" d="M85.912,-257.441C71.0304,-249.165 54.8832,-237.12 46.5,-221 24.5107,-178.718 39.3968,-120.28 49.4377,-90.9129"/>
<polygon fill="midnightblue" stroke="midnightblue" points="52.8498,-91.7695 52.9617,-81.1752 46.2675,-89.3874 52.8498,-91.7695"/>
</g>
<!-- Node10 -->
<g id="node10" class="node"><title>Node10</title>
<g id="a_node10"><a doxygen="/opt/openrobots/share/doc/dynamic-graph/doxygen-html/dynamic-graph.doxytag:../../../../../../opt/openrobots/share/doc/dynamic-graph/doxygen-html/" xlink:href="../../../../../../opt/openrobots/share/doc/dynamic-graph/doxygen-html/a00079.html" target="_top" xlink:title="dynamic&#45;graph/exception\l&#45;signal.h">
<polygon fill="white" stroke="black" points="56,-190.5 56,-220.5 181,-220.5 181,-190.5 56,-190.5"/>
<text text-anchor="start" x="64" y="-208.5" font-family="Helvetica,sans-Serif" font-size="10.00">dynamic&#45;graph/exception</text>
<text text-anchor="middle" x="118.5" y="-197.5" font-family="Helvetica,sans-Serif" font-size="10.00">&#45;signal.h</text>
</a>
</g>
</g>
<!-- Node9&#45;&gt;Node10 -->
<g id="edge13" class="edge"><title>Node9&#45;&gt;Node10</title>
<path fill="none" stroke="midnightblue" d="M118.5,-257.396C118.5,-249.645 118.5,-239.812 118.5,-230.86"/>
<polygon fill="midnightblue" stroke="midnightblue" points="122,-230.576 118.5,-220.577 115,-230.577 122,-230.576"/>
</g>
<!-- Node10&#45;&gt;Node4 -->
<g id="edge14" class="edge"><title>Node10&#45;&gt;Node4</title>
<path fill="none" stroke="midnightblue" d="M103.246,-190.411C93.9052,-180.967 82.4495,-167.777 75.5,-154 65.3984,-133.975 60.5707,-108.464 58.3296,-91.366"/>
<polygon fill="midnightblue" stroke="midnightblue" points="61.7636,-90.5851 57.1584,-81.0435 54.8082,-91.3744 61.7636,-90.5851"/>
</g>
<!-- Node10&#45;&gt;Node6 -->
<g id="edge15" class="edge"><title>Node10&#45;&gt;Node6</title>
<path fill="none" stroke="midnightblue" d="M156.737,-190.397C176.564,-181.86 200.357,-169.593 218.5,-154 237.614,-137.572 253.696,-113.579 264.041,-95.8764"/>
<polygon fill="midnightblue" stroke="midnightblue" points="267.31,-97.2055 269.181,-86.7772 261.215,-93.7627 267.31,-97.2055"/>
</g>
<!-- Node10&#45;&gt;Node8 -->
<g id="edge16" class="edge"><title>Node10&#45;&gt;Node8</title>
<path fill="none" stroke="midnightblue" d="M124.793,-190.396C128.365,-182.389 132.928,-172.162 137.025,-162.978"/>
<polygon fill="midnightblue" stroke="midnightblue" points="140.342,-164.135 141.22,-153.577 133.949,-161.283 140.342,-164.135"/>
</g>
</g>
</svg>
