<?xml version="1.0" encoding="UTF-8" standalone="no"?>
<!DOCTYPE svg PUBLIC "-//W3C//DTD SVG 1.1//EN"
 "http://www.w3.org/Graphics/SVG/1.1/DTD/svg11.dtd">
<!-- Generated by graphviz version 2.38.0 (20140413.2041)
 -->
<!-- Title: convert&#45;dg&#45;to&#45;py.cc Pages: 1 -->
<svg width="781pt" height="229pt"
 viewBox="0.00 0.00 780.50 229.00" xmlns="http://www.w3.org/2000/svg" xmlns:xlink="http://www.w3.org/1999/xlink">
<g id="graph0" class="graph" transform="scale(1 1) rotate(0) translate(4 225)">
<title>convert&#45;dg&#45;to&#45;py.cc</title>
<polygon fill="white" stroke="none" points="-4,4 -4,-225 776.5,-225 776.5,4 -4,4"/>
<!-- Node1 -->
<g id="node1" class="node"><title>Node1</title>
<polygon fill="#bfbfbf" stroke="black" points="355.5,-201.5 355.5,-220.5 456.5,-220.5 456.5,-201.5 355.5,-201.5"/>
<text text-anchor="middle" x="406" y="-208.5" font-family="Helvetica,sans-Serif" font-size="10.00">convert&#45;dg&#45;to&#45;py.cc</text>
</g>
<!-- Node2 -->
<g id="node2" class="node"><title>Node2</title>
<g id="a_node2"><a xlink:href="a00006.html" target="_top" xlink:title="../src/convert&#45;dg&#45;to\l&#45;py.hh">
<polygon fill="white" stroke="black" points="141.5,-134.5 141.5,-164.5 240.5,-164.5 240.5,-134.5 141.5,-134.5"/>
<text text-anchor="start" x="149.5" y="-152.5" font-family="Helvetica,sans-Serif" font-size="10.00">../src/convert&#45;dg&#45;to</text>
<text text-anchor="middle" x="191" y="-141.5" font-family="Helvetica,sans-Serif" font-size="10.00">&#45;py.hh</text>
</a>
</g>
</g>
<!-- Node1&#45;&gt;Node2 -->
<g id="edge1" class="edge"><title>Node1&#45;&gt;Node2</title>
<path fill="none" stroke="midnightblue" d="M375.196,-201.475C342.801,-192.51 291.017,-178.179 250.595,-166.992"/>
<polygon fill="midnightblue" stroke="midnightblue" points="251.416,-163.588 240.845,-164.294 249.549,-170.335 251.416,-163.588"/>
</g>
<!-- Node10 -->
<g id="node10" class="node"><title>Node10</title>
<polygon fill="white" stroke="#bfbfbf" points="259,-140 259,-159 313,-159 313,-140 259,-140"/>
<text text-anchor="middle" x="286" y="-147" font-family="Helvetica,sans-Serif" font-size="10.00">iostream</text>
</g>
<!-- Node1&#45;&gt;Node10 -->
<g id="edge9" class="edge"><title>Node1&#45;&gt;Node10</title>
<path fill="none" stroke="midnightblue" d="M388.807,-201.475C368.757,-191.534 335.401,-174.995 312.14,-163.461"/>
<polygon fill="midnightblue" stroke="midnightblue" points="313.675,-160.316 303.161,-159.009 310.566,-166.587 313.675,-160.316"/>
</g>
<!-- Node11 -->
<g id="node11" class="node"><title>Node11</title>
<polygon fill="white" stroke="#bfbfbf" points="331,-140 331,-159 383,-159 383,-140 331,-140"/>
<text text-anchor="middle" x="357" y="-147" font-family="Helvetica,sans-Serif" font-size="10.00">sstream</text>
</g>
<!-- Node1&#45;&gt;Node11 -->
<g id="edge10" class="edge"><title>Node1&#45;&gt;Node11</title>
<path fill="none" stroke="midnightblue" d="M398.979,-201.475C391.557,-192.462 379.667,-178.025 370.433,-166.812"/>
<polygon fill="midnightblue" stroke="midnightblue" points="373.066,-164.503 364.007,-159.009 367.663,-168.953 373.066,-164.503"/>
</g>
<!-- Node12 -->
<g id="node12" class="node"><title>Node12</title>
<polygon fill="white" stroke="#bfbfbf" points="401.5,-134.5 401.5,-164.5 510.5,-164.5 510.5,-134.5 401.5,-134.5"/>
<text text-anchor="start" x="409.5" y="-152.5" font-family="Helvetica,sans-Serif" font-size="10.00">dynamic&#45;graph/signal</text>
<text text-anchor="middle" x="456" y="-141.5" font-family="Helvetica,sans-Serif" font-size="10.00">&#45;base.h</text>
</g>
<!-- Node1&#45;&gt;Node12 -->
<g id="edge11" class="edge"><title>Node1&#45;&gt;Node12</title>
<path fill="none" stroke="midnightblue" d="M413.164,-201.475C419.556,-193.869 429.194,-182.399 437.71,-172.265"/>
<polygon fill="midnightblue" stroke="midnightblue" points="440.462,-174.43 444.216,-164.523 435.103,-169.927 440.462,-174.43"/>
</g>
<!-- Node13 -->
<g id="node13" class="node"><title>Node13</title>
<polygon fill="white" stroke="#bfbfbf" points="528.5,-140 528.5,-159 645.5,-159 645.5,-140 528.5,-140"/>
<text text-anchor="middle" x="587" y="-147" font-family="Helvetica,sans-Serif" font-size="10.00">dynamic&#45;graph/signal.h</text>
</g>
<!-- Node1&#45;&gt;Node13 -->
<g id="edge12" class="edge"><title>Node1&#45;&gt;Node13</title>
<path fill="none" stroke="midnightblue" d="M431.933,-201.475C463.25,-191.18 516.09,-173.81 551.256,-162.25"/>
<polygon fill="midnightblue" stroke="midnightblue" points="552.708,-165.457 561.115,-159.009 550.522,-158.807 552.708,-165.457"/>
</g>
<!-- Node14 -->
<g id="node14" class="node"><title>Node14</title>
<polygon fill="white" stroke="#bfbfbf" points="663.5,-134.5 663.5,-164.5 772.5,-164.5 772.5,-134.5 663.5,-134.5"/>
<text text-anchor="start" x="671.5" y="-152.5" font-family="Helvetica,sans-Serif" font-size="10.00">dynamic&#45;graph/signal</text>
<text text-anchor="middle" x="718" y="-141.5" font-family="Helvetica,sans-Serif" font-size="10.00">&#45;caster.h</text>
</g>
<!-- Node1&#45;&gt;Node14 -->
<g id="edge13" class="edge"><title>Node1&#45;&gt;Node14</title>
<path fill="none" stroke="midnightblue" d="M456.686,-201.565C504.93,-193.373 579.803,-180.238 653.484,-165.262"/>
<polygon fill="midnightblue" stroke="midnightblue" points="654.303,-168.667 663.399,-163.234 652.9,-161.809 654.303,-168.667"/>
</g>
<!-- Node3 -->
<g id="node3" class="node"><title>Node3</title>
<polygon fill="white" stroke="#bfbfbf" points="-3.55271e-15,-73 -3.55271e-15,-92 56,-92 56,-73 -3.55271e-15,-73"/>
<text text-anchor="middle" x="28" y="-80" font-family="Helvetica,sans-Serif" font-size="10.00">Python.h</text>
</g>
<!-- Node2&#45;&gt;Node3 -->
<g id="edge2" class="edge"><title>Node2&#45;&gt;Node3</title>
<path fill="none" stroke="midnightblue" d="M155.631,-134.396C126.778,-122.89 86.4228,-106.797 58.8627,-95.8072"/>
<polygon fill="midnightblue" stroke="midnightblue" points="59.9181,-92.4601 49.3329,-92.007 57.3252,-98.9622 59.9181,-92.4601"/>
</g>
<!-- Node4 -->
<g id="node4" class="node"><title>Node4</title>
<polygon fill="white" stroke="#bfbfbf" points="73.5,-67.5 73.5,-97.5 180.5,-97.5 180.5,-67.5 73.5,-67.5"/>
<text text-anchor="start" x="81.5" y="-85.5" font-family="Helvetica,sans-Serif" font-size="10.00">dynamic&#45;graph/linear</text>
<text text-anchor="middle" x="127" y="-74.5" font-family="Helvetica,sans-Serif" font-size="10.00">&#45;algebra.h</text>
</g>
<!-- Node2&#45;&gt;Node4 -->
<g id="edge3" class="edge"><title>Node2&#45;&gt;Node4</title>
<path fill="none" stroke="midnightblue" d="M177.113,-134.396C168.642,-125.793 157.647,-114.626 148.115,-104.945"/>
<polygon fill="midnightblue" stroke="midnightblue" points="150.37,-102.247 140.86,-97.5765 145.382,-107.158 150.37,-102.247"/>
</g>
<!-- Node5 -->
<g id="node5" class="node"><title>Node5</title>
<polygon fill="white" stroke="#bfbfbf" points="198.5,-73 198.5,-92 313.5,-92 313.5,-73 198.5,-73"/>
<text text-anchor="middle" x="256" y="-80" font-family="Helvetica,sans-Serif" font-size="10.00">dynamic&#45;graph/value.h</text>
</g>
<!-- Node2&#45;&gt;Node5 -->
<g id="edge4" class="edge"><title>Node2&#45;&gt;Node5</title>
<path fill="none" stroke="midnightblue" d="M205.104,-134.396C215.44,-124.06 229.476,-110.024 240.191,-99.309"/>
<polygon fill="midnightblue" stroke="midnightblue" points="242.709,-101.741 247.305,-92.1945 237.759,-96.7907 242.709,-101.741"/>
</g>
<!-- Node6 -->
<g id="node6" class="node"><title>Node6</title>
<g id="a_node6"><a xlink:href="a00011.html" target="_top" xlink:title="dynamic&#45;graph/python\l/exception&#45;python.hh">
<polygon fill="white" stroke="black" points="331.5,-67.5 331.5,-97.5 444.5,-97.5 444.5,-67.5 331.5,-67.5"/>
<text text-anchor="start" x="339.5" y="-85.5" font-family="Helvetica,sans-Serif" font-size="10.00">dynamic&#45;graph/python</text>
<text text-anchor="middle" x="388" y="-74.5" font-family="Helvetica,sans-Serif" font-size="10.00">/exception&#45;python.hh</text>
</a>
</g>
</g>
<!-- Node2&#45;&gt;Node6 -->
<g id="edge5" class="edge"><title>Node2&#45;&gt;Node6</title>
<path fill="none" stroke="midnightblue" d="M233.746,-134.396C263.692,-124.515 303.889,-111.252 335.741,-100.743"/>
<polygon fill="midnightblue" stroke="midnightblue" points="336.938,-104.034 345.337,-97.5765 334.744,-97.3862 336.938,-104.034"/>
</g>
<!-- Node7 -->
<g id="node7" class="node"><title>Node7</title>
<polygon fill="white" stroke="#bfbfbf" points="272.5,-6 272.5,-25 313.5,-25 313.5,-6 272.5,-6"/>
<text text-anchor="middle" x="293" y="-13" font-family="Helvetica,sans-Serif" font-size="10.00">string</text>
</g>
<!-- Node6&#45;&gt;Node7 -->
<g id="edge6" class="edge"><title>Node6&#45;&gt;Node7</title>
<path fill="none" stroke="midnightblue" d="M367.386,-67.396C351.603,-56.5966 329.913,-41.7564 314.027,-30.8872"/>
<polygon fill="midnightblue" stroke="midnightblue" points="315.663,-27.7653 305.433,-25.007 311.71,-33.5425 315.663,-27.7653"/>
</g>
<!-- Node8 -->
<g id="node8" class="node"><title>Node8</title>
<polygon fill="white" stroke="#bfbfbf" points="331.5,-6 331.5,-25 444.5,-25 444.5,-6 331.5,-6"/>
<text text-anchor="middle" x="388" y="-13" font-family="Helvetica,sans-Serif" font-size="10.00">dynamic&#45;graph/fwd.hh</text>
</g>
<!-- Node6&#45;&gt;Node8 -->
<g id="edge7" class="edge"><title>Node6&#45;&gt;Node8</title>
<path fill="none" stroke="midnightblue" d="M388,-67.396C388,-58.0638 388,-45.7143 388,-35.5173"/>
<polygon fill="midnightblue" stroke="midnightblue" points="391.5,-35.1945 388,-25.1945 384.5,-35.1946 391.5,-35.1945"/>
</g>
<!-- Node9 -->
<g id="node9" class="node"><title>Node9</title>
<polygon fill="white" stroke="#bfbfbf" points="462.5,-0.5 462.5,-30.5 587.5,-30.5 587.5,-0.5 462.5,-0.5"/>
<text text-anchor="start" x="470.5" y="-18.5" font-family="Helvetica,sans-Serif" font-size="10.00">dynamic&#45;graph/exception</text>
<text text-anchor="middle" x="525" y="-7.5" font-family="Helvetica,sans-Serif" font-size="10.00">&#45;abstract.h</text>
</g>
<!-- Node6&#45;&gt;Node9 -->
<g id="edge8" class="edge"><title>Node6&#45;&gt;Node9</title>
<path fill="none" stroke="midnightblue" d="M417.727,-67.396C437.744,-57.8987 464.348,-45.2764 486.054,-34.9781"/>
<polygon fill="midnightblue" stroke="midnightblue" points="487.797,-38.0252 495.331,-30.5765 484.796,-31.7009 487.797,-38.0252"/>
</g>
</g>
</svg>
