<?xml version="1.0" encoding="UTF-8" standalone="no"?>
<!DOCTYPE svg PUBLIC "-//W3C//DTD SVG 1.1//EN"
 "http://www.w3.org/Graphics/SVG/1.1/DTD/svg11.dtd">
<!-- Generated by graphviz version 2.38.0 (20140413.2041)
 -->
<!-- Title: signal&#45;caster&#45;py.cc Pages: 1 -->
<svg width="477pt" height="352pt"
 viewBox="0.00 0.00 476.50 352.00" xmlns="http://www.w3.org/2000/svg" xmlns:xlink="http://www.w3.org/1999/xlink">
<g id="graph0" class="graph" transform="scale(1 1) rotate(0) translate(4 348)">
<title>signal&#45;caster&#45;py.cc</title>
<polygon fill="white" stroke="none" points="-4,4 -4,-348 472.5,-348 472.5,4 -4,4"/>
<!-- Node1 -->
<g id="node1" class="node"><title>Node1</title>
<polygon fill="#bfbfbf" stroke="black" points="86.5,-324.5 86.5,-343.5 185.5,-343.5 185.5,-324.5 86.5,-324.5"/>
<text text-anchor="middle" x="136" y="-331.5" font-family="Helvetica,sans-Serif" font-size="10.00">signal&#45;caster&#45;py.cc</text>
</g>
<!-- Node2 -->
<g id="node2" class="node"><title>Node2</title>
<polygon fill="white" stroke="#bfbfbf" points="0,-263 0,-282 56,-282 56,-263 0,-263"/>
<text text-anchor="middle" x="28" y="-270" font-family="Helvetica,sans-Serif" font-size="10.00">Python.h</text>
</g>
<!-- Node1&#45;&gt;Node2 -->
<g id="edge1" class="edge"><title>Node1&#45;&gt;Node2</title>
<path fill="none" stroke="midnightblue" d="M120.526,-324.475C102.722,-314.666 73.2595,-298.435 52.368,-286.925"/>
<polygon fill="midnightblue" stroke="midnightblue" points="53.8927,-283.769 43.4451,-282.009 50.5149,-289.9 53.8927,-283.769"/>
</g>
<!-- Node3 -->
<g id="node3" class="node"><title>Node3</title>
<polygon fill="white" stroke="#bfbfbf" points="74,-263 74,-282 128,-282 128,-263 74,-263"/>
<text text-anchor="middle" x="101" y="-270" font-family="Helvetica,sans-Serif" font-size="10.00">iostream</text>
</g>
<!-- Node1&#45;&gt;Node3 -->
<g id="edge2" class="edge"><title>Node1&#45;&gt;Node3</title>
<path fill="none" stroke="midnightblue" d="M130.985,-324.475C125.839,-315.727 117.688,-301.869 111.182,-290.809"/>
<polygon fill="midnightblue" stroke="midnightblue" points="114.092,-288.854 106.005,-282.009 108.059,-292.403 114.092,-288.854"/>
</g>
<!-- Node4 -->
<g id="node4" class="node"><title>Node4</title>
<polygon fill="white" stroke="#bfbfbf" points="146,-263 146,-282 198,-282 198,-263 146,-263"/>
<text text-anchor="middle" x="172" y="-270" font-family="Helvetica,sans-Serif" font-size="10.00">sstream</text>
</g>
<!-- Node1&#45;&gt;Node4 -->
<g id="edge3" class="edge"><title>Node1&#45;&gt;Node4</title>
<path fill="none" stroke="midnightblue" d="M141.158,-324.475C146.451,-315.727 154.835,-301.869 161.527,-290.809"/>
<polygon fill="midnightblue" stroke="midnightblue" points="164.67,-292.377 166.852,-282.009 158.68,-288.753 164.67,-292.377"/>
</g>
<!-- Node5 -->
<g id="node5" class="node"><title>Node5</title>
<g id="a_node5"><a doxygen="/opt/openrobots/share/doc/dynamic-graph/doxygen-html/dynamic-graph.doxytag:../../../../../../opt/openrobots/share/doc/dynamic-graph/doxygen-html/" xlink:href="../../../../../../opt/openrobots/share/doc/dynamic-graph/doxygen-html/a00092.html" target="_top" xlink:title="dynamic&#45;graph/signal\l&#45;caster.h">
<polygon fill="white" stroke="black" points="216.5,-257.5 216.5,-287.5 325.5,-287.5 325.5,-257.5 216.5,-257.5"/>
<text text-anchor="start" x="224.5" y="-275.5" font-family="Helvetica,sans-Serif" font-size="10.00">dynamic&#45;graph/signal</text>
<text text-anchor="middle" x="271" y="-264.5" font-family="Helvetica,sans-Serif" font-size="10.00">&#45;caster.h</text>
</a>
</g>
</g>
<!-- Node1&#45;&gt;Node5 -->
<g id="edge4" class="edge"><title>Node1&#45;&gt;Node5</title>
<path fill="none" stroke="midnightblue" d="M155.342,-324.475C174.737,-315.927 205.199,-302.501 229.993,-291.573"/>
<polygon fill="midnightblue" stroke="midnightblue" points="231.444,-294.759 239.183,-287.523 228.621,-288.353 231.444,-294.759"/>
</g>
<!-- Node6 -->
<g id="node6" class="node"><title>Node6</title>
<g id="a_node6"><a doxygen="/opt/openrobots/share/doc/dynamic-graph/doxygen-html/dynamic-graph.doxytag:../../../../../../opt/openrobots/share/doc/dynamic-graph/doxygen-html/" xlink:href="../../../../../../opt/openrobots/share/doc/dynamic-graph/doxygen-html/a00073.html" target="_top" xlink:title="dynamic&#45;graph/dynamic\l&#45;graph&#45;api.h">
<polygon fill="white" stroke="black" points="194,-56.5 194,-86.5 314,-86.5 314,-56.5 194,-56.5"/>
<text text-anchor="start" x="202" y="-74.5" font-family="Helvetica,sans-Serif" font-size="10.00">dynamic&#45;graph/dynamic</text>
<text text-anchor="middle" x="254" y="-63.5" font-family="Helvetica,sans-Serif" font-size="10.00">&#45;graph&#45;api.h</text>
</a>
</g>
</g>
<!-- Node5&#45;&gt;Node6 -->
<g id="edge5" class="edge"><title>Node5&#45;&gt;Node6</title>
<path fill="none" stroke="midnightblue" d="M265.199,-257.193C261.476,-247.231 256.982,-233.536 255,-221 248.147,-177.645 249.966,-126.277 251.955,-96.7294"/>
<polygon fill="midnightblue" stroke="midnightblue" points="255.461,-96.7661 252.707,-86.5355 248.48,-96.2507 255.461,-96.7661"/>
</g>
<!-- Node8 -->
<g id="node8" class="node"><title>Node8</title>
<g id="a_node8"><a doxygen="/opt/openrobots/share/doc/dynamic-graph/doxygen-html/dynamic-graph.doxytag:../../../../../../opt/openrobots/share/doc/dynamic-graph/doxygen-html/" xlink:href="../../../../../../opt/openrobots/share/doc/dynamic-graph/doxygen-html/a00079.html" target="_top" xlink:title="dynamic&#45;graph/exception\l&#45;signal.h">
<polygon fill="white" stroke="black" points="263.5,-190.5 263.5,-220.5 388.5,-220.5 388.5,-190.5 263.5,-190.5"/>
<text text-anchor="start" x="271.5" y="-208.5" font-family="Helvetica,sans-Serif" font-size="10.00">dynamic&#45;graph/exception</text>
<text text-anchor="middle" x="326" y="-197.5" font-family="Helvetica,sans-Serif" font-size="10.00">&#45;signal.h</text>
</a>
</g>
</g>
<!-- Node5&#45;&gt;Node8 -->
<g id="edge7" class="edge"><title>Node5&#45;&gt;Node8</title>
<path fill="none" stroke="midnightblue" d="M282.934,-257.396C290.141,-248.878 299.476,-237.847 307.611,-228.233"/>
<polygon fill="midnightblue" stroke="midnightblue" points="310.302,-230.471 314.089,-220.577 304.958,-225.95 310.302,-230.471"/>
</g>
<!-- Node7 -->
<g id="node7" class="node"><title>Node7</title>
<g id="a_node7"><a doxygen="/opt/openrobots/share/doc/dynamic-graph/doxygen-html/dynamic-graph.doxytag:../../../../../../opt/openrobots/share/doc/dynamic-graph/doxygen-html/" xlink:href="../../../../../../opt/openrobots/share/doc/dynamic-graph/doxygen-html/a00068.html" target="_top" xlink:title="dynamic&#45;graph/config.hh">
<polygon fill="white" stroke="black" points="192.5,-0.5 192.5,-19.5 315.5,-19.5 315.5,-0.5 192.5,-0.5"/>
<text text-anchor="middle" x="254" y="-7.5" font-family="Helvetica,sans-Serif" font-size="10.00">dynamic&#45;graph/config.hh</text>
</a>
</g>
</g>
<!-- Node6&#45;&gt;Node7 -->
<g id="edge6" class="edge"><title>Node6&#45;&gt;Node7</title>
<path fill="none" stroke="midnightblue" d="M254,-56.3993C254,-48.4664 254,-38.458 254,-29.8583"/>
<polygon fill="midnightblue" stroke="midnightblue" points="257.5,-29.6577 254,-19.6578 250.5,-29.6578 257.5,-29.6577"/>
</g>
<!-- Node8&#45;&gt;Node6 -->
<g id="edge9" class="edge"><title>Node8&#45;&gt;Node6</title>
<path fill="none" stroke="midnightblue" d="M306.776,-190.368C295.621,-181.192 282.196,-168.304 274,-154 263.899,-136.372 258.868,-113.765 256.381,-96.8343"/>
<polygon fill="midnightblue" stroke="midnightblue" points="259.818,-96.117 255.086,-86.6376 252.874,-96.9989 259.818,-96.117"/>
</g>
<!-- Node9 -->
<g id="node9" class="node"><title>Node9</title>
<g id="a_node9"><a doxygen="/opt/openrobots/share/doc/dynamic-graph/doxygen-html/dynamic-graph.doxytag:../../../../../../opt/openrobots/share/doc/dynamic-graph/doxygen-html/" xlink:href="../../../../../../opt/openrobots/share/doc/dynamic-graph/doxygen-html/a00082.html" target="_top" xlink:title="dynamic&#45;graph/fwd.hh">
<polygon fill="white" stroke="black" points="355.5,-62 355.5,-81 468.5,-81 468.5,-62 355.5,-62"/>
<text text-anchor="middle" x="412" y="-69" font-family="Helvetica,sans-Serif" font-size="10.00">dynamic&#45;graph/fwd.hh</text>
</a>
</g>
</g>
<!-- Node8&#45;&gt;Node9 -->
<g id="edge8" class="edge"><title>Node8&#45;&gt;Node9</title>
<path fill="none" stroke="midnightblue" d="M371.673,-190.457C389.028,-182.646 407.008,-170.972 417,-154 428.375,-134.678 423.785,-108.12 418.616,-90.6435"/>
<polygon fill="midnightblue" stroke="midnightblue" points="421.918,-89.4808 415.46,-81.0817 415.271,-91.6748 421.918,-89.4808"/>
</g>
<!-- Node10 -->
<g id="node10" class="node"><title>Node10</title>
<g id="a_node10"><a doxygen="/opt/openrobots/share/doc/dynamic-graph/doxygen-html/dynamic-graph.doxytag:../../../../../../opt/openrobots/share/doc/dynamic-graph/doxygen-html/" xlink:href="../../../../../../opt/openrobots/share/doc/dynamic-graph/doxygen-html/a00077.html" target="_top" xlink:title="dynamic&#45;graph/exception\l&#45;abstract.h">
<polygon fill="white" stroke="black" points="282.5,-123.5 282.5,-153.5 407.5,-153.5 407.5,-123.5 282.5,-123.5"/>
<text text-anchor="start" x="290.5" y="-141.5" font-family="Helvetica,sans-Serif" font-size="10.00">dynamic&#45;graph/exception</text>
<text text-anchor="middle" x="345" y="-130.5" font-family="Helvetica,sans-Serif" font-size="10.00">&#45;abstract.h</text>
</a>
</g>
</g>
<!-- Node8&#45;&gt;Node10 -->
<g id="edge10" class="edge"><title>Node8&#45;&gt;Node10</title>
<path fill="none" stroke="midnightblue" d="M330.123,-190.396C332.438,-182.474 335.389,-172.379 338.051,-163.271"/>
<polygon fill="midnightblue" stroke="midnightblue" points="341.439,-164.157 340.885,-153.577 334.72,-162.193 341.439,-164.157"/>
</g>
<!-- Node10&#45;&gt;Node6 -->
<g id="edge12" class="edge"><title>Node10&#45;&gt;Node6</title>
<path fill="none" stroke="midnightblue" d="M325.254,-123.396C312.614,-114.367 296.02,-102.514 282.026,-92.5184"/>
<polygon fill="midnightblue" stroke="midnightblue" points="283.879,-89.5409 273.707,-86.5765 279.81,-95.237 283.879,-89.5409"/>
</g>
<!-- Node10&#45;&gt;Node9 -->
<g id="edge11" class="edge"><title>Node10&#45;&gt;Node9</title>
<path fill="none" stroke="midnightblue" d="M359.538,-123.396C370.192,-113.06 384.66,-99.0237 395.705,-88.309"/>
<polygon fill="midnightblue" stroke="midnightblue" points="398.298,-90.6698 403.038,-81.1945 393.423,-85.6456 398.298,-90.6698"/>
</g>
</g>
</svg>
