<?xml version="1.0" encoding="UTF-8" standalone="no"?>
<!DOCTYPE svg PUBLIC "-//W3C//DTD SVG 1.1//EN"
 "http://www.w3.org/Graphics/SVG/1.1/DTD/svg11.dtd">
<!-- Generated by graphviz version 2.38.0 (20140413.2041)
 -->
<!-- Title: interpreter.cc Pages: 1 -->
<svg width="1351pt" height="229pt"
 viewBox="0.00 0.00 1350.50 229.00" xmlns="http://www.w3.org/2000/svg" xmlns:xlink="http://www.w3.org/1999/xlink">
<g id="graph0" class="graph" transform="scale(1 1) rotate(0) translate(4 225)">
<title>interpreter.cc</title>
<polygon fill="white" stroke="none" points="-4,4 -4,-225 1346.5,-225 1346.5,4 -4,4"/>
<!-- Node1 -->
<g id="node1" class="node"><title>Node1</title>
<polygon fill="#bfbfbf" stroke="black" points="627.5,-201.5 627.5,-220.5 701.5,-220.5 701.5,-201.5 627.5,-201.5"/>
<text text-anchor="middle" x="664.5" y="-208.5" font-family="Helvetica,sans-Serif" font-size="10.00">interpreter.cc</text>
</g>
<!-- Node2 -->
<g id="node2" class="node"><title>Node2</title>
<polygon fill="white" stroke="#bfbfbf" points="70.5,-140 70.5,-159 124.5,-159 124.5,-140 70.5,-140"/>
<text text-anchor="middle" x="97.5" y="-147" font-family="Helvetica,sans-Serif" font-size="10.00">iostream</text>
</g>
<!-- Node1&#45;&gt;Node2 -->
<g id="edge1" class="edge"><title>Node1&#45;&gt;Node2</title>
<path fill="none" stroke="midnightblue" d="M627.207,-210.62C539.694,-211.263 314.855,-208.176 133.5,-165 130.827,-164.364 128.092,-163.562 125.383,-162.664"/>
<polygon fill="midnightblue" stroke="midnightblue" points="126.432,-159.32 115.839,-159.112 123.99,-165.88 126.432,-159.32"/>
</g>
<!-- Node3 -->
<g id="node3" class="node"><title>Node3</title>
<g id="a_node3"><a doxygen="/opt/openrobots/share/doc/dynamic-graph/doxygen-html/dynamic-graph.doxytag:../../../../../../opt/openrobots/share/doc/dynamic-graph/doxygen-html/" xlink:href="../../../../../../opt/openrobots/share/doc/dynamic-graph/doxygen-html/a00070.html" target="_top" xlink:title="dynamic&#45;graph/debug.h">
<polygon fill="white" stroke="black" points="142.5,-140 142.5,-159 260.5,-159 260.5,-140 142.5,-140"/>
<text text-anchor="middle" x="201.5" y="-147" font-family="Helvetica,sans-Serif" font-size="10.00">dynamic&#45;graph/debug.h</text>
</a>
</g>
</g>
<!-- Node1&#45;&gt;Node3 -->
<g id="edge2" class="edge"><title>Node1&#45;&gt;Node3</title>
<path fill="none" stroke="midnightblue" d="M627.335,-206.126C559.763,-198.954 412.316,-182.718 288.5,-165 279.372,-163.694 269.724,-162.2 260.307,-160.679"/>
<polygon fill="midnightblue" stroke="midnightblue" points="260.648,-157.188 250.213,-159.025 259.516,-164.096 260.648,-157.188"/>
</g>
<!-- Node7 -->
<g id="node7" class="node"><title>Node7</title>
<g id="a_node7"><a xlink:href="a00019.html" target="_top" xlink:title="dynamic&#45;graph/python\l/interpreter.hh">
<polygon fill="white" stroke="black" points="298,-134.5 298,-164.5 411,-164.5 411,-134.5 298,-134.5"/>
<text text-anchor="start" x="306" y="-152.5" font-family="Helvetica,sans-Serif" font-size="10.00">dynamic&#45;graph/python</text>
<text text-anchor="middle" x="354.5" y="-141.5" font-family="Helvetica,sans-Serif" font-size="10.00">/interpreter.hh</text>
</a>
</g>
</g>
<!-- Node1&#45;&gt;Node7 -->
<g id="edge6" class="edge"><title>Node1&#45;&gt;Node7</title>
<path fill="none" stroke="midnightblue" d="M627.22,-203.53C581.261,-195.463 500.516,-181.004 421.484,-165.159"/>
<polygon fill="midnightblue" stroke="midnightblue" points="421.85,-161.663 411.356,-163.119 420.468,-168.525 421.85,-161.663"/>
</g>
<!-- Node13 -->
<g id="node13" class="node"><title>Node13</title>
<polygon fill="white" stroke="#bfbfbf" points="429,-140 429,-159 518,-159 518,-140 429,-140"/>
<text text-anchor="middle" x="473.5" y="-147" font-family="Helvetica,sans-Serif" font-size="10.00">link&#45;to&#45;python.hh</text>
</g>
<!-- Node1&#45;&gt;Node13 -->
<g id="edge12" class="edge"><title>Node1&#45;&gt;Node13</title>
<path fill="none" stroke="midnightblue" d="M637.134,-201.475C603.946,-191.136 547.849,-173.661 510.742,-162.102"/>
<polygon fill="midnightblue" stroke="midnightblue" points="511.403,-158.642 500.815,-159.009 509.321,-165.325 511.403,-158.642"/>
</g>
<!-- Node14 -->
<g id="node14" class="node"><title>Node14</title>
<polygon fill="white" stroke="#bfbfbf" points="536,-140 536,-159 655,-159 655,-140 536,-140"/>
<text text-anchor="middle" x="595.5" y="-147" font-family="Helvetica,sans-Serif" font-size="10.00">boost/python/errors.hpp</text>
</g>
<!-- Node1&#45;&gt;Node14 -->
<g id="edge13" class="edge"><title>Node1&#45;&gt;Node14</title>
<path fill="none" stroke="midnightblue" d="M654.614,-201.475C643.854,-192.197 626.429,-177.171 613.279,-165.831"/>
<polygon fill="midnightblue" stroke="midnightblue" points="615.227,-162.889 605.368,-159.009 610.655,-168.19 615.227,-162.889"/>
</g>
<!-- Node15 -->
<g id="node15" class="node"><title>Node15</title>
<polygon fill="white" stroke="#bfbfbf" points="673,-140 673,-159 794,-159 794,-140 673,-140"/>
<text text-anchor="middle" x="733.5" y="-147" font-family="Helvetica,sans-Serif" font-size="10.00">boost/python/object.hpp</text>
</g>
<!-- Node1&#45;&gt;Node15 -->
<g id="edge14" class="edge"><title>Node1&#45;&gt;Node15</title>
<path fill="none" stroke="midnightblue" d="M674.386,-201.475C685.146,-192.197 702.571,-177.171 715.721,-165.831"/>
<polygon fill="midnightblue" stroke="midnightblue" points="718.345,-168.19 723.632,-159.009 713.773,-162.889 718.345,-168.19"/>
</g>
<!-- Node16 -->
<g id="node16" class="node"><title>Node16</title>
<polygon fill="white" stroke="#bfbfbf" points="812,-140 812,-159 935,-159 935,-140 812,-140"/>
<text text-anchor="middle" x="873.5" y="-147" font-family="Helvetica,sans-Serif" font-size="10.00">boost/python/handle.hpp</text>
</g>
<!-- Node1&#45;&gt;Node16 -->
<g id="edge15" class="edge"><title>Node1&#45;&gt;Node16</title>
<path fill="none" stroke="midnightblue" d="M694.445,-201.475C731.072,-191.048 793.195,-173.362 833.784,-161.807"/>
<polygon fill="midnightblue" stroke="midnightblue" points="834.951,-165.113 843.611,-159.009 833.035,-158.381 834.951,-165.113"/>
</g>
<!-- Node17 -->
<g id="node17" class="node"><title>Node17</title>
<polygon fill="white" stroke="#bfbfbf" points="953,-140 953,-159 1078,-159 1078,-140 953,-140"/>
<text text-anchor="middle" x="1015.5" y="-147" font-family="Helvetica,sans-Serif" font-size="10.00">boost/python/extract.hpp</text>
</g>
<!-- Node1&#45;&gt;Node17 -->
<g id="edge16" class="edge"><title>Node1&#45;&gt;Node17</title>
<path fill="none" stroke="midnightblue" d="M701.725,-204.527C755.45,-196.513 857.8,-180.813 944.5,-165 951.236,-163.772 958.316,-162.41 965.29,-161.028"/>
<polygon fill="midnightblue" stroke="midnightblue" points="966.266,-164.402 975.38,-159 964.887,-157.539 966.266,-164.402"/>
</g>
<!-- Node18 -->
<g id="node18" class="node"><title>Node18</title>
<polygon fill="white" stroke="#bfbfbf" points="1096.5,-140 1096.5,-159 1202.5,-159 1202.5,-140 1096.5,-140"/>
<text text-anchor="middle" x="1149.5" y="-147" font-family="Helvetica,sans-Serif" font-size="10.00">boost/python/str.hpp</text>
</g>
<!-- Node1&#45;&gt;Node18 -->
<g id="edge17" class="edge"><title>Node1&#45;&gt;Node18</title>
<path fill="none" stroke="midnightblue" d="M701.773,-207.592C775.719,-202.472 946.059,-188.968 1087.5,-165 1093.72,-163.946 1100.25,-162.64 1106.65,-161.248"/>
<polygon fill="midnightblue" stroke="midnightblue" points="1107.53,-164.636 1116.51,-159.013 1105.99,-157.809 1107.53,-164.636"/>
</g>
<!-- Node19 -->
<g id="node19" class="node"><title>Node19</title>
<polygon fill="white" stroke="#bfbfbf" points="1220.5,-140 1220.5,-159 1342.5,-159 1342.5,-140 1220.5,-140"/>
<text text-anchor="middle" x="1281.5" y="-147" font-family="Helvetica,sans-Serif" font-size="10.00">boost/python/import.hpp</text>
</g>
<!-- Node1&#45;&gt;Node19 -->
<g id="edge18" class="edge"><title>Node1&#45;&gt;Node19</title>
<path fill="none" stroke="midnightblue" d="M701.818,-208.504C790.556,-204.604 1020.99,-192.463 1211.5,-165 1219.02,-163.917 1226.94,-162.523 1234.64,-161.029"/>
<polygon fill="midnightblue" stroke="midnightblue" points="1235.48,-164.43 1244.59,-159.025 1234.1,-157.568 1235.48,-164.43"/>
</g>
<!-- Node4 -->
<g id="node4" class="node"><title>Node4</title>
<g id="a_node4"><a doxygen="/opt/openrobots/share/doc/dynamic-graph/doxygen-html/dynamic-graph.doxytag:../../../../../../opt/openrobots/share/doc/dynamic-graph/doxygen-html/" xlink:href="../../../../../../opt/openrobots/share/doc/dynamic-graph/doxygen-html/a00082.html" target="_top" xlink:title="dynamic&#45;graph/fwd.hh">
<polygon fill="white" stroke="black" points="0,-73 0,-92 113,-92 113,-73 0,-73"/>
<text text-anchor="middle" x="56.5" y="-80" font-family="Helvetica,sans-Serif" font-size="10.00">dynamic&#45;graph/fwd.hh</text>
</a>
</g>
</g>
<!-- Node3&#45;&gt;Node4 -->
<g id="edge3" class="edge"><title>Node3&#45;&gt;Node4</title>
<path fill="none" stroke="midnightblue" d="M182.245,-139.869C157.329,-128.699 113.712,-109.147 84.965,-96.2602"/>
<polygon fill="midnightblue" stroke="midnightblue" points="86.3913,-93.064 75.8345,-92.1672 83.5279,-99.4516 86.3913,-93.064"/>
</g>
<!-- Node5 -->
<g id="node5" class="node"><title>Node5</title>
<g id="a_node5"><a doxygen="/opt/openrobots/share/doc/dynamic-graph/doxygen-html/dynamic-graph.doxytag:../../../../../../opt/openrobots/share/doc/dynamic-graph/doxygen-html/" xlink:href="../../../../../../opt/openrobots/share/doc/dynamic-graph/doxygen-html/a00073.html" target="_top" xlink:title="dynamic&#45;graph/dynamic\l&#45;graph&#45;api.h">
<polygon fill="white" stroke="black" points="131.5,-67.5 131.5,-97.5 251.5,-97.5 251.5,-67.5 131.5,-67.5"/>
<text text-anchor="start" x="139.5" y="-85.5" font-family="Helvetica,sans-Serif" font-size="10.00">dynamic&#45;graph/dynamic</text>
<text text-anchor="middle" x="191.5" y="-74.5" font-family="Helvetica,sans-Serif" font-size="10.00">&#45;graph&#45;api.h</text>
</a>
</g>
</g>
<!-- Node3&#45;&gt;Node5 -->
<g id="edge4" class="edge"><title>Node3&#45;&gt;Node5</title>
<path fill="none" stroke="midnightblue" d="M200.151,-139.734C198.891,-131.541 196.95,-118.923 195.225,-107.714"/>
<polygon fill="midnightblue" stroke="midnightblue" points="198.647,-106.941 193.668,-97.589 191.729,-108.005 198.647,-106.941"/>
</g>
<!-- Node6 -->
<g id="node6" class="node"><title>Node6</title>
<g id="a_node6"><a doxygen="/opt/openrobots/share/doc/dynamic-graph/doxygen-html/dynamic-graph.doxytag:../../../../../../opt/openrobots/share/doc/dynamic-graph/doxygen-html/" xlink:href="../../../../../../opt/openrobots/share/doc/dynamic-graph/doxygen-html/a00068.html" target="_top" xlink:title="dynamic&#45;graph/config.hh">
<polygon fill="white" stroke="black" points="130,-6 130,-25 253,-25 253,-6 130,-6"/>
<text text-anchor="middle" x="191.5" y="-13" font-family="Helvetica,sans-Serif" font-size="10.00">dynamic&#45;graph/config.hh</text>
</a>
</g>
</g>
<!-- Node5&#45;&gt;Node6 -->
<g id="edge5" class="edge"><title>Node5&#45;&gt;Node6</title>
<path fill="none" stroke="midnightblue" d="M191.5,-67.396C191.5,-58.0638 191.5,-45.7143 191.5,-35.5173"/>
<polygon fill="midnightblue" stroke="midnightblue" points="195,-35.1945 191.5,-25.1945 188,-35.1946 195,-35.1945"/>
</g>
<!-- Node8 -->
<g id="node8" class="node"><title>Node8</title>
<polygon fill="white" stroke="#bfbfbf" points="269.5,-73 269.5,-92 325.5,-92 325.5,-73 269.5,-73"/>
<text text-anchor="middle" x="297.5" y="-80" font-family="Helvetica,sans-Serif" font-size="10.00">Python.h</text>
</g>
<!-- Node7&#45;&gt;Node8 -->
<g id="edge7" class="edge"><title>Node7&#45;&gt;Node8</title>
<path fill="none" stroke="midnightblue" d="M342.132,-134.396C333.244,-124.261 321.236,-110.567 311.914,-99.9368"/>
<polygon fill="midnightblue" stroke="midnightblue" points="314.349,-97.4055 305.124,-92.1945 309.086,-102.021 314.349,-97.4055"/>
</g>
<!-- Node9 -->
<g id="node9" class="node"><title>Node9</title>
<polygon fill="white" stroke="#bfbfbf" points="344,-73 344,-92 385,-92 385,-73 344,-73"/>
<text text-anchor="middle" x="364.5" y="-80" font-family="Helvetica,sans-Serif" font-size="10.00">string</text>
</g>
<!-- Node7&#45;&gt;Node9 -->
<g id="edge8" class="edge"><title>Node7&#45;&gt;Node9</title>
<path fill="none" stroke="midnightblue" d="M356.67,-134.396C358.121,-124.963 360.046,-112.448 361.625,-102.189"/>
<polygon fill="midnightblue" stroke="midnightblue" points="365.101,-102.61 363.162,-92.1945 358.182,-101.546 365.101,-102.61"/>
</g>
<!-- Node10 -->
<g id="node10" class="node"><title>Node10</title>
<g id="a_node10"><a xlink:href="a00008.html" target="_top" xlink:title="dynamic&#45;graph/python\l/api.hh">
<polygon fill="white" stroke="black" points="403,-67.5 403,-97.5 516,-97.5 516,-67.5 403,-67.5"/>
<text text-anchor="start" x="411" y="-85.5" font-family="Helvetica,sans-Serif" font-size="10.00">dynamic&#45;graph/python</text>
<text text-anchor="middle" x="459.5" y="-74.5" font-family="Helvetica,sans-Serif" font-size="10.00">/api.hh</text>
</a>
</g>
</g>
<!-- Node7&#45;&gt;Node10 -->
<g id="edge9" class="edge"><title>Node7&#45;&gt;Node10</title>
<path fill="none" stroke="midnightblue" d="M377.283,-134.396C392.144,-125.197 411.74,-113.066 428.073,-102.955"/>
<polygon fill="midnightblue" stroke="midnightblue" points="430.101,-105.816 436.761,-97.5765 426.416,-99.8642 430.101,-105.816"/>
</g>
<!-- Node12 -->
<g id="node12" class="node"><title>Node12</title>
<polygon fill="white" stroke="#bfbfbf" points="534,-67.5 534,-97.5 647,-97.5 647,-67.5 534,-67.5"/>
<text text-anchor="start" x="542" y="-85.5" font-family="Helvetica,sans-Serif" font-size="10.00">dynamic&#45;graph/python</text>
<text text-anchor="middle" x="590.5" y="-74.5" font-family="Helvetica,sans-Serif" font-size="10.00">/deprecated.hh</text>
</g>
<!-- Node7&#45;&gt;Node12 -->
<g id="edge11" class="edge"><title>Node7&#45;&gt;Node12</title>
<path fill="none" stroke="midnightblue" d="M405.418,-134.476C441.739,-124.472 490.758,-110.971 529.224,-100.377"/>
<polygon fill="midnightblue" stroke="midnightblue" points="530.555,-103.641 539.267,-97.6109 528.696,-96.892 530.555,-103.641"/>
</g>
<!-- Node11 -->
<g id="node11" class="node"><title>Node11</title>
<polygon fill="white" stroke="#bfbfbf" points="403,-0.5 403,-30.5 516,-30.5 516,-0.5 403,-0.5"/>
<text text-anchor="start" x="411" y="-18.5" font-family="Helvetica,sans-Serif" font-size="10.00">dynamic&#45;graph/python</text>
<text text-anchor="middle" x="459.5" y="-7.5" font-family="Helvetica,sans-Serif" font-size="10.00">/config.hh</text>
</g>
<!-- Node10&#45;&gt;Node11 -->
<g id="edge10" class="edge"><title>Node10&#45;&gt;Node11</title>
<path fill="none" stroke="midnightblue" d="M459.5,-67.396C459.5,-59.6448 459.5,-49.8122 459.5,-40.8601"/>
<polygon fill="midnightblue" stroke="midnightblue" points="463,-40.5765 459.5,-30.5765 456,-40.5765 463,-40.5765"/>
</g>
</g>
</svg>
