<?xml version="1.0" encoding="UTF-8" standalone="no"?>
<!DOCTYPE svg PUBLIC "-//W3C//DTD SVG 1.1//EN"
 "http://www.w3.org/Graphics/SVG/1.1/DTD/svg11.dtd">
<!-- Generated by graphviz version 2.38.0 (20140413.2041)
 -->
<!-- Title: convert&#45;dg&#45;to&#45;py.cc Pages: 1 -->
<svg width="800pt" height="475pt"
 viewBox="0.00 0.00 800.04 475.00" xmlns="http://www.w3.org/2000/svg" xmlns:xlink="http://www.w3.org/1999/xlink">
<g id="graph0" class="graph" transform="scale(1 1) rotate(0) translate(4 471)">
<title>convert&#45;dg&#45;to&#45;py.cc</title>
<polygon fill="white" stroke="none" points="-4,4 -4,-471 796.044,-471 796.044,4 -4,4"/>
<!-- Node1 -->
<g id="node1" class="node"><title>Node1</title>
<polygon fill="#bfbfbf" stroke="black" points="541.544,-447.5 541.544,-466.5 642.544,-466.5 642.544,-447.5 541.544,-447.5"/>
<text text-anchor="middle" x="592.044" y="-454.5" font-family="Helvetica,sans-Serif" font-size="10.00">convert&#45;dg&#45;to&#45;py.cc</text>
</g>
<!-- Node2 -->
<g id="node2" class="node"><title>Node2</title>
<g id="a_node2"><a xlink:href="a00010.html" target="_top" xlink:title="../src/convert&#45;dg&#45;to\l&#45;py.hh">
<polygon fill="white" stroke="black" points="180.544,-257.5 180.544,-287.5 279.544,-287.5 279.544,-257.5 180.544,-257.5"/>
<text text-anchor="start" x="188.544" y="-275.5" font-family="Helvetica,sans-Serif" font-size="10.00">../src/convert&#45;dg&#45;to</text>
<text text-anchor="middle" x="230.044" y="-264.5" font-family="Helvetica,sans-Serif" font-size="10.00">&#45;py.hh</text>
</a>
</g>
</g>
<!-- Node1&#45;&gt;Node2 -->
<g id="edge1" class="edge"><title>Node1&#45;&gt;Node2</title>
<path fill="none" stroke="midnightblue" d="M542.695,-447.453C481.877,-435.07 377.468,-407.626 303.044,-355 279.985,-338.695 259.088,-313.841 245.619,-295.866"/>
<polygon fill="midnightblue" stroke="midnightblue" points="248.352,-293.674 239.627,-287.663 242.699,-297.803 248.352,-293.674"/>
</g>
<!-- Node12 -->
<g id="node12" class="node"><title>Node12</title>
<polygon fill="white" stroke="#bfbfbf" points="668.044,-391.5 668.044,-410.5 722.044,-410.5 722.044,-391.5 668.044,-391.5"/>
<text text-anchor="middle" x="695.044" y="-398.5" font-family="Helvetica,sans-Serif" font-size="10.00">iostream</text>
</g>
<!-- Node1&#45;&gt;Node12 -->
<g id="edge14" class="edge"><title>Node1&#45;&gt;Node12</title>
<path fill="none" stroke="midnightblue" d="M608.592,-447.324C625.035,-438.703 650.478,-425.364 669.512,-415.386"/>
<polygon fill="midnightblue" stroke="midnightblue" points="671.304,-418.398 678.536,-410.655 668.054,-412.198 671.304,-418.398"/>
</g>
<!-- Node13 -->
<g id="node13" class="node"><title>Node13</title>
<polygon fill="white" stroke="#bfbfbf" points="740.044,-391.5 740.044,-410.5 792.044,-410.5 792.044,-391.5 740.044,-391.5"/>
<text text-anchor="middle" x="766.044" y="-398.5" font-family="Helvetica,sans-Serif" font-size="10.00">sstream</text>
</g>
<!-- Node1&#45;&gt;Node13 -->
<g id="edge15" class="edge"><title>Node1&#45;&gt;Node13</title>
<path fill="none" stroke="midnightblue" d="M619.614,-447.444C649.575,-438.145 697.548,-423.257 730.362,-413.073"/>
<polygon fill="midnightblue" stroke="midnightblue" points="731.509,-416.382 740.023,-410.075 729.435,-409.697 731.509,-416.382"/>
</g>
<!-- Node14 -->
<g id="node14" class="node"><title>Node14</title>
<g id="a_node14"><a doxygen="/opt/openrobots/share/doc/dynamic-graph/doxygen-html/dynamic-graph.doxytag:../../../../../../opt/openrobots/share/doc/dynamic-graph/doxygen-html/" xlink:href="../../../../../../opt/openrobots/share/doc/dynamic-graph/doxygen-html/a00090.html" target="_top" xlink:title="dynamic&#45;graph/signal\l&#45;base.h">
<polygon fill="white" stroke="black" points="312.544,-324.5 312.544,-354.5 421.544,-354.5 421.544,-324.5 312.544,-324.5"/>
<text text-anchor="start" x="320.544" y="-342.5" font-family="Helvetica,sans-Serif" font-size="10.00">dynamic&#45;graph/signal</text>
<text text-anchor="middle" x="367.044" y="-331.5" font-family="Helvetica,sans-Serif" font-size="10.00">&#45;base.h</text>
</a>
</g>
</g>
<!-- Node1&#45;&gt;Node14 -->
<g id="edge16" class="edge"><title>Node1&#45;&gt;Node14</title>
<path fill="none" stroke="midnightblue" d="M565.831,-447.403C542.099,-439.235 506.458,-425.996 477.044,-411 447.915,-396.15 416.716,-375.672 395.012,-360.612"/>
<polygon fill="midnightblue" stroke="midnightblue" points="396.809,-357.598 386.612,-354.725 392.792,-363.33 396.809,-357.598"/>
</g>
<!-- Node16 -->
<g id="node16" class="node"><title>Node16</title>
<g id="a_node16"><a doxygen="/opt/openrobots/share/doc/dynamic-graph/doxygen-html/dynamic-graph.doxytag:../../../../../../opt/openrobots/share/doc/dynamic-graph/doxygen-html/" xlink:href="../../../../../../opt/openrobots/share/doc/dynamic-graph/doxygen-html/a00097.html" target="_top" xlink:title="dynamic&#45;graph/signal.h">
<polygon fill="white" stroke="black" points="486.544,-391.5 486.544,-410.5 603.544,-410.5 603.544,-391.5 486.544,-391.5"/>
<text text-anchor="middle" x="545.044" y="-398.5" font-family="Helvetica,sans-Serif" font-size="10.00">dynamic&#45;graph/signal.h</text>
</a>
</g>
</g>
<!-- Node1&#45;&gt;Node16 -->
<g id="edge22" class="edge"><title>Node1&#45;&gt;Node16</title>
<path fill="none" stroke="midnightblue" d="M584.283,-447.083C577.507,-439.298 567.5,-427.801 559.289,-418.367"/>
<polygon fill="midnightblue" stroke="midnightblue" points="561.866,-415.996 552.66,-410.751 556.585,-420.592 561.866,-415.996"/>
</g>
<!-- Node18 -->
<g id="node18" class="node"><title>Node18</title>
<g id="a_node18"><a doxygen="/opt/openrobots/share/doc/dynamic-graph/doxygen-html/dynamic-graph.doxytag:../../../../../../opt/openrobots/share/doc/dynamic-graph/doxygen-html/" xlink:href="../../../../../../opt/openrobots/share/doc/dynamic-graph/doxygen-html/a00092.html" target="_top" xlink:title="dynamic&#45;graph/signal\l&#45;caster.h">
<polygon fill="white" stroke="black" points="579.544,-257.5 579.544,-287.5 688.544,-287.5 688.544,-257.5 579.544,-257.5"/>
<text text-anchor="start" x="587.544" y="-275.5" font-family="Helvetica,sans-Serif" font-size="10.00">dynamic&#45;graph/signal</text>
<text text-anchor="middle" x="634.044" y="-264.5" font-family="Helvetica,sans-Serif" font-size="10.00">&#45;caster.h</text>
</a>
</g>
</g>
<!-- Node1&#45;&gt;Node18 -->
<g id="edge33" class="edge"><title>Node1&#45;&gt;Node18</title>
<path fill="none" stroke="midnightblue" d="M596.728,-447.294C601.309,-438.413 608.148,-424.113 612.044,-411 623.531,-372.334 629.39,-325.661 632.077,-297.843"/>
<polygon fill="midnightblue" stroke="midnightblue" points="635.568,-298.1 632.986,-287.825 628.597,-297.468 635.568,-298.1"/>
</g>
<!-- Node3 -->
<g id="node3" class="node"><title>Node3</title>
<polygon fill="white" stroke="#bfbfbf" points="146.044,-196 146.044,-215 202.044,-215 202.044,-196 146.044,-196"/>
<text text-anchor="middle" x="174.044" y="-203" font-family="Helvetica,sans-Serif" font-size="10.00">Python.h</text>
</g>
<!-- Node2&#45;&gt;Node3 -->
<g id="edge2" class="edge"><title>Node2&#45;&gt;Node3</title>
<path fill="none" stroke="midnightblue" d="M217.892,-257.396C209.161,-247.261 197.363,-233.567 188.205,-222.937"/>
<polygon fill="midnightblue" stroke="midnightblue" points="190.713,-220.486 181.534,-215.195 185.41,-225.055 190.713,-220.486"/>
</g>
<!-- Node4 -->
<g id="node4" class="node"><title>Node4</title>
<g id="a_node4"><a doxygen="/opt/openrobots/share/doc/dynamic-graph/doxygen-html/dynamic-graph.doxytag:../../../../../../opt/openrobots/share/doc/dynamic-graph/doxygen-html/" xlink:href="../../../../../../opt/openrobots/share/doc/dynamic-graph/doxygen-html/a00084.html" target="_top" xlink:title="dynamic&#45;graph/linear\l&#45;algebra.h">
<polygon fill="white" stroke="black" points="130.544,-123.5 130.544,-153.5 237.544,-153.5 237.544,-123.5 130.544,-123.5"/>
<text text-anchor="start" x="138.544" y="-141.5" font-family="Helvetica,sans-Serif" font-size="10.00">dynamic&#45;graph/linear</text>
<text text-anchor="middle" x="184.044" y="-130.5" font-family="Helvetica,sans-Serif" font-size="10.00">&#45;algebra.h</text>
</a>
</g>
</g>
<!-- Node2&#45;&gt;Node4 -->
<g id="edge3" class="edge"><title>Node2&#45;&gt;Node4</title>
<path fill="none" stroke="midnightblue" d="M227.9,-257.328C225.138,-240.804 219.642,-212.844 211.044,-190 207.532,-180.671 202.629,-170.903 197.964,-162.471"/>
<polygon fill="midnightblue" stroke="midnightblue" points="200.895,-160.546 192.884,-153.613 194.823,-164.029 200.895,-160.546"/>
</g>
<!-- Node5 -->
<g id="node5" class="node"><title>Node5</title>
<g id="a_node5"><a doxygen="/opt/openrobots/share/doc/dynamic-graph/doxygen-html/dynamic-graph.doxytag:../../../../../../opt/openrobots/share/doc/dynamic-graph/doxygen-html/" xlink:href="../../../../../../opt/openrobots/share/doc/dynamic-graph/doxygen-html/a00105.html" target="_top" xlink:title="dynamic&#45;graph/value.h">
<polygon fill="white" stroke="black" points="258.544,-196 258.544,-215 373.544,-215 373.544,-196 258.544,-196"/>
<text text-anchor="middle" x="316.044" y="-203" font-family="Helvetica,sans-Serif" font-size="10.00">dynamic&#45;graph/value.h</text>
</a>
</g>
</g>
<!-- Node2&#45;&gt;Node5 -->
<g id="edge4" class="edge"><title>Node2&#45;&gt;Node5</title>
<path fill="none" stroke="midnightblue" d="M248.704,-257.396C262.777,-246.759 282.037,-232.203 296.354,-221.381"/>
<polygon fill="midnightblue" stroke="midnightblue" points="298.673,-224.016 304.54,-215.195 294.452,-218.432 298.673,-224.016"/>
</g>
<!-- Node8 -->
<g id="node8" class="node"><title>Node8</title>
<g id="a_node8"><a xlink:href="a00015.html" target="_top" xlink:title="dynamic&#45;graph/python\l/exception&#45;python.hh">
<polygon fill="white" stroke="black" points="14.5436,-190.5 14.5436,-220.5 127.544,-220.5 127.544,-190.5 14.5436,-190.5"/>
<text text-anchor="start" x="22.5436" y="-208.5" font-family="Helvetica,sans-Serif" font-size="10.00">dynamic&#45;graph/python</text>
<text text-anchor="middle" x="71.0436" y="-197.5" font-family="Helvetica,sans-Serif" font-size="10.00">/exception&#45;python.hh</text>
</a>
</g>
</g>
<!-- Node2&#45;&gt;Node8 -->
<g id="edge8" class="edge"><title>Node2&#45;&gt;Node8</title>
<path fill="none" stroke="midnightblue" d="M195.543,-257.396C171.895,-247.728 140.325,-234.823 114.894,-224.426"/>
<polygon fill="midnightblue" stroke="midnightblue" points="116.058,-221.121 105.477,-220.577 113.409,-227.6 116.058,-221.121"/>
</g>
<!-- Node5&#45;&gt;Node4 -->
<g id="edge7" class="edge"><title>Node5&#45;&gt;Node4</title>
<path fill="none" stroke="midnightblue" d="M298.515,-195.869C279.113,-186.315 247.256,-170.627 222.069,-158.225"/>
<polygon fill="midnightblue" stroke="midnightblue" points="223.3,-154.929 212.782,-153.652 220.207,-161.209 223.3,-154.929"/>
</g>
<!-- Node6 -->
<g id="node6" class="node"><title>Node6</title>
<g id="a_node6"><a doxygen="/opt/openrobots/share/doc/dynamic-graph/doxygen-html/dynamic-graph.doxytag:../../../../../../opt/openrobots/share/doc/dynamic-graph/doxygen-html/" xlink:href="../../../../../../opt/openrobots/share/doc/dynamic-graph/doxygen-html/a00073.html" target="_top" xlink:title="dynamic&#45;graph/dynamic\l&#45;graph&#45;api.h">
<polygon fill="white" stroke="black" points="523.044,-56.5 523.044,-86.5 643.044,-86.5 643.044,-56.5 523.044,-56.5"/>
<text text-anchor="start" x="531.044" y="-74.5" font-family="Helvetica,sans-Serif" font-size="10.00">dynamic&#45;graph/dynamic</text>
<text text-anchor="middle" x="583.044" y="-63.5" font-family="Helvetica,sans-Serif" font-size="10.00">&#45;graph&#45;api.h</text>
</a>
</g>
</g>
<!-- Node5&#45;&gt;Node6 -->
<g id="edge5" class="edge"><title>Node5&#45;&gt;Node6</title>
<path fill="none" stroke="midnightblue" d="M354.404,-195.93C363.46,-193.946 373.086,-191.87 382.044,-190 462.76,-173.152 504.763,-211.313 564.044,-154 579.252,-139.296 583.307,-114.953 583.976,-96.6927"/>
<polygon fill="midnightblue" stroke="midnightblue" points="587.477,-96.5254 584.031,-86.5067 580.477,-96.4876 587.477,-96.5254"/>
</g>
<!-- Node7 -->
<g id="node7" class="node"><title>Node7</title>
<g id="a_node7"><a doxygen="/opt/openrobots/share/doc/dynamic-graph/doxygen-html/dynamic-graph.doxytag:../../../../../../opt/openrobots/share/doc/dynamic-graph/doxygen-html/" xlink:href="../../../../../../opt/openrobots/share/doc/dynamic-graph/doxygen-html/a00068.html" target="_top" xlink:title="dynamic&#45;graph/config.hh">
<polygon fill="white" stroke="black" points="521.544,-0.5 521.544,-19.5 644.544,-19.5 644.544,-0.5 521.544,-0.5"/>
<text text-anchor="middle" x="583.044" y="-7.5" font-family="Helvetica,sans-Serif" font-size="10.00">dynamic&#45;graph/config.hh</text>
</a>
</g>
</g>
<!-- Node6&#45;&gt;Node7 -->
<g id="edge6" class="edge"><title>Node6&#45;&gt;Node7</title>
<path fill="none" stroke="midnightblue" d="M583.044,-56.3993C583.044,-48.4664 583.044,-38.458 583.044,-29.8583"/>
<polygon fill="midnightblue" stroke="midnightblue" points="586.544,-29.6577 583.044,-19.6578 579.544,-29.6578 586.544,-29.6577"/>
</g>
<!-- Node9 -->
<g id="node9" class="node"><title>Node9</title>
<polygon fill="white" stroke="#bfbfbf" points="32.5436,-129 32.5436,-148 73.5436,-148 73.5436,-129 32.5436,-129"/>
<text text-anchor="middle" x="53.0436" y="-136" font-family="Helvetica,sans-Serif" font-size="10.00">string</text>
</g>
<!-- Node8&#45;&gt;Node9 -->
<g id="edge9" class="edge"><title>Node8&#45;&gt;Node9</title>
<path fill="none" stroke="midnightblue" d="M67.1379,-190.396C64.498,-180.863 60.9862,-168.182 58.1286,-157.862"/>
<polygon fill="midnightblue" stroke="midnightblue" points="61.4932,-156.898 55.4513,-148.195 54.7471,-158.766 61.4932,-156.898"/>
</g>
<!-- Node10 -->
<g id="node10" class="node"><title>Node10</title>
<g id="a_node10"><a doxygen="/opt/openrobots/share/doc/dynamic-graph/doxygen-html/dynamic-graph.doxytag:../../../../../../opt/openrobots/share/doc/dynamic-graph/doxygen-html/" xlink:href="../../../../../../opt/openrobots/share/doc/dynamic-graph/doxygen-html/a00082.html" target="_top" xlink:title="dynamic&#45;graph/fwd.hh">
<polygon fill="white" stroke="black" points="261.544,-62 261.544,-81 374.544,-81 374.544,-62 261.544,-62"/>
<text text-anchor="middle" x="318.044" y="-69" font-family="Helvetica,sans-Serif" font-size="10.00">dynamic&#45;graph/fwd.hh</text>
</a>
</g>
</g>
<!-- Node8&#45;&gt;Node10 -->
<g id="edge10" class="edge"><title>Node8&#45;&gt;Node10</title>
<path fill="none" stroke="midnightblue" d="M75.8726,-190.366C82.8868,-172 97.669,-140.249 121.044,-123 158.757,-95.1701 210.331,-82.6235 251.249,-76.9931"/>
<polygon fill="midnightblue" stroke="midnightblue" points="251.927,-80.4353 261.407,-75.7056 251.047,-73.4908 251.927,-80.4353"/>
</g>
<!-- Node11 -->
<g id="node11" class="node"><title>Node11</title>
<g id="a_node11"><a doxygen="/opt/openrobots/share/doc/dynamic-graph/doxygen-html/dynamic-graph.doxytag:../../../../../../opt/openrobots/share/doc/dynamic-graph/doxygen-html/" xlink:href="../../../../../../opt/openrobots/share/doc/dynamic-graph/doxygen-html/a00077.html" target="_top" xlink:title="dynamic&#45;graph/exception\l&#45;abstract.h">
<polygon fill="white" stroke="black" points="255.544,-123.5 255.544,-153.5 380.544,-153.5 380.544,-123.5 255.544,-123.5"/>
<text text-anchor="start" x="263.544" y="-141.5" font-family="Helvetica,sans-Serif" font-size="10.00">dynamic&#45;graph/exception</text>
<text text-anchor="middle" x="318.044" y="-130.5" font-family="Helvetica,sans-Serif" font-size="10.00">&#45;abstract.h</text>
</a>
</g>
</g>
<!-- Node8&#45;&gt;Node11 -->
<g id="edge11" class="edge"><title>Node8&#45;&gt;Node11</title>
<path fill="none" stroke="midnightblue" d="M124.335,-190.476C162.592,-180.408 214.308,-166.799 254.681,-156.174"/>
<polygon fill="midnightblue" stroke="midnightblue" points="255.642,-159.541 264.422,-153.611 253.861,-152.771 255.642,-159.541"/>
</g>
<!-- Node11&#45;&gt;Node6 -->
<g id="edge13" class="edge"><title>Node11&#45;&gt;Node6</title>
<path fill="none" stroke="midnightblue" d="M375.218,-123.476C416.437,-113.366 472.218,-99.6838 515.612,-89.0398"/>
<polygon fill="midnightblue" stroke="midnightblue" points="516.636,-92.3924 525.514,-86.6109 514.969,-85.594 516.636,-92.3924"/>
</g>
<!-- Node11&#45;&gt;Node10 -->
<g id="edge12" class="edge"><title>Node11&#45;&gt;Node10</title>
<path fill="none" stroke="midnightblue" d="M318.044,-123.396C318.044,-114.064 318.044,-101.714 318.044,-91.5173"/>
<polygon fill="midnightblue" stroke="midnightblue" points="321.544,-91.1945 318.044,-81.1945 314.544,-91.1946 321.544,-91.1945"/>
</g>
<!-- Node14&#45;&gt;Node10 -->
<g id="edge17" class="edge"><title>Node14&#45;&gt;Node10</title>
<path fill="none" stroke="midnightblue" d="M312.446,-329.136C220.159,-312.033 39.9231,-272.691 5.0436,-221 -10.6388,-197.759 15.5222,-129.853 23.0436,-123 55.6662,-93.276 174.889,-80.7635 251.417,-75.7087"/>
<polygon fill="midnightblue" stroke="midnightblue" points="251.697,-79.1981 261.455,-75.072 251.254,-72.2121 251.697,-79.1981"/>
</g>
<!-- Node15 -->
<g id="node15" class="node"><title>Node15</title>
<g id="a_node15"><a doxygen="/opt/openrobots/share/doc/dynamic-graph/doxygen-html/dynamic-graph.doxytag:../../../../../../opt/openrobots/share/doc/dynamic-graph/doxygen-html/" xlink:href="../../../../../../opt/openrobots/share/doc/dynamic-graph/doxygen-html/a00079.html" target="_top" xlink:title="dynamic&#45;graph/exception\l&#45;signal.h">
<polygon fill="white" stroke="black" points="391.544,-190.5 391.544,-220.5 516.544,-220.5 516.544,-190.5 391.544,-190.5"/>
<text text-anchor="start" x="399.544" y="-208.5" font-family="Helvetica,sans-Serif" font-size="10.00">dynamic&#45;graph/exception</text>
<text text-anchor="middle" x="454.044" y="-197.5" font-family="Helvetica,sans-Serif" font-size="10.00">&#45;signal.h</text>
</a>
</g>
</g>
<!-- Node14&#45;&gt;Node15 -->
<g id="edge18" class="edge"><title>Node14&#45;&gt;Node15</title>
<path fill="none" stroke="midnightblue" d="M376.354,-324.374C391.399,-301.548 421.182,-256.359 439.185,-229.045"/>
<polygon fill="midnightblue" stroke="midnightblue" points="442.219,-230.8 444.8,-220.525 436.374,-226.948 442.219,-230.8"/>
</g>
<!-- Node15&#45;&gt;Node6 -->
<g id="edge20" class="edge"><title>Node15&#45;&gt;Node6</title>
<path fill="none" stroke="midnightblue" d="M516.79,-198.725C546.236,-192.502 578.798,-179.794 597.044,-154 608.964,-137.148 603.078,-113.517 595.627,-96.0375"/>
<polygon fill="midnightblue" stroke="midnightblue" points="598.596,-94.1236 591.182,-86.5544 592.258,-97.0946 598.596,-94.1236"/>
</g>
<!-- Node15&#45;&gt;Node10 -->
<g id="edge19" class="edge"><title>Node15&#45;&gt;Node10</title>
<path fill="none" stroke="midnightblue" d="M444.531,-190.247C432.721,-173.149 411.389,-144.149 389.044,-123 374.444,-109.182 355.87,-96.102 341.381,-86.7171"/>
<polygon fill="midnightblue" stroke="midnightblue" points="342.854,-83.5069 332.533,-81.1128 339.108,-89.4205 342.854,-83.5069"/>
</g>
<!-- Node15&#45;&gt;Node11 -->
<g id="edge21" class="edge"><title>Node15&#45;&gt;Node11</title>
<path fill="none" stroke="midnightblue" d="M424.534,-190.396C404.662,-180.899 378.253,-168.276 356.705,-157.978"/>
<polygon fill="midnightblue" stroke="midnightblue" points="358.028,-154.731 347.496,-153.577 355.009,-161.047 358.028,-154.731"/>
</g>
<!-- Node16&#45;&gt;Node14 -->
<g id="edge24" class="edge"><title>Node16&#45;&gt;Node14</title>
<path fill="none" stroke="midnightblue" d="M519.541,-391.475C493.293,-382.701 451.67,-368.788 418.536,-357.712"/>
<polygon fill="midnightblue" stroke="midnightblue" points="419.588,-354.374 408.995,-354.523 417.369,-361.013 419.588,-354.374"/>
</g>
<!-- Node16&#45;&gt;Node15 -->
<g id="edge23" class="edge"><title>Node16&#45;&gt;Node15</title>
<path fill="none" stroke="midnightblue" d="M518.748,-391.498C501.63,-384.516 480.435,-372.833 469.044,-355 444.712,-316.908 446.574,-261.781 450.231,-230.519"/>
<polygon fill="midnightblue" stroke="midnightblue" points="453.712,-230.897 451.56,-220.523 446.773,-229.975 453.712,-230.897"/>
</g>
<!-- Node17 -->
<g id="node17" class="node"><title>Node17</title>
<g id="a_node17"><a doxygen="/opt/openrobots/share/doc/dynamic-graph/doxygen-html/dynamic-graph.doxytag:../../../../../../opt/openrobots/share/doc/dynamic-graph/doxygen-html/" xlink:href="../../../../../../opt/openrobots/share/doc/dynamic-graph/doxygen-html/a00098.html" target="_top" xlink:title="dynamic&#45;graph/signal.t.cpp">
<polygon fill="white" stroke="black" points="478.044,-330 478.044,-349 612.044,-349 612.044,-330 478.044,-330"/>
<text text-anchor="middle" x="545.044" y="-337" font-family="Helvetica,sans-Serif" font-size="10.00">dynamic&#45;graph/signal.t.cpp</text>
</a>
</g>
</g>
<!-- Node16&#45;&gt;Node17 -->
<g id="edge25" class="edge"><title>Node16&#45;&gt;Node17</title>
<path fill="none" stroke="midnightblue" d="M540.143,-391.475C538.312,-383.08 537.841,-369.981 538.729,-359.163"/>
<polygon fill="midnightblue" stroke="midnightblue" points="542.23,-359.397 540.146,-349.009 535.297,-358.429 542.23,-359.397"/>
</g>
<!-- Node17&#45;&gt;Node16 -->
<g id="edge26" class="edge"><title>Node17&#45;&gt;Node16</title>
<path fill="none" stroke="midnightblue" d="M549.941,-349.009C551.773,-357.398 552.247,-370.496 551.36,-381.317"/>
<polygon fill="midnightblue" stroke="midnightblue" points="547.858,-381.088 549.944,-391.475 554.791,-382.054 547.858,-381.088"/>
</g>
<!-- Node17&#45;&gt;Node18 -->
<g id="edge27" class="edge"><title>Node17&#45;&gt;Node18</title>
<path fill="none" stroke="midnightblue" d="M557.047,-329.734C569.653,-320.527 589.909,-305.733 606.482,-293.629"/>
<polygon fill="midnightblue" stroke="midnightblue" points="608.741,-296.313 614.752,-287.589 604.613,-290.66 608.741,-296.313"/>
</g>
<!-- Node19 -->
<g id="node19" class="node"><title>Node19</title>
<g id="a_node19"><a doxygen="/opt/openrobots/share/doc/dynamic-graph/doxygen-html/dynamic-graph.doxytag:../../../../../../opt/openrobots/share/doc/dynamic-graph/doxygen-html/" xlink:href="../../../../../../opt/openrobots/share/doc/dynamic-graph/doxygen-html/a00070.html" target="_top" xlink:title="dynamic&#45;graph/debug.h">
<polygon fill="white" stroke="black" points="437.044,-129 437.044,-148 555.044,-148 555.044,-129 437.044,-129"/>
<text text-anchor="middle" x="496.044" y="-136" font-family="Helvetica,sans-Serif" font-size="10.00">dynamic&#45;graph/debug.h</text>
</a>
</g>
</g>
<!-- Node17&#45;&gt;Node19 -->
<g id="edge30" class="edge"><title>Node17&#45;&gt;Node19</title>
<path fill="none" stroke="midnightblue" d="M545.03,-329.865C544.753,-306.611 542.369,-240.986 525.044,-190 521.043,-178.226 514.192,-166.108 508.153,-156.695"/>
<polygon fill="midnightblue" stroke="midnightblue" points="510.997,-154.652 502.521,-148.296 505.183,-158.551 510.997,-154.652"/>
</g>
<!-- Node18&#45;&gt;Node6 -->
<g id="edge28" class="edge"><title>Node18&#45;&gt;Node6</title>
<path fill="none" stroke="midnightblue" d="M634.248,-257.099C634.194,-230.004 631.969,-169.946 615.044,-123 611.528,-113.248 605.885,-103.419 600.309,-95.057"/>
<polygon fill="midnightblue" stroke="midnightblue" points="603.003,-92.8024 594.39,-86.6325 597.275,-96.8269 603.003,-92.8024"/>
</g>
<!-- Node18&#45;&gt;Node15 -->
<g id="edge29" class="edge"><title>Node18&#45;&gt;Node15</title>
<path fill="none" stroke="midnightblue" d="M594.986,-257.396C567.861,-247.601 531.529,-234.481 502.548,-224.015"/>
<polygon fill="midnightblue" stroke="midnightblue" points="503.619,-220.681 493.025,-220.577 501.241,-227.265 503.619,-220.681"/>
</g>
<!-- Node19&#45;&gt;Node6 -->
<g id="edge32" class="edge"><title>Node19&#45;&gt;Node6</title>
<path fill="none" stroke="midnightblue" d="M507.777,-128.734C520.1,-119.527 539.901,-104.733 556.101,-92.6293"/>
<polygon fill="midnightblue" stroke="midnightblue" points="558.27,-95.3782 564.186,-86.589 554.08,-89.7704 558.27,-95.3782"/>
</g>
<!-- Node19&#45;&gt;Node10 -->
<g id="edge31" class="edge"><title>Node19&#45;&gt;Node10</title>
<path fill="none" stroke="midnightblue" d="M472.407,-128.869C441.334,-117.522 386.573,-97.5246 351.322,-84.6522"/>
<polygon fill="midnightblue" stroke="midnightblue" points="352.089,-81.2062 341.495,-81.0637 349.688,-87.7815 352.089,-81.2062"/>
</g>
</g>
</svg>
