<?xml version="1.0" encoding="UTF-8" standalone="no"?>
<!DOCTYPE svg PUBLIC "-//W3C//DTD SVG 1.1//EN"
 "http://www.w3.org/Graphics/SVG/1.1/DTD/svg11.dtd">
<!-- Generated by graphviz version 2.38.0 (20140413.2041)
 -->
<!-- Title: interpreter.hh Pages: 1 -->
<svg width="386pt" height="162pt"
 viewBox="0.00 0.00 385.50 162.00" xmlns="http://www.w3.org/2000/svg" xmlns:xlink="http://www.w3.org/1999/xlink">
<g id="graph0" class="graph" transform="scale(1 1) rotate(0) translate(4 158)">
<title>interpreter.hh</title>
<polygon fill="white" stroke="none" points="-4,4 -4,-158 381.5,-158 381.5,4 -4,4"/>
<!-- Node1 -->
<g id="node1" class="node"><title>Node1</title>
<polygon fill="#bfbfbf" stroke="black" points="105,-134.5 105,-153.5 179,-153.5 179,-134.5 105,-134.5"/>
<text text-anchor="middle" x="142" y="-141.5" font-family="Helvetica,sans-Serif" font-size="10.00">interpreter.hh</text>
</g>
<!-- Node2 -->
<g id="node2" class="node"><title>Node2</title>
<polygon fill="white" stroke="#bfbfbf" points="-3.55271e-15,-73 -3.55271e-15,-92 56,-92 56,-73 -3.55271e-15,-73"/>
<text text-anchor="middle" x="28" y="-80" font-family="Helvetica,sans-Serif" font-size="10.00">Python.h</text>
</g>
<!-- Node1&#45;&gt;Node2 -->
<g id="edge1" class="edge"><title>Node1&#45;&gt;Node2</title>
<path fill="none" stroke="midnightblue" d="M125.667,-134.475C106.789,-124.622 75.4935,-108.288 53.4244,-96.7697"/>
<polygon fill="midnightblue" stroke="midnightblue" points="54.7878,-93.5333 44.3031,-92.0091 51.5488,-99.7389 54.7878,-93.5333"/>
</g>
<!-- Node3 -->
<g id="node3" class="node"><title>Node3</title>
<polygon fill="white" stroke="#bfbfbf" points="74.5,-73 74.5,-92 115.5,-92 115.5,-73 74.5,-73"/>
<text text-anchor="middle" x="95" y="-80" font-family="Helvetica,sans-Serif" font-size="10.00">string</text>
</g>
<!-- Node1&#45;&gt;Node3 -->
<g id="edge2" class="edge"><title>Node1&#45;&gt;Node3</title>
<path fill="none" stroke="midnightblue" d="M135.266,-134.475C128.216,-125.55 116.965,-111.307 108.146,-100.143"/>
<polygon fill="midnightblue" stroke="midnightblue" points="110.667,-97.6867 101.721,-92.0091 105.174,-102.026 110.667,-97.6867"/>
</g>
<!-- Node4 -->
<g id="node4" class="node"><title>Node4</title>
<g id="a_node4"><a xlink:href="a00008.html" target="_top" xlink:title="dynamic&#45;graph/python\l/api.hh">
<polygon fill="white" stroke="black" points="133.5,-67.5 133.5,-97.5 246.5,-97.5 246.5,-67.5 133.5,-67.5"/>
<text text-anchor="start" x="141.5" y="-85.5" font-family="Helvetica,sans-Serif" font-size="10.00">dynamic&#45;graph/python</text>
<text text-anchor="middle" x="190" y="-74.5" font-family="Helvetica,sans-Serif" font-size="10.00">/api.hh</text>
</a>
</g>
</g>
<!-- Node1&#45;&gt;Node4 -->
<g id="edge3" class="edge"><title>Node1&#45;&gt;Node4</title>
<path fill="none" stroke="midnightblue" d="M148.877,-134.475C154.953,-126.944 164.083,-115.626 172.199,-105.566"/>
<polygon fill="midnightblue" stroke="midnightblue" points="175.133,-107.504 178.687,-97.523 169.684,-103.108 175.133,-107.504"/>
</g>
<!-- Node6 -->
<g id="node6" class="node"><title>Node6</title>
<polygon fill="white" stroke="#bfbfbf" points="264.5,-67.5 264.5,-97.5 377.5,-97.5 377.5,-67.5 264.5,-67.5"/>
<text text-anchor="start" x="272.5" y="-85.5" font-family="Helvetica,sans-Serif" font-size="10.00">dynamic&#45;graph/python</text>
<text text-anchor="middle" x="321" y="-74.5" font-family="Helvetica,sans-Serif" font-size="10.00">/deprecated.hh</text>
</g>
<!-- Node1&#45;&gt;Node6 -->
<g id="edge5" class="edge"><title>Node1&#45;&gt;Node6</title>
<path fill="none" stroke="midnightblue" d="M167.646,-134.475C194.042,-125.701 235.898,-111.788 269.219,-100.712"/>
<polygon fill="midnightblue" stroke="midnightblue" points="270.428,-103.999 278.813,-97.523 268.22,-97.356 270.428,-103.999"/>
</g>
<!-- Node5 -->
<g id="node5" class="node"><title>Node5</title>
<polygon fill="white" stroke="#bfbfbf" points="133.5,-0.5 133.5,-30.5 246.5,-30.5 246.5,-0.5 133.5,-0.5"/>
<text text-anchor="start" x="141.5" y="-18.5" font-family="Helvetica,sans-Serif" font-size="10.00">dynamic&#45;graph/python</text>
<text text-anchor="middle" x="190" y="-7.5" font-family="Helvetica,sans-Serif" font-size="10.00">/config.hh</text>
</g>
<!-- Node4&#45;&gt;Node5 -->
<g id="edge4" class="edge"><title>Node4&#45;&gt;Node5</title>
<path fill="none" stroke="midnightblue" d="M190,-67.396C190,-59.6448 190,-49.8122 190,-40.8601"/>
<polygon fill="midnightblue" stroke="midnightblue" points="193.5,-40.5765 190,-30.5765 186.5,-40.5765 193.5,-40.5765"/>
</g>
</g>
</svg>
