<?xml version="1.0" encoding="UTF-8" standalone="no"?>
<!DOCTYPE svg PUBLIC "-//W3C//DTD SVG 1.1//EN"
 "http://www.w3.org/Graphics/SVG/1.1/DTD/svg11.dtd">
<!-- Generated by graphviz version 2.38.0 (20140413.2041)
 -->
<!-- Title: dynamic&#45;graph&#45;py.cc Pages: 1 -->
<svg width="630pt" height="352pt"
 viewBox="0.00 0.00 630.00 352.00" xmlns="http://www.w3.org/2000/svg" xmlns:xlink="http://www.w3.org/1999/xlink">
<g id="graph0" class="graph" transform="scale(1 1) rotate(0) translate(4 348)">
<title>dynamic&#45;graph&#45;py.cc</title>
<polygon fill="white" stroke="none" points="-4,4 -4,-348 626,-348 626,4 -4,4"/>
<!-- Node1 -->
<g id="node1" class="node"><title>Node1</title>
<polygon fill="#bfbfbf" stroke="black" points="207.5,-324.5 207.5,-343.5 314.5,-343.5 314.5,-324.5 207.5,-324.5"/>
<text text-anchor="middle" x="261" y="-331.5" font-family="Helvetica,sans-Serif" font-size="10.00">dynamic&#45;graph&#45;py.cc</text>
</g>
<!-- Node2 -->
<g id="node2" class="node"><title>Node2</title>
<polygon fill="white" stroke="#bfbfbf" points="0,-263 0,-282 56,-282 56,-263 0,-263"/>
<text text-anchor="middle" x="28" y="-270" font-family="Helvetica,sans-Serif" font-size="10.00">Python.h</text>
</g>
<!-- Node1&#45;&gt;Node2 -->
<g id="edge1" class="edge"><title>Node1&#45;&gt;Node2</title>
<path fill="none" stroke="midnightblue" d="M214.948,-324.43C174.903,-316.504 115.537,-303.61 65,-288 62.5775,-287.252 60.088,-286.419 57.6006,-285.543"/>
<polygon fill="midnightblue" stroke="midnightblue" points="58.7572,-282.239 48.1645,-282.025 56.3118,-288.798 58.7572,-282.239"/>
</g>
<!-- Node3 -->
<g id="node3" class="node"><title>Node3</title>
<polygon fill="white" stroke="#bfbfbf" points="74,-263 74,-282 128,-282 128,-263 74,-263"/>
<text text-anchor="middle" x="101" y="-270" font-family="Helvetica,sans-Serif" font-size="10.00">iostream</text>
</g>
<!-- Node1&#45;&gt;Node3 -->
<g id="edge2" class="edge"><title>Node1&#45;&gt;Node3</title>
<path fill="none" stroke="midnightblue" d="M236.672,-324.453C211.603,-315.58 171.436,-301.179 137,-288 135.159,-287.296 133.269,-286.563 131.365,-285.817"/>
<polygon fill="midnightblue" stroke="midnightblue" points="132.477,-282.493 121.891,-282.057 129.895,-289 132.477,-282.493"/>
</g>
<!-- Node4 -->
<g id="node4" class="node"><title>Node4</title>
<polygon fill="white" stroke="#bfbfbf" points="146,-263 146,-282 198,-282 198,-263 146,-263"/>
<text text-anchor="middle" x="172" y="-270" font-family="Helvetica,sans-Serif" font-size="10.00">sstream</text>
</g>
<!-- Node1&#45;&gt;Node4 -->
<g id="edge3" class="edge"><title>Node1&#45;&gt;Node4</title>
<path fill="none" stroke="midnightblue" d="M248.248,-324.475C233.973,-314.931 210.603,-299.307 193.492,-287.868"/>
<polygon fill="midnightblue" stroke="midnightblue" points="194.986,-284.657 184.728,-282.009 191.096,-290.477 194.986,-284.657"/>
</g>
<!-- Node5 -->
<g id="node5" class="node"><title>Node5</title>
<polygon fill="white" stroke="#bfbfbf" points="216.5,-263 216.5,-282 257.5,-282 257.5,-263 216.5,-263"/>
<text text-anchor="middle" x="237" y="-270" font-family="Helvetica,sans-Serif" font-size="10.00">string</text>
</g>
<!-- Node1&#45;&gt;Node5 -->
<g id="edge4" class="edge"><title>Node1&#45;&gt;Node5</title>
<path fill="none" stroke="midnightblue" d="M257.561,-324.475C254.104,-315.904 248.668,-302.427 244.254,-291.483"/>
<polygon fill="midnightblue" stroke="midnightblue" points="247.419,-289.974 240.432,-282.009 240.927,-292.592 247.419,-289.974"/>
</g>
<!-- Node6 -->
<g id="node6" class="node"><title>Node6</title>
<g id="a_node6"><a doxygen="/opt/openrobots/share/doc/dynamic-graph/doxygen-html/dynamic-graph.doxytag:../../../../../../opt/openrobots/share/doc/dynamic-graph/doxygen-html/" xlink:href="../../../../../../opt/openrobots/share/doc/dynamic-graph/doxygen-html/a00070.html" target="_top" xlink:title="dynamic&#45;graph/debug.h">
<polygon fill="white" stroke="black" points="200,-129 200,-148 318,-148 318,-129 200,-129"/>
<text text-anchor="middle" x="259" y="-136" font-family="Helvetica,sans-Serif" font-size="10.00">dynamic&#45;graph/debug.h</text>
</a>
</g>
</g>
<!-- Node1&#45;&gt;Node6 -->
<g id="edge5" class="edge"><title>Node1&#45;&gt;Node6</title>
<path fill="none" stroke="midnightblue" d="M262.491,-324.407C263.976,-315.376 266.154,-300.74 267,-288 270.096,-241.357 264.811,-186.411 261.451,-158.237"/>
<polygon fill="midnightblue" stroke="midnightblue" points="264.911,-157.698 260.199,-148.208 257.965,-158.565 264.911,-157.698"/>
</g>
<!-- Node10 -->
<g id="node10" class="node"><title>Node10</title>
<g id="a_node10"><a doxygen="/opt/openrobots/share/doc/dynamic-graph/doxygen-html/dynamic-graph.doxytag:../../../../../../opt/openrobots/share/doc/dynamic-graph/doxygen-html/" xlink:href="../../../../../../opt/openrobots/share/doc/dynamic-graph/doxygen-html/a00078.html" target="_top" xlink:title="dynamic&#45;graph/exception\l&#45;factory.h">
<polygon fill="white" stroke="black" points="314.5,-190.5 314.5,-220.5 439.5,-220.5 439.5,-190.5 314.5,-190.5"/>
<text text-anchor="start" x="322.5" y="-208.5" font-family="Helvetica,sans-Serif" font-size="10.00">dynamic&#45;graph/exception</text>
<text text-anchor="middle" x="377" y="-197.5" font-family="Helvetica,sans-Serif" font-size="10.00">&#45;factory.h</text>
</a>
</g>
</g>
<!-- Node1&#45;&gt;Node10 -->
<g id="edge9" class="edge"><title>Node1&#45;&gt;Node10</title>
<path fill="none" stroke="midnightblue" d="M268.973,-324.305C286.94,-304.712 331.042,-256.618 357.002,-228.308"/>
<polygon fill="midnightblue" stroke="midnightblue" points="359.627,-230.624 363.806,-220.888 354.468,-225.893 359.627,-230.624"/>
</g>
<!-- Node12 -->
<g id="node12" class="node"><title>Node12</title>
<g id="a_node12"><a doxygen="/opt/openrobots/share/doc/dynamic-graph/doxygen-html/dynamic-graph.doxytag:../../../../../../opt/openrobots/share/doc/dynamic-graph/doxygen-html/" xlink:href="../../../../../../opt/openrobots/share/doc/dynamic-graph/doxygen-html/a00090.html" target="_top" xlink:title="dynamic&#45;graph/signal\l&#45;base.h">
<polygon fill="white" stroke="black" points="422.5,-257.5 422.5,-287.5 531.5,-287.5 531.5,-257.5 422.5,-257.5"/>
<text text-anchor="start" x="430.5" y="-275.5" font-family="Helvetica,sans-Serif" font-size="10.00">dynamic&#45;graph/signal</text>
<text text-anchor="middle" x="477" y="-264.5" font-family="Helvetica,sans-Serif" font-size="10.00">&#45;base.h</text>
</a>
</g>
</g>
<!-- Node1&#45;&gt;Node12 -->
<g id="edge15" class="edge"><title>Node1&#45;&gt;Node12</title>
<path fill="none" stroke="midnightblue" d="M291.948,-324.475C324.278,-315.569 375.829,-301.369 416.32,-290.215"/>
<polygon fill="midnightblue" stroke="midnightblue" points="417.382,-293.553 426.093,-287.523 415.523,-286.804 417.382,-293.553"/>
</g>
<!-- Node14 -->
<g id="node14" class="node"><title>Node14</title>
<g id="a_node14"><a xlink:href="a00016.html" target="_top" xlink:title="exception.hh">
<polygon fill="white" stroke="black" points="550,-263 550,-282 622,-282 622,-263 550,-263"/>
<text text-anchor="middle" x="586" y="-270" font-family="Helvetica,sans-Serif" font-size="10.00">exception.hh</text>
</a>
</g>
</g>
<!-- Node1&#45;&gt;Node14 -->
<g id="edge21" class="edge"><title>Node1&#45;&gt;Node14</title>
<path fill="none" stroke="midnightblue" d="M314.635,-326.848C371.352,-319.77 463.202,-306.671 541,-288 544.647,-287.125 548.425,-286.1 552.172,-285.007"/>
<polygon fill="midnightblue" stroke="midnightblue" points="553.377,-288.299 561.904,-282.011 551.317,-281.609 553.377,-288.299"/>
</g>
<!-- Node7 -->
<g id="node7" class="node"><title>Node7</title>
<g id="a_node7"><a doxygen="/opt/openrobots/share/doc/dynamic-graph/doxygen-html/dynamic-graph.doxytag:../../../../../../opt/openrobots/share/doc/dynamic-graph/doxygen-html/" xlink:href="../../../../../../opt/openrobots/share/doc/dynamic-graph/doxygen-html/a00082.html" target="_top" xlink:title="dynamic&#45;graph/fwd.hh">
<polygon fill="white" stroke="black" points="433.5,-62 433.5,-81 546.5,-81 546.5,-62 433.5,-62"/>
<text text-anchor="middle" x="490" y="-69" font-family="Helvetica,sans-Serif" font-size="10.00">dynamic&#45;graph/fwd.hh</text>
</a>
</g>
</g>
<!-- Node6&#45;&gt;Node7 -->
<g id="edge6" class="edge"><title>Node6&#45;&gt;Node7</title>
<path fill="none" stroke="midnightblue" d="M289.675,-128.869C330.865,-117.278 404.131,-96.6624 449.722,-83.8335"/>
<polygon fill="midnightblue" stroke="midnightblue" points="450.888,-87.1416 459.566,-81.0637 448.992,-80.4032 450.888,-87.1416"/>
</g>
<!-- Node8 -->
<g id="node8" class="node"><title>Node8</title>
<g id="a_node8"><a doxygen="/opt/openrobots/share/doc/dynamic-graph/doxygen-html/dynamic-graph.doxytag:../../../../../../opt/openrobots/share/doc/dynamic-graph/doxygen-html/" xlink:href="../../../../../../opt/openrobots/share/doc/dynamic-graph/doxygen-html/a00073.html" target="_top" xlink:title="dynamic&#45;graph/dynamic\l&#45;graph&#45;api.h">
<polygon fill="white" stroke="black" points="247,-56.5 247,-86.5 367,-86.5 367,-56.5 247,-56.5"/>
<text text-anchor="start" x="255" y="-74.5" font-family="Helvetica,sans-Serif" font-size="10.00">dynamic&#45;graph/dynamic</text>
<text text-anchor="middle" x="307" y="-63.5" font-family="Helvetica,sans-Serif" font-size="10.00">&#45;graph&#45;api.h</text>
</a>
</g>
</g>
<!-- Node6&#45;&gt;Node8 -->
<g id="edge7" class="edge"><title>Node6&#45;&gt;Node8</title>
<path fill="none" stroke="midnightblue" d="M265.473,-128.734C271.898,-120.034 282.007,-106.345 290.642,-94.6511"/>
<polygon fill="midnightblue" stroke="midnightblue" points="293.471,-96.7125 296.596,-86.589 287.84,-92.5542 293.471,-96.7125"/>
</g>
<!-- Node9 -->
<g id="node9" class="node"><title>Node9</title>
<g id="a_node9"><a doxygen="/opt/openrobots/share/doc/dynamic-graph/doxygen-html/dynamic-graph.doxytag:../../../../../../opt/openrobots/share/doc/dynamic-graph/doxygen-html/" xlink:href="../../../../../../opt/openrobots/share/doc/dynamic-graph/doxygen-html/a00068.html" target="_top" xlink:title="dynamic&#45;graph/config.hh">
<polygon fill="white" stroke="black" points="245.5,-0.5 245.5,-19.5 368.5,-19.5 368.5,-0.5 245.5,-0.5"/>
<text text-anchor="middle" x="307" y="-7.5" font-family="Helvetica,sans-Serif" font-size="10.00">dynamic&#45;graph/config.hh</text>
</a>
</g>
</g>
<!-- Node8&#45;&gt;Node9 -->
<g id="edge8" class="edge"><title>Node8&#45;&gt;Node9</title>
<path fill="none" stroke="midnightblue" d="M307,-56.3993C307,-48.4664 307,-38.458 307,-29.8583"/>
<polygon fill="midnightblue" stroke="midnightblue" points="310.5,-29.6577 307,-19.6578 303.5,-29.6578 310.5,-29.6577"/>
</g>
<!-- Node10&#45;&gt;Node7 -->
<g id="edge10" class="edge"><title>Node10&#45;&gt;Node7</title>
<path fill="none" stroke="midnightblue" d="M420.312,-190.391C438.468,-182.409 458.274,-170.622 471,-154 484.977,-135.744 488.934,-108.915 489.918,-91.0885"/>
<polygon fill="midnightblue" stroke="midnightblue" points="493.417,-91.1794 490.211,-81.0814 486.42,-90.9749 493.417,-91.1794"/>
</g>
<!-- Node10&#45;&gt;Node8 -->
<g id="edge11" class="edge"><title>Node10&#45;&gt;Node8</title>
<path fill="none" stroke="midnightblue" d="M314.134,-195.704C266.262,-187.568 206.092,-173.736 191,-154 169.706,-126.153 208.013,-104.065 246.193,-89.9468"/>
<polygon fill="midnightblue" stroke="midnightblue" points="247.598,-93.1624 255.861,-86.5306 245.266,-86.5623 247.598,-93.1624"/>
</g>
<!-- Node11 -->
<g id="node11" class="node"><title>Node11</title>
<g id="a_node11"><a doxygen="/opt/openrobots/share/doc/dynamic-graph/doxygen-html/dynamic-graph.doxytag:../../../../../../opt/openrobots/share/doc/dynamic-graph/doxygen-html/" xlink:href="../../../../../../opt/openrobots/share/doc/dynamic-graph/doxygen-html/a00077.html" target="_top" xlink:title="dynamic&#45;graph/exception\l&#45;abstract.h">
<polygon fill="white" stroke="black" points="336.5,-123.5 336.5,-153.5 461.5,-153.5 461.5,-123.5 336.5,-123.5"/>
<text text-anchor="start" x="344.5" y="-141.5" font-family="Helvetica,sans-Serif" font-size="10.00">dynamic&#45;graph/exception</text>
<text text-anchor="middle" x="399" y="-130.5" font-family="Helvetica,sans-Serif" font-size="10.00">&#45;abstract.h</text>
</a>
</g>
</g>
<!-- Node10&#45;&gt;Node11 -->
<g id="edge12" class="edge"><title>Node10&#45;&gt;Node11</title>
<path fill="none" stroke="midnightblue" d="M381.774,-190.396C384.455,-182.474 387.872,-172.379 390.954,-163.271"/>
<polygon fill="midnightblue" stroke="midnightblue" points="394.345,-164.171 394.236,-153.577 387.714,-161.927 394.345,-164.171"/>
</g>
<!-- Node11&#45;&gt;Node7 -->
<g id="edge13" class="edge"><title>Node11&#45;&gt;Node7</title>
<path fill="none" stroke="midnightblue" d="M418.746,-123.396C433.865,-112.597 454.641,-97.7564 469.858,-86.8872"/>
<polygon fill="midnightblue" stroke="midnightblue" points="471.987,-89.6675 478.09,-81.007 467.918,-83.9714 471.987,-89.6675"/>
</g>
<!-- Node11&#45;&gt;Node8 -->
<g id="edge14" class="edge"><title>Node11&#45;&gt;Node8</title>
<path fill="none" stroke="midnightblue" d="M379.037,-123.396C366.258,-114.367 349.481,-102.514 335.334,-92.5184"/>
<polygon fill="midnightblue" stroke="midnightblue" points="337.111,-89.4883 326.924,-86.5765 333.071,-95.2054 337.111,-89.4883"/>
</g>
<!-- Node12&#45;&gt;Node7 -->
<g id="edge16" class="edge"><title>Node12&#45;&gt;Node7</title>
<path fill="none" stroke="midnightblue" d="M521.914,-257.448C550.522,-247.487 583.714,-233.689 592,-221 624.615,-171.057 552.029,-113.112 512.883,-86.8047"/>
<polygon fill="midnightblue" stroke="midnightblue" points="514.468,-83.6587 504.185,-81.108 510.633,-89.5147 514.468,-83.6587"/>
</g>
<!-- Node13 -->
<g id="node13" class="node"><title>Node13</title>
<g id="a_node13"><a doxygen="/opt/openrobots/share/doc/dynamic-graph/doxygen-html/dynamic-graph.doxytag:../../../../../../opt/openrobots/share/doc/dynamic-graph/doxygen-html/" xlink:href="../../../../../../opt/openrobots/share/doc/dynamic-graph/doxygen-html/a00079.html" target="_top" xlink:title="dynamic&#45;graph/exception\l&#45;signal.h">
<polygon fill="white" stroke="black" points="457.5,-190.5 457.5,-220.5 582.5,-220.5 582.5,-190.5 457.5,-190.5"/>
<text text-anchor="start" x="465.5" y="-208.5" font-family="Helvetica,sans-Serif" font-size="10.00">dynamic&#45;graph/exception</text>
<text text-anchor="middle" x="520" y="-197.5" font-family="Helvetica,sans-Serif" font-size="10.00">&#45;signal.h</text>
</a>
</g>
</g>
<!-- Node12&#45;&gt;Node13 -->
<g id="edge17" class="edge"><title>Node12&#45;&gt;Node13</title>
<path fill="none" stroke="midnightblue" d="M486.33,-257.396C491.796,-249.134 498.826,-238.507 505.048,-229.102"/>
<polygon fill="midnightblue" stroke="midnightblue" points="508.09,-230.848 510.688,-220.577 502.251,-226.986 508.09,-230.848"/>
</g>
<!-- Node13&#45;&gt;Node7 -->
<g id="edge18" class="edge"><title>Node13&#45;&gt;Node7</title>
<path fill="none" stroke="midnightblue" d="M529.411,-190.269C539.117,-173.69 551.588,-145.678 542,-123 535.908,-108.591 523.47,-96.2679 512.287,-87.4025"/>
<polygon fill="midnightblue" stroke="midnightblue" points="514.219,-84.4772 504.105,-81.3198 510.042,-90.0949 514.219,-84.4772"/>
</g>
<!-- Node13&#45;&gt;Node8 -->
<g id="edge19" class="edge"><title>Node13&#45;&gt;Node8</title>
<path fill="none" stroke="midnightblue" d="M515.101,-190.221C508.129,-171.994 493.622,-140.706 471,-123 444.115,-101.958 408.437,-89.6349 377.225,-82.4416"/>
<polygon fill="midnightblue" stroke="midnightblue" points="377.779,-78.9806 367.265,-80.2819 376.296,-85.8216 377.779,-78.9806"/>
</g>
<!-- Node13&#45;&gt;Node11 -->
<g id="edge20" class="edge"><title>Node13&#45;&gt;Node11</title>
<path fill="none" stroke="midnightblue" d="M493.745,-190.396C476.303,-181.026 453.2,-168.615 434.174,-158.395"/>
<polygon fill="midnightblue" stroke="midnightblue" points="435.67,-155.226 425.204,-153.577 432.357,-161.392 435.67,-155.226"/>
</g>
</g>
</svg>
