<?xml version="1.0" encoding="UTF-8" standalone="no"?>
<!DOCTYPE svg PUBLIC "-//W3C//DTD SVG 1.1//EN"
 "http://www.w3.org/Graphics/SVG/1.1/DTD/svg11.dtd">
<!-- Generated by graphviz version 2.38.0 (20140413.2041)
 -->
<!-- Title: dynamicgraph::python::ExceptionPython Pages: 1 -->
<svg width="319pt" height="242pt"
 viewBox="0.00 0.00 318.50 242.00" xmlns="http://www.w3.org/2000/svg" xmlns:xlink="http://www.w3.org/1999/xlink">
<g id="graph0" class="graph" transform="scale(1 1) rotate(0) translate(4 238)">
<title>dynamicgraph::python::ExceptionPython</title>
<polygon fill="white" stroke="none" points="-4,4 -4,-238 314.5,-238 314.5,4 -4,4"/>
<!-- Node1 -->
<g id="node1" class="node"><title>Node1</title>
<polygon fill="#bfbfbf" stroke="black" points="30,-0.5 30,-30.5 143,-30.5 143,-0.5 30,-0.5"/>
<text text-anchor="start" x="38" y="-18.5" font-family="Helvetica,sans-Serif" font-size="10.00">dynamicgraph::python</text>
<text text-anchor="middle" x="86.5" y="-7.5" font-family="Helvetica,sans-Serif" font-size="10.00">::ExceptionPython</text>
</g>
<!-- Node2 -->
<g id="node2" class="node"><title>Node2</title>
<g id="a_node2"><a doxygen="/opt/openrobots/share/doc/dynamic-graph/doxygen-html/dynamic-graph.doxytag:../../../../../../opt/openrobots/share/doc/dynamic-graph/doxygen-html/" xlink:href="../../../../../../opt/openrobots/share/doc/dynamic-graph/doxygen-html/a00022.html" target="_top" xlink:title="dynamicgraph::ExceptionAbstract">
<polygon fill="white" stroke="black" points="146.5,-68.5 146.5,-87.5 310.5,-87.5 310.5,-68.5 146.5,-68.5"/>
<text text-anchor="middle" x="228.5" y="-75.5" font-family="Helvetica,sans-Serif" font-size="10.00">dynamicgraph::ExceptionAbstract</text>
</a>
</g>
</g>
<!-- Node2&#45;&gt;Node1 -->
<g id="edge1" class="edge"><title>Node2&#45;&gt;Node1</title>
<path fill="none" stroke="midnightblue" d="M199.137,-64.4895C175.966,-54.6175 143.646,-40.8476 119.567,-30.5885"/>
<polygon fill="midnightblue" stroke="midnightblue" points="197.884,-67.7604 208.456,-68.4601 200.628,-61.3205 197.884,-67.7604"/>
</g>
<!-- Node3 -->
<g id="node3" class="node"><title>Node3</title>
<g id="a_node3"><a xlink:title="STL class. ">
<polygon fill="white" stroke="#bfbfbf" points="17.5,-146.5 17.5,-165.5 77.5,-165.5 77.5,-146.5 17.5,-146.5"/>
<text text-anchor="middle" x="47.5" y="-153.5" font-family="Helvetica,sans-Serif" font-size="10.00">std::string</text>
</a>
</g>
</g>
<!-- Node3&#45;&gt;Node1 -->
<g id="edge4" class="edge"><title>Node3&#45;&gt;Node1</title>
<path fill="none" stroke="#9a32cd" stroke-dasharray="5,2" d="M41.5396,-136.661C36.6863,-118.59 31.9151,-90.4985 40.5,-68 46.1415,-53.2152 58.1952,-39.985 68.5486,-30.637"/>
<polygon fill="#9a32cd" stroke="#9a32cd" points="38.1842,-137.657 44.3798,-146.252 44.8961,-135.669 38.1842,-137.657"/>
<text text-anchor="middle" x="89" y="-75.5" font-family="Helvetica,sans-Serif" font-size="10.00"> EXCEPTION_NAME</text>
</g>
<!-- Node3&#45;&gt;Node2 -->
<g id="edge2" class="edge"><title>Node3&#45;&gt;Node2</title>
<path fill="none" stroke="#9a32cd" stroke-dasharray="5,2" d="M77.1707,-142.542C114.107,-127.032 176.215,-100.954 208.163,-87.5391"/>
<polygon fill="#9a32cd" stroke="#9a32cd" points="75.7763,-139.331 67.9112,-146.43 78.4864,-145.785 75.7763,-139.331"/>
<text text-anchor="middle" x="208" y="-120" font-family="Helvetica,sans-Serif" font-size="10.00"> EXCEPTION_NAME</text>
<text text-anchor="middle" x="208" y="-109" font-family="Helvetica,sans-Serif" font-size="10.00">message</text>
</g>
<!-- Node4 -->
<g id="node4" class="node"><title>Node4</title>
<g id="a_node4"><a xlink:title="STL class. ">
<polygon fill="white" stroke="#bfbfbf" points="0,-203.5 0,-233.5 95,-233.5 95,-203.5 0,-203.5"/>
<text text-anchor="start" x="8" y="-221.5" font-family="Helvetica,sans-Serif" font-size="10.00">std::basic_string&lt;</text>
<text text-anchor="middle" x="47.5" y="-210.5" font-family="Helvetica,sans-Serif" font-size="10.00"> char &gt;</text>
</a>
</g>
</g>
<!-- Node4&#45;&gt;Node3 -->
<g id="edge3" class="edge"><title>Node4&#45;&gt;Node3</title>
<path fill="none" stroke="midnightblue" d="M47.5,-193.352C47.5,-183.513 47.5,-172.775 47.5,-165.54"/>
<polygon fill="midnightblue" stroke="midnightblue" points="44.0001,-193.468 47.5,-203.468 51.0001,-193.468 44.0001,-193.468"/>
</g>
</g>
</svg>
