<?xml version="1.0" encoding="UTF-8" standalone="no"?>
<!DOCTYPE svg PUBLIC "-//W3C//DTD SVG 1.1//EN"
 "http://www.w3.org/Graphics/SVG/1.1/DTD/svg11.dtd">
<!-- Generated by graphviz version 2.38.0 (20140413.2041)
 -->
<!-- Title: convert&#45;dg&#45;to&#45;py.hh Pages: 1 -->
<svg width="596pt" height="162pt"
 viewBox="0.00 0.00 595.50 162.00" xmlns="http://www.w3.org/2000/svg" xmlns:xlink="http://www.w3.org/1999/xlink">
<g id="graph0" class="graph" transform="scale(1 1) rotate(0) translate(4 158)">
<title>convert&#45;dg&#45;to&#45;py.hh</title>
<polygon fill="white" stroke="none" points="-4,4 -4,-158 591.5,-158 591.5,4 -4,4"/>
<!-- Node1 -->
<g id="node1" class="node"><title>Node1</title>
<polygon fill="#bfbfbf" stroke="black" points="140.5,-134.5 140.5,-153.5 241.5,-153.5 241.5,-134.5 140.5,-134.5"/>
<text text-anchor="middle" x="191" y="-141.5" font-family="Helvetica,sans-Serif" font-size="10.00">convert&#45;dg&#45;to&#45;py.hh</text>
</g>
<!-- Node2 -->
<g id="node2" class="node"><title>Node2</title>
<polygon fill="white" stroke="#bfbfbf" points="-3.55271e-15,-73 -3.55271e-15,-92 56,-92 56,-73 -3.55271e-15,-73"/>
<text text-anchor="middle" x="28" y="-80" font-family="Helvetica,sans-Serif" font-size="10.00">Python.h</text>
</g>
<!-- Node1&#45;&gt;Node2 -->
<g id="edge1" class="edge"><title>Node1&#45;&gt;Node2</title>
<path fill="none" stroke="midnightblue" d="M166.293,-134.426C140.83,-125.531 100.023,-111.113 65,-98 63.1101,-97.2924 61.169,-96.5572 59.2132,-95.8099"/>
<polygon fill="midnightblue" stroke="midnightblue" points="60.0682,-92.388 49.479,-92.0452 57.5432,-98.9168 60.0682,-92.388"/>
</g>
<!-- Node3 -->
<g id="node3" class="node"><title>Node3</title>
<polygon fill="white" stroke="#bfbfbf" points="73.5,-67.5 73.5,-97.5 180.5,-97.5 180.5,-67.5 73.5,-67.5"/>
<text text-anchor="start" x="81.5" y="-85.5" font-family="Helvetica,sans-Serif" font-size="10.00">dynamic&#45;graph/linear</text>
<text text-anchor="middle" x="127" y="-74.5" font-family="Helvetica,sans-Serif" font-size="10.00">&#45;algebra.h</text>
</g>
<!-- Node1&#45;&gt;Node3 -->
<g id="edge2" class="edge"><title>Node1&#45;&gt;Node3</title>
<path fill="none" stroke="midnightblue" d="M181.83,-134.475C173.405,-126.643 160.575,-114.714 149.444,-104.366"/>
<polygon fill="midnightblue" stroke="midnightblue" points="151.791,-101.769 142.084,-97.523 147.024,-106.895 151.791,-101.769"/>
</g>
<!-- Node4 -->
<g id="node4" class="node"><title>Node4</title>
<polygon fill="white" stroke="#bfbfbf" points="198.5,-73 198.5,-92 313.5,-92 313.5,-73 198.5,-73"/>
<text text-anchor="middle" x="256" y="-80" font-family="Helvetica,sans-Serif" font-size="10.00">dynamic&#45;graph/value.h</text>
</g>
<!-- Node1&#45;&gt;Node4 -->
<g id="edge3" class="edge"><title>Node1&#45;&gt;Node4</title>
<path fill="none" stroke="midnightblue" d="M200.313,-134.475C210.449,-125.197 226.864,-110.171 239.252,-98.831"/>
<polygon fill="midnightblue" stroke="midnightblue" points="241.691,-101.343 246.704,-92.0091 236.965,-96.1795 241.691,-101.343"/>
</g>
<!-- Node5 -->
<g id="node5" class="node"><title>Node5</title>
<g id="a_node5"><a xlink:href="a00011.html" target="_top" xlink:title="dynamic&#45;graph/python\l/exception&#45;python.hh">
<polygon fill="white" stroke="black" points="331.5,-67.5 331.5,-97.5 444.5,-97.5 444.5,-67.5 331.5,-67.5"/>
<text text-anchor="start" x="339.5" y="-85.5" font-family="Helvetica,sans-Serif" font-size="10.00">dynamic&#45;graph/python</text>
<text text-anchor="middle" x="388" y="-74.5" font-family="Helvetica,sans-Serif" font-size="10.00">/exception&#45;python.hh</text>
</a>
</g>
</g>
<!-- Node1&#45;&gt;Node5 -->
<g id="edge4" class="edge"><title>Node1&#45;&gt;Node5</title>
<path fill="none" stroke="midnightblue" d="M219.225,-134.475C248.524,-125.626 295.133,-111.549 331.954,-100.428"/>
<polygon fill="midnightblue" stroke="midnightblue" points="333.01,-103.765 341.571,-97.523 330.986,-97.0638 333.01,-103.765"/>
</g>
<!-- Node6 -->
<g id="node6" class="node"><title>Node6</title>
<polygon fill="white" stroke="#bfbfbf" points="272.5,-6 272.5,-25 313.5,-25 313.5,-6 272.5,-6"/>
<text text-anchor="middle" x="293" y="-13" font-family="Helvetica,sans-Serif" font-size="10.00">string</text>
</g>
<!-- Node5&#45;&gt;Node6 -->
<g id="edge5" class="edge"><title>Node5&#45;&gt;Node6</title>
<path fill="none" stroke="midnightblue" d="M367.386,-67.396C351.603,-56.5966 329.913,-41.7564 314.027,-30.8872"/>
<polygon fill="midnightblue" stroke="midnightblue" points="315.663,-27.7653 305.433,-25.007 311.71,-33.5425 315.663,-27.7653"/>
</g>
<!-- Node7 -->
<g id="node7" class="node"><title>Node7</title>
<polygon fill="white" stroke="#bfbfbf" points="331.5,-6 331.5,-25 444.5,-25 444.5,-6 331.5,-6"/>
<text text-anchor="middle" x="388" y="-13" font-family="Helvetica,sans-Serif" font-size="10.00">dynamic&#45;graph/fwd.hh</text>
</g>
<!-- Node5&#45;&gt;Node7 -->
<g id="edge6" class="edge"><title>Node5&#45;&gt;Node7</title>
<path fill="none" stroke="midnightblue" d="M388,-67.396C388,-58.0638 388,-45.7143 388,-35.5173"/>
<polygon fill="midnightblue" stroke="midnightblue" points="391.5,-35.1945 388,-25.1945 384.5,-35.1946 391.5,-35.1945"/>
</g>
<!-- Node8 -->
<g id="node8" class="node"><title>Node8</title>
<polygon fill="white" stroke="#bfbfbf" points="462.5,-0.5 462.5,-30.5 587.5,-30.5 587.5,-0.5 462.5,-0.5"/>
<text text-anchor="start" x="470.5" y="-18.5" font-family="Helvetica,sans-Serif" font-size="10.00">dynamic&#45;graph/exception</text>
<text text-anchor="middle" x="525" y="-7.5" font-family="Helvetica,sans-Serif" font-size="10.00">&#45;abstract.h</text>
</g>
<!-- Node5&#45;&gt;Node8 -->
<g id="edge7" class="edge"><title>Node5&#45;&gt;Node8</title>
<path fill="none" stroke="midnightblue" d="M417.727,-67.396C437.744,-57.8987 464.348,-45.2764 486.054,-34.9781"/>
<polygon fill="midnightblue" stroke="midnightblue" points="487.797,-38.0252 495.331,-30.5765 484.796,-31.7009 487.797,-38.0252"/>
</g>
</g>
</svg>
